<mxfile host="app.diagrams.net" modified="2023-11-27T09:27:23.348Z" agent="5.0 (Macintosh; Intel Mac OS X 10_15_7) AppleWebKit/537.36 (KHTML, like Gecko) Chrome/119.0.0.0 Safari/537.36" etag="qm8SkWLBgSF7_CkoLei3" version="20.3.3" type="github">
  <diagram id="lEUaQghfoCpKudEkUXrS" name="第 1 页">
    <mxGraphModel dx="1030" dy="575" grid="1" gridSize="10" guides="1" tooltips="1" connect="1" arrows="1" fold="1" page="1" pageScale="1" pageWidth="827" pageHeight="1169" math="0" shadow="0">
      <root>
        <mxCell id="0" />
        <mxCell id="1" parent="0" />
        <mxCell id="o-uRExmvfYBmLYg7Qbvn-78" value="&lt;b&gt;&lt;br&gt;&lt;/b&gt;" style="rounded=0;whiteSpace=wrap;html=1;" vertex="1" parent="1">
          <mxGeometry x="314" y="110" width="206" height="220" as="geometry" />
        </mxCell>
        <mxCell id="o-uRExmvfYBmLYg7Qbvn-54" value="&lt;b&gt;&lt;br&gt;&lt;/b&gt;" style="rounded=0;whiteSpace=wrap;html=1;" vertex="1" parent="1">
          <mxGeometry x="531" y="110" width="280" height="220" as="geometry" />
        </mxCell>
        <mxCell id="o-uRExmvfYBmLYg7Qbvn-29" value="&lt;b&gt;内分泌机制&lt;br&gt;&lt;br&gt;&lt;br&gt;&lt;br&gt;&lt;br&gt;&lt;br&gt;&lt;br&gt;&lt;br&gt;&lt;br&gt;&lt;/b&gt;" style="rounded=1;whiteSpace=wrap;html=1;dashed=1;arcSize=7;" vertex="1" parent="1">
          <mxGeometry x="540.5" y="115" width="261" height="130" as="geometry" />
        </mxCell>
        <mxCell id="o-uRExmvfYBmLYg7Qbvn-16" value="&lt;b&gt;不同层次、不同尺度&lt;br&gt;&lt;br&gt;&lt;br&gt;&lt;br&gt;&lt;br&gt;&lt;br&gt;&lt;br&gt;&lt;br&gt;&lt;br&gt;&lt;br&gt;&lt;br&gt;&lt;br&gt;&lt;br&gt;&lt;br&gt;&lt;/b&gt;" style="rounded=0;whiteSpace=wrap;html=1;" vertex="1" parent="1">
          <mxGeometry x="27" y="110" width="282" height="220" as="geometry" />
        </mxCell>
        <mxCell id="o-uRExmvfYBmLYg7Qbvn-1" value="城市环境" style="rounded=0;whiteSpace=wrap;html=1;fontStyle=1;fontSize=17;" vertex="1" parent="1">
          <mxGeometry x="108" y="50" width="120" height="30" as="geometry" />
        </mxCell>
        <mxCell id="o-uRExmvfYBmLYg7Qbvn-2" value="心理健康" style="rounded=0;whiteSpace=wrap;html=1;fontStyle=1;fontSize=17;" vertex="1" parent="1">
          <mxGeometry x="600" y="50" width="120" height="30" as="geometry" />
        </mxCell>
        <mxCell id="o-uRExmvfYBmLYg7Qbvn-3" value="&lt;b style=&quot;font-size: 16px;&quot;&gt;因子识别&lt;/b&gt;" style="text;html=1;align=center;verticalAlign=middle;resizable=0;points=[];autosize=1;strokeColor=#666666;fillColor=#f5f5f5;fontSize=16;fontColor=#333333;" vertex="1" parent="1">
          <mxGeometry x="123" y="350" width="90" height="30" as="geometry" />
        </mxCell>
        <mxCell id="o-uRExmvfYBmLYg7Qbvn-4" value="&lt;b style=&quot;font-size: 16px;&quot;&gt;过程解析&lt;/b&gt;" style="text;html=1;align=center;verticalAlign=middle;resizable=0;points=[];autosize=1;strokeColor=#666666;fillColor=#f5f5f5;fontSize=16;fontColor=#333333;" vertex="1" parent="1">
          <mxGeometry x="360" y="350" width="90" height="30" as="geometry" />
        </mxCell>
        <mxCell id="o-uRExmvfYBmLYg7Qbvn-5" value="&lt;b style=&quot;font-size: 16px;&quot;&gt;机制阐释&lt;/b&gt;" style="text;html=1;align=center;verticalAlign=middle;resizable=0;points=[];autosize=1;strokeColor=#666666;fillColor=#f5f5f5;fontSize=16;fontColor=#333333;" vertex="1" parent="1">
          <mxGeometry x="615" y="350" width="90" height="30" as="geometry" />
        </mxCell>
        <mxCell id="o-uRExmvfYBmLYg7Qbvn-6" value="&lt;b&gt;城市尺度&lt;/b&gt;&lt;br&gt;· 人口密度&lt;br&gt;· 城市公园&lt;br&gt;· 交通情况&lt;br&gt;……&amp;nbsp;" style="rounded=1;whiteSpace=wrap;html=1;dashed=1;arcSize=10;" vertex="1" parent="1">
          <mxGeometry x="35" y="140" width="120" height="80" as="geometry" />
        </mxCell>
        <mxCell id="o-uRExmvfYBmLYg7Qbvn-11" value="内在机制" style="text;html=1;align=center;verticalAlign=middle;resizable=0;points=[];autosize=1;strokeColor=none;fillColor=none;" vertex="1" parent="1">
          <mxGeometry x="360" y="35" width="70" height="30" as="geometry" />
        </mxCell>
        <mxCell id="o-uRExmvfYBmLYg7Qbvn-12" value="外在感知" style="text;html=1;align=center;verticalAlign=middle;resizable=0;points=[];autosize=1;strokeColor=none;fillColor=none;" vertex="1" parent="1">
          <mxGeometry x="360" y="65" width="70" height="30" as="geometry" />
        </mxCell>
        <mxCell id="o-uRExmvfYBmLYg7Qbvn-13" value="&lt;b&gt;街道尺度&lt;/b&gt;&lt;br&gt;· 噪音污染&lt;br&gt;· 光污染&lt;br&gt;· 刺激与压力&lt;br&gt;……&amp;nbsp;" style="rounded=1;whiteSpace=wrap;html=1;dashed=1;arcSize=9;" vertex="1" parent="1">
          <mxGeometry x="35" y="240" width="120" height="80" as="geometry" />
        </mxCell>
        <mxCell id="o-uRExmvfYBmLYg7Qbvn-14" value="&lt;b&gt;社区尺度&lt;/b&gt;&lt;br&gt;· 社会交往&lt;br&gt;· 社区公园&lt;br&gt;· 公共空间&lt;br&gt;……&amp;nbsp;" style="rounded=1;whiteSpace=wrap;html=1;dashed=1;arcSize=10;" vertex="1" parent="1">
          <mxGeometry x="176" y="140" width="120" height="80" as="geometry" />
        </mxCell>
        <mxCell id="o-uRExmvfYBmLYg7Qbvn-15" value="&lt;b&gt;城市活动&lt;br&gt;&lt;/b&gt;· 人口混杂拥挤&lt;br&gt;· 快节奏的城市生活&lt;br&gt;· 高密度、压抑的环境&lt;br&gt;……&amp;nbsp;" style="rounded=1;whiteSpace=wrap;html=1;dashed=1;arcSize=6;" vertex="1" parent="1">
          <mxGeometry x="176" y="240" width="120" height="80" as="geometry" />
        </mxCell>
        <mxCell id="o-uRExmvfYBmLYg7Qbvn-19" value="" style="endArrow=classic;startArrow=classic;html=1;rounded=0;exitX=1;exitY=0.5;exitDx=0;exitDy=0;entryX=0;entryY=0.5;entryDx=0;entryDy=0;" edge="1" parent="1" source="o-uRExmvfYBmLYg7Qbvn-6" target="o-uRExmvfYBmLYg7Qbvn-14">
          <mxGeometry width="50" height="50" relative="1" as="geometry">
            <mxPoint x="349" y="220" as="sourcePoint" />
            <mxPoint x="399" y="170" as="targetPoint" />
          </mxGeometry>
        </mxCell>
        <mxCell id="o-uRExmvfYBmLYg7Qbvn-20" value="" style="endArrow=classic;startArrow=classic;html=1;rounded=0;exitX=1;exitY=0.5;exitDx=0;exitDy=0;entryX=0;entryY=0.5;entryDx=0;entryDy=0;" edge="1" parent="1">
          <mxGeometry width="50" height="50" relative="1" as="geometry">
            <mxPoint x="155" y="279.5" as="sourcePoint" />
            <mxPoint x="176" y="279.5" as="targetPoint" />
          </mxGeometry>
        </mxCell>
        <mxCell id="o-uRExmvfYBmLYg7Qbvn-21" value="" style="endArrow=classic;startArrow=classic;html=1;rounded=0;entryX=0.5;entryY=1;entryDx=0;entryDy=0;" edge="1" parent="1" source="o-uRExmvfYBmLYg7Qbvn-13" target="o-uRExmvfYBmLYg7Qbvn-6">
          <mxGeometry width="50" height="50" relative="1" as="geometry">
            <mxPoint x="349" y="220" as="sourcePoint" />
            <mxPoint x="399" y="170" as="targetPoint" />
          </mxGeometry>
        </mxCell>
        <mxCell id="o-uRExmvfYBmLYg7Qbvn-22" value="" style="endArrow=classic;startArrow=classic;html=1;rounded=0;entryX=0.5;entryY=1;entryDx=0;entryDy=0;" edge="1" parent="1" source="o-uRExmvfYBmLYg7Qbvn-15" target="o-uRExmvfYBmLYg7Qbvn-14">
          <mxGeometry width="50" height="50" relative="1" as="geometry">
            <mxPoint x="105" y="250" as="sourcePoint" />
            <mxPoint x="105" y="230" as="targetPoint" />
          </mxGeometry>
        </mxCell>
        <mxCell id="o-uRExmvfYBmLYg7Qbvn-50" value="" style="curved=1;endArrow=classic;html=1;rounded=0;strokeWidth=0.5;fontSize=7;endSize=6;exitX=0.25;exitY=0;exitDx=0;exitDy=0;" edge="1" parent="1" source="o-uRExmvfYBmLYg7Qbvn-41">
          <mxGeometry width="50" height="50" relative="1" as="geometry">
            <mxPoint x="671" y="256.8" as="sourcePoint" />
            <mxPoint x="641" y="170" as="targetPoint" />
            <Array as="points">
              <mxPoint x="691" y="120" />
              <mxPoint x="641" y="170" />
            </Array>
          </mxGeometry>
        </mxCell>
        <mxCell id="o-uRExmvfYBmLYg7Qbvn-55" value="" style="group" vertex="1" connectable="0" parent="1">
          <mxGeometry x="549" y="135" width="238" height="101.35" as="geometry" />
        </mxCell>
        <mxCell id="o-uRExmvfYBmLYg7Qbvn-53" value="" style="shape=image;verticalLabelPosition=bottom;labelBackgroundColor=default;verticalAlign=top;aspect=fixed;imageAspect=0;image=data:image/png,iVBORw0KGgoAAAANSUhEUgAAAIIAAACJCAYAAADgxOA+AAABWmlDQ1BJQ0MgUHJvZmlsZQAAKJF1kU1Lw0AQht9opWIVVBQEPQR6EmKRVvDcFlGhhVAtftzSTb8wrUsSEcG/IPTUswfx4B+oHgR/QD0JCuJd8CCoEA+1xNlUTas4yzAPL+8Os7NA36DGuREAUKnaZmY5IW9ubcvBR4QwjRHICGvM4nFVTZEF37U3nFtIot7MiV5Pr87Re/AlfZZt7tTq6dO//p4Y0vMWo/pBGWHctAFJIVb3bS74kHjCpKGIa4KLHT4RnOvwuedZzySJm8SjrKTpxA/ESq5LL3ZxxdhjXzOI6Yfz1ewa1XHKGahYQYpeH8UinSVK/ONf8PxJ7ILjACbKKKIEm+7GSeEwkCdeRRUMEShez3nKmNjz7/35WuGaWk8J8DXjGLh4BiZ1XwuXgbEWcMm4Zmo/W5WcgFWIRTscagADddd92wCCs0D7znVbDddt09/03wNXzicRW2WFL1ERYgAAAFZlWElmTU0AKgAAAAgAAYdpAAQAAAABAAAAGgAAAAAAA5KGAAcAAAASAAAARKACAAQAAAABAAAAgqADAAQAAAABAAAAiQAAAABBU0NJSQAAAFNjcmVlbnNob3S/0wg+AAAB1mlUWHRYTUw6Y29tLmFkb2JlLnhtcAAAAAAAPHg6eG1wbWV0YSB4bWxuczp4PSJhZG9iZTpuczptZXRhLyIgeDp4bXB0az0iWE1QIENvcmUgNi4wLjAiPgogICA8cmRmOlJERiB4bWxuczpyZGY9Imh0dHA6Ly93d3cudzMub3JnLzE5OTkvMDIvMjItcmRmLXN5bnRheC1ucyMiPgogICAgICA8cmRmOkRlc2NyaXB0aW9uIHJkZjphYm91dD0iIgogICAgICAgICAgICB4bWxuczpleGlmPSJodHRwOi8vbnMuYWRvYmUuY29tL2V4aWYvMS4wLyI+CiAgICAgICAgIDxleGlmOlBpeGVsWURpbWVuc2lvbj4xMzc8L2V4aWY6UGl4ZWxZRGltZW5zaW9uPgogICAgICAgICA8ZXhpZjpQaXhlbFhEaW1lbnNpb24+MTMwPC9leGlmOlBpeGVsWERpbWVuc2lvbj4KICAgICAgICAgPGV4aWY6VXNlckNvbW1lbnQ+U2NyZWVuc2hvdDwvZXhpZjpVc2VyQ29tbWVudD4KICAgICAgPC9yZGY6RGVzY3JpcHRpb24+CiAgIDwvcmRmOlJERj4KPC94OnhtcG1ldGE+CtZJm1QAADLdSURBVHgB7X15kKVXdd/rkQigZYSNFyQhhFgcgwiLBYLCCIlNgFhcCEMSkEgqmLLBAYvNSViMSJWFEvMnBqsgxSKzyBVBKoAUsBB2EBBwGSRsFORgAkhKkQAS1r4xnd9yfvfe7/Xrnu6elsTM9J3p75579vM791ve69fdS8sYswWDzKWRD8YyGOHRaqkW1h0sQmpeni3DKnZ2GYUxwJReoQHGdvw7D/8dgZ/tGsfS/P4YNoH0lrq+mzy0OjLNwyaICTuqEQaavB2/MPF0V+O/I/j3dlVL6nQfLxi9bdyZaeZ8S7mGTMpdx8vyUGxeKbbjV+MbnncP/jtafOXDRo0tRqty/UfHeludfJrIVS4CObN90sPfpPf2kM2l1cTpdvy7C39cgTQmDXebq0PqjRtUPW0bonPTTXNqm/RJhji0TVWiUufGGDfcdnwicBfjz22gs7bu5+qNGtdzcWPGY3VwYE1MarEMn+P1JeoWDzK506GnQuXsrxi22bptCcI+y6QW2/EHjAewDM8gA2OHmALcqC8RUpLaGJRKY27qHfIzJZ2WCQNqEQIzXOSWYW6SyP2w696l8Zd3zXbtQg4qwjXdpfGDikLfvfFxawAS6BzbXRcFdmUyJLPGhL9iYcW12dThcN0gBu9r2q8ilLM6rKIyYXPBgfi+GFrKW9P+Vr+BcP14+Vg7MWhhJjkOv5Qhcitlo16aO9qTVoS6A2nhkGV6N8ZHcrx1MYO2CRbUuM/Wrw4U/rtwWkz6Uu3B6VIdXChdfH1I1zlnLDQvRW4OnonRHedV4t9xx0/1zMmz+bLLLiuL5dkXvnBJs/76175eNDwv7ZpdeeVVisGoN9xwfdO75eZbWvx73OMerhdKBx90MOpzEYcffgTigcb/hx/7cNg6219/0pNmO0gCvcc+7rHN586dO6dny+Li7GcT9ScQs1vhOkzOGSuUKCjFIT5qGaxAtpWe8LvU/JJikv+mXFETlMCBzg6bV2sCbYJBCrKtVonvuNCCXPd22fTNRPkSn3wUfxcm12C/tEEMJKanmvn4uxyfD5n071cyfIYoPn3LMcXwIX17LgQ83Yn1KwDTIzEfWkzwNxF/R7se0Ckc0YdG5lo6ho9uMBS4nNOjuh8dLebarSBVowWB7rhb1hGfZypD8nKt+3olIR7sGXsXffI/m0VdHRmbG4N8cv01ic8bJdhptnaAVuTIEh52aR8rvm6s5E/HnVk/I90Z+KMe7vdxcMniwi66wC1kZRBNW2eV2dz5Y5OKaKtBzby/+7srirc0e9/73uvqkcqFF1yI1zpu2E/+4R+gAya6d+QRR5hGgsc+/BG9BIgf+tCHNv/3O/xwXdJ5Nu887NCyn81uuvEm0dwkP/rRNaDdzm9/5zuIgJzw//LLLxeXOn//998hSxtHVxDBuDR7whMebz+wesUrXqE8KDrppBPBN6pEtBkLazIy5BULzhzUBn0n419vMSdoAmdWykrGu1AkhRr9TEvyZMcGubc9ljtuSasuo0Sb1eKj4xqIBLfyElwSB2uexfKVy7l0S18SWNJONHxhE2g3LME/bFUHbLsFNbkqIxjzWYY+qOuyeI2QMRSpSSGO/KItklK+oGVDhxjyCDPng5Vy18EK1ihNaYtO/k1sbtnQvusWc0P46y3mVjA9tJwaIb8JkyCezY09AVL5ZUpQNFCFqLjEoiQiYm9dmzgRG+gyDHZ5sZrAB8mYCYMG4+FXAHBz5NawvIwyuZY7EqQx8wu0biWkMWxXNJzTtRouFg39xU2+xMD40iahMZ8ZoKcX5JgVv+zop2FLF1xz0EVfdZ2m3NRMTI72EnvG3iz+K24NzFuFt2NyYzhmrQon6fSFrfuaVOeJwmF8x+/73/9+qS/Nznz726o3y7PPfOazZbk8+5V//Kvyw137kpe8hAhLdsqzn2Vb+DziyCMnscrphLcoftczJZ0W2Q0jj3WM9V93/XVEQ/l+8RK8YuEGATYfOvdc8WlxyRcvkZyyhzz4wfYKZ6z/35/5dteB9YknPpnqGuuNH/3pbOvVeJLiMOIf3Vx7a529xaIMAgkWrN2Pmbs/g3uCQ5MOXWYJj+RZUVIcxjO76yEOTiVr4+jtLVPyGJ9edPaDYOJ60AOtnBSCmvPDHsmVFIfF8amx/vrpaxdvMRiOjwQUgF7qC8n6n5LTXiF8S8heV5F+mZKfjcRXXLs1uqIrgfLmibyKT4bir9SbboQCWw6gO5i3IrsLgFY64kW/kpOPdnAT45FsqUW3nLINZLW9VvzKXt7SRDy79/gymvMp7Rx2Ez9qG6hft4aqWbcc0qqnJU3MMZycRDlzyMP/pV2pphLYQHw62DL8Eb7dGpxuJTSZeNdhwkwepbG6ptyIicWgMMfncnn27ne/RzP9nv2Os5vLhz38YeIT2D9429uojLE8e+KvP2lL488VUVHM1WJy2Hz9//u730PevGwszf7jH/1R1Wk0zz//P4Ov69rs+c97viEFtu985ztLD69q+OYUJFuN/6L6kQmbGRBAe6kEJEBa3tneBBKboQStwyMTzoBCX0iWdbucS44Duq5SMfsBjluOseLgToifNDU7jksCnbCN2Hx8VtKbWEF5MilG1Vh1tvc2ksJdXD82giFwdkzOCTc8VExHLtrktFwlDmC9zli5sRWBRvqCPkn+a9c4xhdzuMyOG4z6fVC1jw3Eh5FyknE80hnj22N3vWfx6U7vbyJZ305Yn2OpVLyiScxJ/JbAnsVnNSvwD4/CCs5rUwN9DDkFWVo8eDMnSYGGRe59xTeWXFCWUJnrfg0bN4MAQQ2bIS/JdE2QHQ5tmNYx7E3Gp0vnaOdO3+dvwm11/ayV/zinEtNVPx8gS8LzIg/nyUdAYnFn1d+eEXrAoogOM8JgcMOUs85NrI0tnX4oGRg33HCjEYev33r5b6HZKB2Xxi99CS+r4JGez3rHOxSAoU477fTBzZ7Hr8QVx4mEdEU92AJqC+pfK/5Xv/pX7WHvd1/1u4Yaad16223CnbfJD3/0o8DGOByL5ydilo6IXlhGx3+t+A2PKl1XBNPej/StwTM0JJNpSZSYk3sJwpo89mQpNp9N5ibgMjp0qc2AjaHimoyOMbYgvi/BclaZMA+veZyOra9/7fiFzlg/geJ/gOM8CQPw2ST+a8efVu9bg3gMqDyahhPAcmiKERWa1guwZdskrdEAnzJVJgJ22AIqmK6XdQ/lrWGr44/V0HdtPc1cZXdIhA7cHfFZP08IvxfBjIkgvpiUz5a2ZMrOuaFcJVq/LKU2r7e7+tFrbTcHZXdqMA+u2gxiEEdNs0ux9jXXXIP8UQ4iP/e5z7MeRLfhkqc3hUD/2XkfazoPetCDraPdQh+1xGSPNa8zvq27n3LnOlJMmK06MO7G+LfeemuL/6pXvlJAM9XPXHihNgivHR/96HnGH4ITnnxCq4DEiL8FG6+/3xrGLhP0CqWZ6zCYYRteeBeTiZRli9QoGmyoYxaOvDpoi0aBugMtH/RXLriOmE7a8GISvwVtSiJkPvggeOXdii0Aloxnrmeuw3DIknqxJfH1KRe4zTfCGE9BjSXFuV1UcExbFx8bgc6qOkyiWtHFz5oZjPSQmTTRfTU8OvUWrJ3ydsCiLNTVgf62PL6c+lDpJz5jhZWN+bMSX7dOJKcMCRETrbMp37zCh63Wgb9L1zHFapbDVev3rYE6aV75GVlMLsDNn8jXXXddi0wXT3/G01GAK7k3PvLF6wB9feqTn5QXVnjoofwcAEaCZDZ3IrLa6vEHk3WSQ7CQmQcPI2ut+geTdZKD55CZBw9kvfUtbxFEvHq+95z3+kKKzfCpT3+6+rU8O/5xxw9W6yGHYCEx+2FxbhOwQyNLlz4oi9cE9IKBpvui775yE5eEQtFeZ0vIyjrla7iwWAhpCwPO2vFp0iOS9KrzQnm2Z9E/4/GTN08+fyFh/mfeAVpK0TQUXnVeKM8uWrRJbTDfGqLZIC0NrDliNKiBVw4xLfO+ViOW1FUDNdPHsj/s2fTiDXNIyEzGi5XFY5yy5TTGFzqRQY/WkY9UNixVOw2vg2OTPxvxswF4O+UbkD6tMHMTYDfolqFUh3xBcrXR+vurBqEBF0SCGcgdpgnfa33CRzqz2fOe+/xE1vyjH/1YIPMsv+iizzFr7eCDDz6ExvEmgjpM2qNiriP+aBXr7picMf+mIaJJQOxN8V//utdXIcuz888/XxBwP+izEKp4aXbUUfdvOgsxkl5J5urvp3Jaos7082V0SBC9xt7EFtWDHzYE+frksOSUlR43Acg8IBaXHLnpm6BLnMbu4tMnbTwcbmSUZ7FyHlnXEghA7F3xUQcS1lvxKGUZ38JmBSzR38vIkzmFVdkG6m8bYQoXQoxIw/cEON6k8AirexUEDDs2m1cUXzCYPHWVEZToCCOJNgZFEVplzfhUiU+SMvHRZPmSTm5QkCTEXhmfdRBXF7Es/Hmimc8Ts41gs4H6l/ATbz5tmxe2pIOnbwS548KRcJ/1h2epl3xt+573/Am03VtafelLX1aT+HLoiCP5yWIPpu/92xsmngVRw7z7+INyIxe4yQ6Rzr4U/7nPea5qY1tuvAGfvsbM+j530UW+UmJ9AJ/bOtTVuylKWhVrc78fAQHYVD0rIAGdYHTIrxayGOIlJ2eWNzO1GpKNbWdhS9YmpKzzGQejfJPMSZAri096KOyD8Q1Jx7/Vr1pd8Ebr1/UkjXG76KjQy1bT2uezJHXJYTAm5SaQ4O3ClyomJ3/snlzGJ23ILD6ndhtqyhLLXmY8DPFL2orlWi77tcwRcGwu9534rht4sLycAawTdPDnUsWvs36/ahDOHez4NrjyOPubb/wNCJ9vT3vqUxWE31E894PnKp4lS7NTnv3sto8WfVqW3tyS3jTvs7Xj064P6/Z1fCqVtthX4//ohz8EZNwFy7PjHnNcw/+Nb/x9QAJssENe8+pXYxowHsBahP+6fz8CG00HevhTOARBQPHrjJ5sIG1J70vlJmtnQys/hdinN5x1dd6TlDNFtJGzLy/ll3mIL1hsQm3Zh6AS/5cDiff2+KxNRamuXFEb/hQLosJpHfW3H4IVTDoE5KCp1uCSA9/8AvLZDExGl3nyFVkOmIYGPXDoEubMlL8YkvTbyO7ip8vxKXMcfJeZ51oa7r4WPyizvhH/vtmtsZH6fWsgbrSlJWYDR2YNNP/kZ/KHSRzgvve9L2goYwt+9CP4FM3ciCuyG10bKMnNmXTFVeKr44tkKxx1V/tD/D/FD9SwXzz8uzf921b81/76a0KGm+OXf+mXwfcJvBr+vjXQJBqYRcLQXinDmcvrjgQ593E1oMo4ai1+mcetfDTdUmRy4UURs8i5+FKLDItmF3vOxdzv4qtuHPKeEmfysDkC6+7wb7cG4khj+SSta65vCxKVgI5J6qLelKmBkai1abRTwZ5X8xamvrzQ0gOKTXc+vjRKikmhmnLZ74fxA4FaXvUv+v0QhVDhHMWO/xJ+mZRv+fRI+TB/4ZL/jiV+QAu833zxi5qvL335y+CCiWYdc/Qx1ZUmbi5W5yQIwtnNJO6YR9ec91aSBQorWfOcvt7b4/O9HL3LiLPu8U84Hni6yc/AxwF4vWWrzzrrDwFeNV8wrqx/h048CqOX631miPgypKto78lAT6uxU/upxeDzo3OaJxHQjajN1vB9J77AKzZnq9bVKnaDQmO1NDrHbrAWsQ/ERyHuiNtu/KvKXJKHjqxWPz9Mj2GxcQtonKc0tfrNIjJaWUKq24Cr+zx5/VlAVlB3jlgptA5UxIhfzp1eUNOQy/4bX7gIZ28Hn1juUke9U0J0Af561TDC2Hu6PHvhqS+sZizPDjr4YPcFyufiSXUcsXc+jtLOdCo2BdDp7eAgYrHaohGD5mIymvt7/I997DzgCzTw/81vehNONoANUL5x2TfA8tX1kHw6bICS+Okt5rE3PvMMrRzBMV3oSLbQHryAjD1fWXBfTjYBLKPg3cs86aiP2JMziV8qChub7fgduKKCn68DxD8c4xy89Z1rsLKOI2prI4RBFbvA0eh7Jh8d4sbwk6Ut0hOF0yEJdI/eBRLaN1R8ERt1Qk/j25t5+nAn1Lbjd4xX4F+itI49HLGWGIeRF+T7G0rkwPAH/+//+owGfdxjH+vmQXTeebjs1HjiE58IiuGyBy0Qx+zS7NO89kJdMHlFqHoqQvcxpeY9VkZmT1WxmtfWel4X6705/k039V8I9shHPqoBctZZ76gL+fLsxS9+sbCZr79dEShgB9gE/uaSjhFpcomSdTQXL02DRBwf5I2sNqxXfsDVFhqMZYH1wCo6F7KKT49RBrFCX4z9NH7wU/nAbQ4c3zKMzTz+2AgRFMJYEl6f6+SFdhRdjirAtA1pmG3KLRcYcmpqkl3JMNll10tejk+9il8kp+341QiCATTcSVBk46CpjhHmfQaZ6GCrA9MCOiL95xf9OSa72LnzMHDws4lYHn/840XLb3nR2wtU1eh3HnlqfHqGDGvzHcebjYZRND/LWkHOArvvaMuyK8lPZGJnIQ/7R/yD7n0QYRHOJ/L3OhY+53/8E3oY5PJFL/pNHNnVYGqgdGvwQweFttTVACRVwvEHIOxATMikwMXkqSWtpSVlWWd24KFPZZ74dAxdmk+GGTpGJidYbMc3UoWLscWCIHLiQz40RuTn8ddG0AVAihT3M7BdxQE0sfZGoWdT8k733UHZYyKfDujSiiSKZFp9dHMpd4GozmvFbMc3ooKRGBdGmqo3AJ63AfXQP39QNEFdiT9uDRl0wFvDRfreAh087nGPwyWFDnfNDjxwUJUm7BhY3XGL7D6XHMrNp2Io741KPKE1Oz5JSVFcbPgZCBY7WlkHylKyJo+0bnr7cfxnPutZ6J1/5cDbz3ybYOLhtjtuL3yWZve4R++pbw0BEIoEUbuIkPJKQOtqitSEdoPaBrQq2yaZ01NPoGS5hG4i48kxGlg+tMRBG4CL7fiFEbCYw9WArsSfWOY5QOeRLw118aATKRBdufStQSsI2CXqZEoDBn510kp19GaJVTlwx5ue8wizZu8Ou1S2Td1pJH5cc46Lrgrdyl1W2/EFU8MJ20E4clug3YJqJf792gBljsu/9T+hbGD1e4/I5DKOiXNoAc9LcRj9ck6zcUgjavCx4oOVLQCshngyGdYVslw7me34Abbj/6hHP7pO7CX8LqsbWiuuvvpq4Uv8j3ngMY3vLSJ03QCeXXSrkxUbQjQPGSOdewhkbAk30CiO2xJKS3qg2DzTPBYXk6g44YbkyHqe3o4veHgQUgvwF3QWqqmF6Ar8sRGgGkBBagPg7FRLNTOIzeOvRR8aJHI8q6kUuYViqP3F950BizF+OVes8rcdf+P4G3IcATLh1VUTPxZH/L1Ghw2y8NczQvqQ3vFzBOyBw1c/sbDz6lSkUoomZCC96rxQnuXFOibbPohneiiRWC5iO/7G8Cd0aDqbi34Sex99I93FBhfIVMEzwvLs5ptu9gMFtK/BX0XhR9No9DD9enzSGPTniSvQdujdVR4pAMlV5CPlm4F1O81gZSQ72luH7jgUF6zt+MbWmKyNP/9swQ78/CNf+t/zXvcUeOz99777XTghmHhGOPqBRhf469aQp0pq+yWjPw7LBwp9TI3XEPx3e9iO0H1WlyThYTyjbWWR2y8aweOJeSkAjr5cWSK9+NqOvzH82Wsh7A2jIzBUZ2o2ypBA17cGIU5VM7U/SPNM5deCFLCh2hDpDponG5ASOJ0o05sEIExPJWZmk1DWtZI4udvxiYLHYvyBYfDXSVd9qJObze/I6tYwm133k5/UfXppdvvtt8s7nRx++P3AhzoXc4Y+de1qPMpYm4IGzITbq4aX8EcZeWGQ6jcTSvJuIukf4mf9qE7t97///WRJfxf/cgaZOrQokvk1M+S+3LRwu3gN5AVvjI/6vHcrV4IFHT1aQb/KrziMx42KfIUNPrdxHH7+sMbJJ58McdW1RfXLNfLtFYKTGCSjoNmye93rXiCcx86dh1a5y7Orr/4/+vkHw1J5QtMfXgVX/8Bn0XzA0O0CEZYBdhKgWUZBlqVCtgUtpBzLLMtDsXOZol33R4jJsJIeXLFMoyiigvItmqvybJkaBO/1UxuMwz/0ofcuqCgQqVp5DvWTy99Govq5CfDZjPwUkL+FWzbKwLkkjSqLAZSHZgoxXFNlWYotPuRr1S8H8VGLrm9Gq1/LaXzKXD8ILlAQpzG+fj9CnAiopOQd0TZEmcF8GDEEq7CFczPdONCl49p9zKebtTKrnFJ5LBGpoknyJT9MHf9kw4bN5QJFPdMwLHQUBzR3O+3QUhmwNA7HT8ZkUED/lZQuBRWfPsCmH/+fxrcFY9j5VtbPXPcEf+aW+pkh//vzpRLQOV81zGbX43cl8gccBBexUlU7ZgcfgkuKsNGhSiwx1FisHBsZchQQhF2ET3NHJzEAzQUkANzgM7CULZBwNruSfwCsmvz7/wY/+h01xof6aCG65J6iDJcczWaiVC4HHnURU60Vu2TlQ0HBYvzTX/YycqX7jJOfUbQ55RgLKNYG6xtNRrutPxt0rJPe14v/gQewzY6vbzqBZKdSA/HXKeKzjmG4n8HiJ1EEgjljAoTDHoQp6M6R84gVrCypkrOsrHXm2BQeSFjXCWI9BBUPLOthlszGlIUfEyFEj1IB16rgkBnXla2Vui6V6UjOcn5PXSyKT/V2Ey37Zs34e1B/ossNXKUCl+WjQ5pO/i2+Tu4u44WU35cMLsQvtz+SCrHEJynZwE1dQ1W4gJmmoJTEN6gGCFzay0cP3pKSyO2jN5kPurrCyN6lUYd+KxX4LZ+0lDF9iGA6NebWXMIslj0/qke3pK2IclUqLcbC+N4CzZSu5K58IkSzl2hj9SuTStNT+YXAuKyNP1vq2748AULoq47KCu70OLXjgAMkOGDHAcKFG0ABVcBs9lMuqsqeQpxynueWzJPOtpy1clxnIe18a1HYOsQX5/pCljuwT3dgZuUGo5yXek3FTOAhs6pFeoxf62ZQO601U7lBWo2nnbFbGX8Jb9zw1tou+eU0OTHcntSvevcUfyRBP3LDl0522vAHp6VIsnaYG8SSaVguVoJXBbepKleMYio46TSQOqVnFS+UIEkYjPbU8ecSkAWvaW2Uk1L2OVHCwb/FxcDk9TTCoD7EdsPzmQha1F6ZBoFAMhZVjkbvpMXegvoZaPRdifRplfjOAJaQ6xysTWVDG/VbA5UqaYpyWxDPunIUcmFCxVQc0viKPk+nRqecgMOMIsQsUqjHYdmWjqeS0VZjWDeyDCC3z1Lt7LIsxnSaeB1NTLcg8M1Ng3Wx7oz6lQwCJ48evWritEZ8IRijbIQB/wNZxCGH+Nfj0hFfb9rj0uz6G66vDcHfmcgkKEMqmHyZ9BJHj2SpQE07VtGCfVWkzVE+KQUZkQOI1X+bO8yectJTnBNo/TEQZlXuhgBwBSYK5SVbNSkMeBhMj2+UOcMhqEgpWk8uaq2Jj9Kwkh5UQNDLscc+QvrtsMX1M2tn0XPZCP633nYrsuRYmt37oIOqfi6DAR8Wda0AkzF4o8Ca/7RmxVxhiiMwBLwUkiGZw8hl2ja0pZ9hCCivJ/Fh0ESDiTJS5fSEf3KMKCpkmoSapBrgHyJVwPyraPeIGVICX3RGPRqSLFvpjfVDRoX2xhRsE5+exrHV9dO3wtcx9Ws5Hxy6q8eHRHVGg3Xbs38/Aml+8R4MBOh70jyikoCYk5RYXsCiKzQWuB6dYy2sRSChiNpcftwJ16r4VQTEtOHm0KbA0RvXedNxd2Vq4MhGtgnTlJEpeVU/5zYU33W3E2WMLx8r4zf7llFQgoHcI7MxPg0SV3Myh3LSwWyT6lDsB4XGagmEk65i1ibv8Q+k/X0O2wkBLgdY/KN73lO7hCZXXYX3pSvArz7s4U4gPpmzZGQwywgyg4tgfpImSGqXtaDuExG6Ml1k3/085MEPaRE+/xefR6yM2GUO3/Oi+JJA3fGxkuli+9HbYo1wM48WcL1F9QtpwCFEOixYJ25mxrfCDTfi42nF5huGwfuoox7AxLCmHr6k41vebJcuD+CQiauCvwHBBb/seogvng/mtn0rFwhis9oE0IR/aRafi+YPROzlMzoVO8GafhiazY0943LLbccHvsSRzRaeeLJhjwUMGCDdY+oYf14GelOwkr6soUEJ/vPtEgKsEZS90pGaHNu/H8HXvXa5FyoGnmQ/3wpLyQf8o1P4R4vz5vC3B33/BU3yd5LtK76ZAvun7zXcE7cDj+XZL/7CL2jjsPWXX/7N2gJLs5Of/nRZ+Gm7tOEtm67twPLUJ4Zh2LoqYFlUV2mUgXQg+6at9Iki/m/H7+jxnFwN/+9+7/tClejfcTv+uizBw3jgMQ/0hSHPIuLqdUJRnAC2WmYb7WC1gdGKVxOVexK0hYC2PpAYh/2OwoW6FV+W8TcXeDt+cF0b//bdRfYJ/4w3jrmi88QS0/50ayApHmQ04UsMmVMZFL4lb40YRllalHmoSTpEMZLsI/sjV6lJ1zpxObCgw5GLIjTiNsrb8QsjYyi8dDBQPKbfuo7ghOZa5zWvCAZYxrg1UD2Xm+XZox6JH4zggKL/XpCdnvF7r5GhtMuB95rV3bD4gYLdlhALZYAJMxPpw4pmdb3uYPAZt2W/HT/YEM06eQXs0uyrX/mr1uifu8993A4Af/j9jmgnmHtg/HFFSFfMYL/I4opfHOKZbNpcTm8zPSnZxS3taVU+ecniEE9UFMm3nuUS4pArgtfR5mo7vjEJMsFmij/eBMMG4Mnnl7OQAji/fBSKMtetwbcNXqzRHveJ+KvpXjKEKR1NWoH8dt9JSpypRFmpYeVExyP1Yu745kCX5pNhho6RyRUW2/GNVOFihLkwNlwTIs04Sk2HMgOtVw25VPOcPvmZ/PAlKDwYvO6Nbyjj2eyWW26BA5/198Ln5EXTGY0dueZcosCUnMEaUeSwLhfUsndS44jzwQt3NLW346+K/4UX/Dehzt4cj1+Kxj4RLn02kZCm6UW2h0XCTEUOPSyWhM3xt2LdkLRFMw8ysiWP2Sz000/r2oWUN0NpDAfHTw5JnAqJn9ji5bAdH0isxJ84B3X23KfO6vj71kBQc4bFLXz71QMJuOREmWIOLRGpSJI3yZyeL/XcJhwSzk0+w5s9tLwBSKSkmA5aInGo/Jpkf4+v34xnXAjFUn0LwfisxN+3Bii600uzk048sQF/+x13qGXcURdf/Dn0g46XZ6c85zm0aEO7jbI0mO3mchjaod6m4JbQ13avtNO6kZKvDSCuGN10cI2o2GDb8WfXXHuNsOQrs6985X+0brzvP73P7a3+L8K/3xoEJIEGCwZtScTx/QcCTcBzTrsR9szbhwd1QherSUBEBDN66gySEYJmfEwcmrkOg2ZteLEd3+Dw+wl6eQ58hMyAmchhPY+/u24zWUuBBvSk+wAWteYJnJd/6gXP8BoKDP3OgUDMzHLYWGyexebLDUjx4kTxIcmaSiO9HV+w8WAUeWUEHYzA1EkiULlw+6k/jz9uDbSUROR9DjuMemI9gz++RRoO/vjdfyw5rw6nnFK3hgSEjsh22sqsmE0optpfer4zTOPHpVIqPaafxG0z57+FiPWc3Mnt8/E/8pEP+xaASg/Fp878fZnl2UlPOUn9aSguwN8Pi3P4cRuQxWaoIdhiagC3WtOlpBSk5SVJS0oelTbbgaTlq+3gcpH4WWZXS307fsFS+GoyXRzgH5BwCgFc8v3Fo2XSLTXi71uDuPZv0hpsPr94heZDZ7+wkC6HmkzLA0iuIh+p3Ayo12k6l6UOJgd/4IoH1qDW/HsTDfogudov4w9nFLHyp6k6EuNtfR5/vELLjVimRruuv3/7zb9Vc3h42lOeVvTy7IILLmQUrY87Dm9WcJT5goVZdWxqIJh3b2FJNDWt7rixGjHxu7/Gv+XmW9wLgPmoR+M3sgNRNvl3XvVK4wO4zjjjjIZVQw/EiL9uDdaqlmjyfvGnWsCgNQ409HvUvOTgMy5kSIJDbQwzzG92YvrQLECUVklrpanv11FLaZRVti+Nxd9f46Nu9aF+MIHIGRsAacAyCWejDAEI04a/bQSYm1PHvJnTnv9AMIhaRKb+ILiV7XBwm6Zo1h3eiglRG6hlCulq8SudFYmPG2//js/qAezcSekWGPDWmTXwHz66FvVqiZrN3cXmW5YHD+8Z8GLiVFrPJFDQruBlZVJs3b0aK7pDfPodTv1SVZzklKCjbL+Kj8L9Hk/aARzRO6LoN9mMkPBpJ2h40C3ghmcECslNQ6br008/TTI24Kqrr7IuduHFn7+Yis1UCUDHnnDkTh1dUpWbixttxVg9fgsw2ozqRe9v8c8++2zhy/Plgx/4AHDH63u8Bvja1/6a+0G3iYP5h9mGsQh/3Rr6WcfmEFF+cdATZx588dBPDdUl31ej0lVf+9VDS9qToMpwZrdNUKbri+/NVSZwCJcVU4uic6XQcn+IX2e5zivervkvZ74AAhLrwF8bweAZYl+uy5gIC1FrUJlLxUEQn9RScCwrV2BO1TYZWY8ulRePxVpPfNrJDYnya3Mf7bMcegEtEhgyLBmWFuNYrL09PvNnTbv4AM/6fIbgRHGl66kfHzuIGTxo0JgIcc5Y8i9hIg/d5/e3rbU0e+sfvNWXINgw7m//zm/HqHSwBN8/n59m2JqCfg2JWZeFo3yKHWlkvND4DIDvOWFbgtiX4l/xrW+1Wk844YRAMTvnT85x68A59dRTOxzrqF+/H4GeCJoPaRZnfwlQdFlXACBfG04GuczbSl7oSSOeqO+zDmyqNAfZy7uPn1cJ8ekI3ASk5rmWhrtPxh/PdiGQarGoNoSznvpxtbe6/JKEk2k7ocHmw9twm1dj9Z6C9EtWkUd70mLTB2gtSo/L9caXnmLZauFxv4lvVHU1LYAbtgCG7wJnlBjM3eC/8tZQLth1ATvpmoQf/vCf6iPu/AUmZ/zea3XZZZep+dnP4o+D1XjMYx6TPodVc6XH5HBKr4wAtTXi00krsDxqCpNzxmLnkEKwF8W/6aYbfSLhhHzyCU+q1waz2bGP6D+S/6EPfsh4b6L+dmsQbnDQfOia64cQyswvKSbeEvgbTKKvNW34n+9yEWd8dVvTZpRAmyAeIAHZVruLv8hxudVtZF+LX8CwxJwjnCdjD+qf/n4EONItgt7ngjiGjxTpncd2Y0lyNtIP1dJXZdm3UxjdeXtUldN1xpdjGHDurso5WY68T8VvJwavoiwVhRN/3rJb5SY2U//cG0oVYIJwoc3oRRbOSuA1//rVxfdl/oJPfwpiKg5vNmF19NFHK0smTamM24OJRHWIRsqroKvEly9ZjnadO3omHa29IT5/xTBPFL4qOvUFL2z4X3nVlcKQbx395V/8JfioCpeHQw/dOVbIcleM1eqvt5gpzgiInDvNPmhklrR2p65R1f7sXCSXN4q4ZxNB5sxbBA4SRMoICcC506vFp8XQXtCxITbxu3fG19WS5RRersI16UGRgtoE/Ulrc/XXr+Dtxq1jnSDSA7xa1gHh0SE2SV9MGBK++8j88tKSj7GKQCEHFi0ibfvKDqQUZS1GDTN0tJfYs+8EK/3v8QumuNxL4vMEIo4crFRV6ERDnShSa+Hv28Oe1L/i1sC4dptjepPA0KhkmOCuXT+1AnnI5J/+83+mzUHmpd+4rMkuuODTLgU6D3rIg10EHcyNjcafmtt6NZ6kOEzfXFqkPWbhEng08JAN9S+yXo23nvi33MpffOX4p512OmKBRrMvvezrwpUb/eKLPy8+N8f973/UEM52AwNk54nCYVH9wytOmrNYDjZVx8bTZxO4GkDgDqSe308oA+1QX8TsA/BB0TubOoTTUWA9NzYRHx6Yhg+L/JInDUfFcm+Jz7L0UI78hR9LUYnGKb93civqn24ENpHRORBwgK8SaBMUkEzpJEltDJvWSUN/9MK5lEupJw9xxmbj0z75tgLi1EKzu/BnOj5qYT36wkEvzbXghvA2Foz14p+qFC+siTIId1d/uzVQUQ5lOB7YSgaHBpKQUlNuRDP46R24VUCXqv/iZf9SNG0u+cIXTUPGP77h/bA0e9rTngq+i9iK+HLGXJWoV9NjZJl3Z7Gx+nfnrVfa41915VXKmCmf9tKXNoivvfZauGP8HbNP/tf/AhJdgI7+FpPA6j4W1zjlTnOb2uKKQEZgA+0lOCFyIUVk/BdXSZAuQh6YsAfndisQDQ47j0uIfnsbq+GQkq3MoZ5Fndh4/J7o4Kv8tvctIqqAd2d8IQcsfBuos9cAEiT8Y/LIsGDLvBr+m6kfGyHep8FaP5BEp7s2cWy5cgE/DUwtvSJX3yXnEpthxw68+pUhJHK81fFrC8UtwzIz/FeFlXQHMYqSSo/p95o3Wv9m4ldyQhCR9RwWXuI7T4mYIMZi/DcTn740HJsh086cwXRrroHS0aSzIWRaV+LOFzIyOYGB/2eeeaZYXL7n3e+WiIeXv/xfIZR13vLmN4ODDFDhwQfhUzWqemvit4ALiLpYIeM7r/75sOeee65rRcw3v4Xfyud5v2v2qH+CTyIDDuL/gQ98EPAZ7Pv+/M9JXyuzyiUWWsNonk+NwraUF06sXw+L2WVtE0zUmZVHi4PkSPvAJpaOppKxmpaEtL0EWRe/8uqJPHtxO7qwfFc4rTYZXz574i1ET7/HasLKimuabmV81twgUv3wjv8NCQZjUOW89fHhWYP1ayN46QZWTDU3dO5dzCtDdBKtTJ3zsJ20m2mhkgUiC3ehIGTf9fPSVPGQ3dbGd+aM78Be9+OdXb8j9fior+onDtkUrBnfAAJDiepKYSQ6TvTUyhBIRorH4ZoGJfPtnVaQN0Ovc/StASvJaef4lg8JNVEj4qLmef7CtZkXf+5ztRmWZ294w+v1m19Z92233Or4UDvjda/lfQvrpdlLXvoSnw5I7mD8dvFJjkljYbwIMUsepZqnU+mMNlCohsTSfgadkE2hGFhfhDor8dnZ7/gP8MXvDhDg5dkVV/wvKfI2+NrX4TfTkI3faXDGa/sPo/Tb85DafBx5kcspLvN6WodZ8zD51kBnAj1eK31kR12NEONGaSIIxadSKc7ptd1fNtQjCP6mCs3wxjR3sPKIj5wLZUSfc34p0bm8ofjlpM4YmyLm4FsZ7HH9Qx3+ezqFjgO1+snl37Dc8viFGzGib18OQFSgof5+a6idL9MBE5lwnSSrNum1siJk40JbI0dxSyQd0voeBBy2Kw+YDDTEkxrXckTdeOTsRb9ori8+zXwjsFd5bAXabSSaod/EG4kfJ6gvOWpr04eaQG455Kd8Mhiv6D2KH3+Y5SdO4X++flx9/es0pUoFKEe/N2jwOJKsoZRFtoaWUuQWiilIis/ptlvxs3sY/ONi73rXu1r8c845R1j5uYGaHs961jMFHSE89QUvgCGghPjXjvs1pUL+IYf2P0QipuLZx3z81ggqQmWt+vVXclkv9K64wh8gpf4Fn7oQdjRenn3i458oejb7wQ9+AK+MgN8yc8qzhZWugFB981vwCql8HXXU/eF09/ELgj7Bj3xgErkJ/FM/rghMgBlhYCpKjnMaePc4mAVWb8o2hXGs5+Ri81BnQKn5yoQFP4bNSyfIEimM00KJdQmTEMx8GINyAQA57Rg+uSqDONMsDejRn/Pr8cNoIvlNPc0n1Xibx2BExtao+PrjF6SZIwVMiEE48cC/MAsr5o3/LosEGRzFJynfhWfii9eCWp+6HPKwafzrb/wlD7vk0cBmrSJcT0W0juTz2WHtXH0cNIvvoiWt+n02eRFpv2fBA4GlQSFofO1ffCVSccG2xMf1xS8HbVpcf4svp4nv5iYOT8oWGQteAcITzqwFyqQZhfmL32Lbk3EwUxbQE68JKoqmom26qfp1a2gPbHBEly2W82i8URY6c6m2qfM7NfUevsHKZg73xhtvJEzyd/7HP46kfF782cfOE496l3/zmwKZtgccwK1D/WX8cfMjNRfkswfUp6P4cPZLv3i/Ulue7dx5GJoAT/h/8803yxdfUF/742tcM/hXXnmlaeh9/6qrnBH4199wQ0Vbmh155BHwASbGb/zG83Fk85dnp+PbyDmbjzqK3y6mTtANvbh+KLbRNRdZd14zABGbkVpMO75uDW4CTeFUk2kx4FKpg+USSs/CVpYiF48BU26sLBoupzgN4mm1+GySGoWZeflb4fbtZyvS9IKv5g8fgpGyWAmLmc1JTGfIM5Hv6PGSnobpFV75pDzxydohBmPSJq6ZG3PI4IYEjz6ZB4brEyXPYrZc4E2+SlfT6I/xMMByyNKTk/AsL5YWlR7oTpFunufiM+saZaBpMBgcjSmMtYtfRcsZAeOQIBCbZQkEIErLgqzE5AEACXjQDmwDNY2vtpAji6GYB3xymla8iWvNVZKsPCRGnvxH8KlPFYrZXDVETmhLDhVIkzCp3zpHD/yzydao76WUEh8iaMMRu6zBsgQCEKUl1bYS867HH5vZaAmcMTWyvVUr0em0Qn8iJgKsKHMJs8w8yFf4W0f8a6+5RnFYwqWX4tNQ9Iewl116KSZ+HJNPdkuzb3+bb95AAL0f81u7fC7FhtDfPSIfg79WWG+0gn8Y/8YVdPgBu6OPeWDL8hHDzxDwVYoeDtHkox7Ay/44UmDmkmWZuXlm5tzIzkXa66h/oj+Gb35bIEuzzNz0WCuZGN0pUyLDSdU+ISeqoru+lhOZQSe/F2afLZiMdA43VnQ3Ep9XhYqCBvJyrLMRM/PWGpEYR3UwBOPpqsCzjvpKBVT/XCXPdl3acb2kXf0yEuvTXF8+VrZxY2fNL3U8FAZxNYo9jR/djdRfzjGV52LAlwM2hd3Fr+qjT/WxxR1Mek6q0R6jp8YGjJThTxlUs8pDNpdUJk43Ft9+EJE+aKpYOIBBnnLBUi3n5lCzpYRGVz3Sk4n0WX1DoM5K3QUg9dbpCbe3YIia3TomU5Eac8ECw1Y+blX98S3/exhftwYmlrOnZV6pK5iqJAwegYJrc6ecUuuTDHGoq0wT2MHk7N2OL7CErHASRgZqTuLW1NGYWq/hG0KGOKyFPzaBT+Kh2dnd2Qvx1+eVARULCtoSteBTczu7unFtqEEmd/bZSOpnfw22Jq07ssnh2I4PEAqMjeDv25/QM+o6w0lqN9BjvIJsK+tqLTGbWiZkahECM3RyyzA3m6C4cmef2/EBVgOT4ArguclYEUvevShsJlxqEULi3eKvN5RoSX91UaCHyZDMGhP+ioUV12Yrcai0Wgbva9qvIhyjraIyYXPBsR3fOFRf9YaScAlamINVaWKDlHCBLDqaC9zRviy1dcVvuzWWNmqbcEGM7fiF4gJsguKe4v//AUwOxehRTpzEAAAAAElFTkSuQmCC;" vertex="1" parent="o-uRExmvfYBmLYg7Qbvn-55">
          <mxGeometry x="170" y="12.360000000000014" width="9.49" height="10" as="geometry" />
        </mxCell>
        <mxCell id="o-uRExmvfYBmLYg7Qbvn-52" value="" style="shape=image;verticalLabelPosition=bottom;labelBackgroundColor=default;verticalAlign=top;aspect=fixed;imageAspect=0;image=data:image/png,iVBORw0KGgoAAAANSUhEUgAAAIIAAACJCAYAAADgxOA+AAABWmlDQ1BJQ0MgUHJvZmlsZQAAKJF1kU1Lw0AQht9opWIVVBQEPQR6EmKRVvDcFlGhhVAtftzSTb8wrUsSEcG/IPTUswfx4B+oHgR/QD0JCuJd8CCoEA+1xNlUTas4yzAPL+8Os7NA36DGuREAUKnaZmY5IW9ubcvBR4QwjRHICGvM4nFVTZEF37U3nFtIot7MiV5Pr87Re/AlfZZt7tTq6dO//p4Y0vMWo/pBGWHctAFJIVb3bS74kHjCpKGIa4KLHT4RnOvwuedZzySJm8SjrKTpxA/ESq5LL3ZxxdhjXzOI6Yfz1ewa1XHKGahYQYpeH8UinSVK/ONf8PxJ7ILjACbKKKIEm+7GSeEwkCdeRRUMEShez3nKmNjz7/35WuGaWk8J8DXjGLh4BiZ1XwuXgbEWcMm4Zmo/W5WcgFWIRTscagADddd92wCCs0D7znVbDddt09/03wNXzicRW2WFL1ERYgAAAFZlWElmTU0AKgAAAAgAAYdpAAQAAAABAAAAGgAAAAAAA5KGAAcAAAASAAAARKACAAQAAAABAAAAgqADAAQAAAABAAAAiQAAAABBU0NJSQAAAFNjcmVlbnNob3S/0wg+AAAB1mlUWHRYTUw6Y29tLmFkb2JlLnhtcAAAAAAAPHg6eG1wbWV0YSB4bWxuczp4PSJhZG9iZTpuczptZXRhLyIgeDp4bXB0az0iWE1QIENvcmUgNi4wLjAiPgogICA8cmRmOlJERiB4bWxuczpyZGY9Imh0dHA6Ly93d3cudzMub3JnLzE5OTkvMDIvMjItcmRmLXN5bnRheC1ucyMiPgogICAgICA8cmRmOkRlc2NyaXB0aW9uIHJkZjphYm91dD0iIgogICAgICAgICAgICB4bWxuczpleGlmPSJodHRwOi8vbnMuYWRvYmUuY29tL2V4aWYvMS4wLyI+CiAgICAgICAgIDxleGlmOlBpeGVsWURpbWVuc2lvbj4xMzc8L2V4aWY6UGl4ZWxZRGltZW5zaW9uPgogICAgICAgICA8ZXhpZjpQaXhlbFhEaW1lbnNpb24+MTMwPC9leGlmOlBpeGVsWERpbWVuc2lvbj4KICAgICAgICAgPGV4aWY6VXNlckNvbW1lbnQ+U2NyZWVuc2hvdDwvZXhpZjpVc2VyQ29tbWVudD4KICAgICAgPC9yZGY6RGVzY3JpcHRpb24+CiAgIDwvcmRmOlJERj4KPC94OnhtcG1ldGE+CtZJm1QAADLdSURBVHgB7X15kKVXdd/rkQigZYSNFyQhhFgcgwiLBYLCCIlNgFhcCEMSkEgqmLLBAYvNSViMSJWFEvMnBqsgxSKzyBVBKoAUsBB2EBBwGSRsFORgAkhKkQAS1r4xnd9yfvfe7/Xrnu6elsTM9J3p75579vM791ve69fdS8sYswWDzKWRD8YyGOHRaqkW1h0sQmpeni3DKnZ2GYUxwJReoQHGdvw7D/8dgZ/tGsfS/P4YNoH0lrq+mzy0OjLNwyaICTuqEQaavB2/MPF0V+O/I/j3dlVL6nQfLxi9bdyZaeZ8S7mGTMpdx8vyUGxeKbbjV+MbnncP/jtafOXDRo0tRqty/UfHeludfJrIVS4CObN90sPfpPf2kM2l1cTpdvy7C39cgTQmDXebq0PqjRtUPW0bonPTTXNqm/RJhji0TVWiUufGGDfcdnwicBfjz22gs7bu5+qNGtdzcWPGY3VwYE1MarEMn+P1JeoWDzK506GnQuXsrxi22bptCcI+y6QW2/EHjAewDM8gA2OHmALcqC8RUpLaGJRKY27qHfIzJZ2WCQNqEQIzXOSWYW6SyP2w696l8Zd3zXbtQg4qwjXdpfGDikLfvfFxawAS6BzbXRcFdmUyJLPGhL9iYcW12dThcN0gBu9r2q8ilLM6rKIyYXPBgfi+GFrKW9P+Vr+BcP14+Vg7MWhhJjkOv5Qhcitlo16aO9qTVoS6A2nhkGV6N8ZHcrx1MYO2CRbUuM/Wrw4U/rtwWkz6Uu3B6VIdXChdfH1I1zlnLDQvRW4OnonRHedV4t9xx0/1zMmz+bLLLiuL5dkXvnBJs/76175eNDwv7ZpdeeVVisGoN9xwfdO75eZbWvx73OMerhdKBx90MOpzEYcffgTigcb/hx/7cNg6219/0pNmO0gCvcc+7rHN586dO6dny+Li7GcT9ScQs1vhOkzOGSuUKCjFIT5qGaxAtpWe8LvU/JJikv+mXFETlMCBzg6bV2sCbYJBCrKtVonvuNCCXPd22fTNRPkSn3wUfxcm12C/tEEMJKanmvn4uxyfD5n071cyfIYoPn3LMcXwIX17LgQ83Yn1KwDTIzEfWkzwNxF/R7se0Ckc0YdG5lo6ho9uMBS4nNOjuh8dLebarSBVowWB7rhb1hGfZypD8nKt+3olIR7sGXsXffI/m0VdHRmbG4N8cv01ic8bJdhptnaAVuTIEh52aR8rvm6s5E/HnVk/I90Z+KMe7vdxcMniwi66wC1kZRBNW2eV2dz5Y5OKaKtBzby/+7srirc0e9/73uvqkcqFF1yI1zpu2E/+4R+gAya6d+QRR5hGgsc+/BG9BIgf+tCHNv/3O/xwXdJ5Nu887NCyn81uuvEm0dwkP/rRNaDdzm9/5zuIgJzw//LLLxeXOn//998hSxtHVxDBuDR7whMebz+wesUrXqE8KDrppBPBN6pEtBkLazIy5BULzhzUBn0n419vMSdoAmdWykrGu1AkhRr9TEvyZMcGubc9ljtuSasuo0Sb1eKj4xqIBLfyElwSB2uexfKVy7l0S18SWNJONHxhE2g3LME/bFUHbLsFNbkqIxjzWYY+qOuyeI2QMRSpSSGO/KItklK+oGVDhxjyCDPng5Vy18EK1ihNaYtO/k1sbtnQvusWc0P46y3mVjA9tJwaIb8JkyCezY09AVL5ZUpQNFCFqLjEoiQiYm9dmzgRG+gyDHZ5sZrAB8mYCYMG4+FXAHBz5NawvIwyuZY7EqQx8wu0biWkMWxXNJzTtRouFg39xU2+xMD40iahMZ8ZoKcX5JgVv+zop2FLF1xz0EVfdZ2m3NRMTI72EnvG3iz+K24NzFuFt2NyYzhmrQon6fSFrfuaVOeJwmF8x+/73/9+qS/Nznz726o3y7PPfOazZbk8+5V//Kvyw137kpe8hAhLdsqzn2Vb+DziyCMnscrphLcoftczJZ0W2Q0jj3WM9V93/XVEQ/l+8RK8YuEGATYfOvdc8WlxyRcvkZyyhzz4wfYKZ6z/35/5dteB9YknPpnqGuuNH/3pbOvVeJLiMOIf3Vx7a529xaIMAgkWrN2Pmbs/g3uCQ5MOXWYJj+RZUVIcxjO76yEOTiVr4+jtLVPyGJ9edPaDYOJ60AOtnBSCmvPDHsmVFIfF8amx/vrpaxdvMRiOjwQUgF7qC8n6n5LTXiF8S8heV5F+mZKfjcRXXLs1uqIrgfLmibyKT4bir9SbboQCWw6gO5i3IrsLgFY64kW/kpOPdnAT45FsqUW3nLINZLW9VvzKXt7SRDy79/gymvMp7Rx2Ez9qG6hft4aqWbcc0qqnJU3MMZycRDlzyMP/pV2pphLYQHw62DL8Eb7dGpxuJTSZeNdhwkwepbG6ptyIicWgMMfncnn27ne/RzP9nv2Os5vLhz38YeIT2D9429uojLE8e+KvP2lL488VUVHM1WJy2Hz9//u730PevGwszf7jH/1R1Wk0zz//P4Ov69rs+c97viEFtu985ztLD69q+OYUJFuN/6L6kQmbGRBAe6kEJEBa3tneBBKboQStwyMTzoBCX0iWdbucS44Duq5SMfsBjluOseLgToifNDU7jksCnbCN2Hx8VtKbWEF5MilG1Vh1tvc2ksJdXD82giFwdkzOCTc8VExHLtrktFwlDmC9zli5sRWBRvqCPkn+a9c4xhdzuMyOG4z6fVC1jw3Eh5FyknE80hnj22N3vWfx6U7vbyJZ305Yn2OpVLyiScxJ/JbAnsVnNSvwD4/CCs5rUwN9DDkFWVo8eDMnSYGGRe59xTeWXFCWUJnrfg0bN4MAQQ2bIS/JdE2QHQ5tmNYx7E3Gp0vnaOdO3+dvwm11/ayV/zinEtNVPx8gS8LzIg/nyUdAYnFn1d+eEXrAoogOM8JgcMOUs85NrI0tnX4oGRg33HCjEYev33r5b6HZKB2Xxi99CS+r4JGez3rHOxSAoU477fTBzZ7Hr8QVx4mEdEU92AJqC+pfK/5Xv/pX7WHvd1/1u4Yaad16223CnbfJD3/0o8DGOByL5ydilo6IXlhGx3+t+A2PKl1XBNPej/StwTM0JJNpSZSYk3sJwpo89mQpNp9N5ibgMjp0qc2AjaHimoyOMbYgvi/BclaZMA+veZyOra9/7fiFzlg/geJ/gOM8CQPw2ST+a8efVu9bg3gMqDyahhPAcmiKERWa1guwZdskrdEAnzJVJgJ22AIqmK6XdQ/lrWGr44/V0HdtPc1cZXdIhA7cHfFZP08IvxfBjIkgvpiUz5a2ZMrOuaFcJVq/LKU2r7e7+tFrbTcHZXdqMA+u2gxiEEdNs0ux9jXXXIP8UQ4iP/e5z7MeRLfhkqc3hUD/2XkfazoPetCDraPdQh+1xGSPNa8zvq27n3LnOlJMmK06MO7G+LfeemuL/6pXvlJAM9XPXHihNgivHR/96HnGH4ITnnxCq4DEiL8FG6+/3xrGLhP0CqWZ6zCYYRteeBeTiZRli9QoGmyoYxaOvDpoi0aBugMtH/RXLriOmE7a8GISvwVtSiJkPvggeOXdii0Aloxnrmeuw3DIknqxJfH1KRe4zTfCGE9BjSXFuV1UcExbFx8bgc6qOkyiWtHFz5oZjPSQmTTRfTU8OvUWrJ3ydsCiLNTVgf62PL6c+lDpJz5jhZWN+bMSX7dOJKcMCRETrbMp37zCh63Wgb9L1zHFapbDVev3rYE6aV75GVlMLsDNn8jXXXddi0wXT3/G01GAK7k3PvLF6wB9feqTn5QXVnjoofwcAEaCZDZ3IrLa6vEHk3WSQ7CQmQcPI2ut+geTdZKD55CZBw9kvfUtbxFEvHq+95z3+kKKzfCpT3+6+rU8O/5xxw9W6yGHYCEx+2FxbhOwQyNLlz4oi9cE9IKBpvui775yE5eEQtFeZ0vIyjrla7iwWAhpCwPO2vFp0iOS9KrzQnm2Z9E/4/GTN08+fyFh/mfeAVpK0TQUXnVeKM8uWrRJbTDfGqLZIC0NrDliNKiBVw4xLfO+ViOW1FUDNdPHsj/s2fTiDXNIyEzGi5XFY5yy5TTGFzqRQY/WkY9UNixVOw2vg2OTPxvxswF4O+UbkD6tMHMTYDfolqFUh3xBcrXR+vurBqEBF0SCGcgdpgnfa33CRzqz2fOe+/xE1vyjH/1YIPMsv+iizzFr7eCDDz6ExvEmgjpM2qNiriP+aBXr7picMf+mIaJJQOxN8V//utdXIcuz888/XxBwP+izEKp4aXbUUfdvOgsxkl5J5urvp3Jaos7082V0SBC9xt7EFtWDHzYE+frksOSUlR43Acg8IBaXHLnpm6BLnMbu4tMnbTwcbmSUZ7FyHlnXEghA7F3xUQcS1lvxKGUZ38JmBSzR38vIkzmFVdkG6m8bYQoXQoxIw/cEON6k8AirexUEDDs2m1cUXzCYPHWVEZToCCOJNgZFEVplzfhUiU+SMvHRZPmSTm5QkCTEXhmfdRBXF7Es/Hmimc8Ts41gs4H6l/ATbz5tmxe2pIOnbwS548KRcJ/1h2epl3xt+573/Am03VtafelLX1aT+HLoiCP5yWIPpu/92xsmngVRw7z7+INyIxe4yQ6Rzr4U/7nPea5qY1tuvAGfvsbM+j530UW+UmJ9AJ/bOtTVuylKWhVrc78fAQHYVD0rIAGdYHTIrxayGOIlJ2eWNzO1GpKNbWdhS9YmpKzzGQejfJPMSZAri096KOyD8Q1Jx7/Vr1pd8Ebr1/UkjXG76KjQy1bT2uezJHXJYTAm5SaQ4O3ClyomJ3/snlzGJ23ILD6ndhtqyhLLXmY8DPFL2orlWi77tcwRcGwu9534rht4sLycAawTdPDnUsWvs36/ahDOHez4NrjyOPubb/wNCJ9vT3vqUxWE31E894PnKp4lS7NTnv3sto8WfVqW3tyS3jTvs7Xj064P6/Z1fCqVtthX4//ohz8EZNwFy7PjHnNcw/+Nb/x9QAJssENe8+pXYxowHsBahP+6fz8CG00HevhTOARBQPHrjJ5sIG1J70vlJmtnQys/hdinN5x1dd6TlDNFtJGzLy/ll3mIL1hsQm3Zh6AS/5cDiff2+KxNRamuXFEb/hQLosJpHfW3H4IVTDoE5KCp1uCSA9/8AvLZDExGl3nyFVkOmIYGPXDoEubMlL8YkvTbyO7ip8vxKXMcfJeZ51oa7r4WPyizvhH/vtmtsZH6fWsgbrSlJWYDR2YNNP/kZ/KHSRzgvve9L2goYwt+9CP4FM3ciCuyG10bKMnNmXTFVeKr44tkKxx1V/tD/D/FD9SwXzz8uzf921b81/76a0KGm+OXf+mXwfcJvBr+vjXQJBqYRcLQXinDmcvrjgQ593E1oMo4ai1+mcetfDTdUmRy4UURs8i5+FKLDItmF3vOxdzv4qtuHPKeEmfysDkC6+7wb7cG4khj+SSta65vCxKVgI5J6qLelKmBkai1abRTwZ5X8xamvrzQ0gOKTXc+vjRKikmhmnLZ74fxA4FaXvUv+v0QhVDhHMWO/xJ+mZRv+fRI+TB/4ZL/jiV+QAu833zxi5qvL335y+CCiWYdc/Qx1ZUmbi5W5yQIwtnNJO6YR9ec91aSBQorWfOcvt7b4/O9HL3LiLPu8U84Hni6yc/AxwF4vWWrzzrrDwFeNV8wrqx/h048CqOX631miPgypKto78lAT6uxU/upxeDzo3OaJxHQjajN1vB9J77AKzZnq9bVKnaDQmO1NDrHbrAWsQ/ERyHuiNtu/KvKXJKHjqxWPz9Mj2GxcQtonKc0tfrNIjJaWUKq24Cr+zx5/VlAVlB3jlgptA5UxIhfzp1eUNOQy/4bX7gIZ28Hn1juUke9U0J0Af561TDC2Hu6PHvhqS+sZizPDjr4YPcFyufiSXUcsXc+jtLOdCo2BdDp7eAgYrHaohGD5mIymvt7/I997DzgCzTw/81vehNONoANUL5x2TfA8tX1kHw6bICS+Okt5rE3PvMMrRzBMV3oSLbQHryAjD1fWXBfTjYBLKPg3cs86aiP2JMziV8qChub7fgduKKCn68DxD8c4xy89Z1rsLKOI2prI4RBFbvA0eh7Jh8d4sbwk6Ut0hOF0yEJdI/eBRLaN1R8ERt1Qk/j25t5+nAn1Lbjd4xX4F+itI49HLGWGIeRF+T7G0rkwPAH/+//+owGfdxjH+vmQXTeebjs1HjiE58IiuGyBy0Qx+zS7NO89kJdMHlFqHoqQvcxpeY9VkZmT1WxmtfWel4X6705/k039V8I9shHPqoBctZZ76gL+fLsxS9+sbCZr79dEShgB9gE/uaSjhFpcomSdTQXL02DRBwf5I2sNqxXfsDVFhqMZYH1wCo6F7KKT49RBrFCX4z9NH7wU/nAbQ4c3zKMzTz+2AgRFMJYEl6f6+SFdhRdjirAtA1pmG3KLRcYcmpqkl3JMNll10tejk+9il8kp+341QiCATTcSVBk46CpjhHmfQaZ6GCrA9MCOiL95xf9OSa72LnzMHDws4lYHn/840XLb3nR2wtU1eh3HnlqfHqGDGvzHcebjYZRND/LWkHOArvvaMuyK8lPZGJnIQ/7R/yD7n0QYRHOJ/L3OhY+53/8E3oY5PJFL/pNHNnVYGqgdGvwQweFttTVACRVwvEHIOxATMikwMXkqSWtpSVlWWd24KFPZZ74dAxdmk+GGTpGJidYbMc3UoWLscWCIHLiQz40RuTn8ddG0AVAihT3M7BdxQE0sfZGoWdT8k733UHZYyKfDujSiiSKZFp9dHMpd4GozmvFbMc3ooKRGBdGmqo3AJ63AfXQP39QNEFdiT9uDRl0wFvDRfreAh087nGPwyWFDnfNDjxwUJUm7BhY3XGL7D6XHMrNp2Io741KPKE1Oz5JSVFcbPgZCBY7WlkHylKyJo+0bnr7cfxnPutZ6J1/5cDbz3ybYOLhtjtuL3yWZve4R++pbw0BEIoEUbuIkPJKQOtqitSEdoPaBrQq2yaZ01NPoGS5hG4i48kxGlg+tMRBG4CL7fiFEbCYw9WArsSfWOY5QOeRLw118aATKRBdufStQSsI2CXqZEoDBn510kp19GaJVTlwx5ue8wizZu8Ou1S2Td1pJH5cc46Lrgrdyl1W2/EFU8MJ20E4clug3YJqJf792gBljsu/9T+hbGD1e4/I5DKOiXNoAc9LcRj9ck6zcUgjavCx4oOVLQCshngyGdYVslw7me34Abbj/6hHP7pO7CX8LqsbWiuuvvpq4Uv8j3ngMY3vLSJ03QCeXXSrkxUbQjQPGSOdewhkbAk30CiO2xJKS3qg2DzTPBYXk6g44YbkyHqe3o4veHgQUgvwF3QWqqmF6Ar8sRGgGkBBagPg7FRLNTOIzeOvRR8aJHI8q6kUuYViqP3F950BizF+OVes8rcdf+P4G3IcATLh1VUTPxZH/L1Ghw2y8NczQvqQ3vFzBOyBw1c/sbDz6lSkUoomZCC96rxQnuXFOibbPohneiiRWC5iO/7G8Cd0aDqbi34Sex99I93FBhfIVMEzwvLs5ptu9gMFtK/BX0XhR9No9DD9enzSGPTniSvQdujdVR4pAMlV5CPlm4F1O81gZSQ72luH7jgUF6zt+MbWmKyNP/9swQ78/CNf+t/zXvcUeOz99777XTghmHhGOPqBRhf469aQp0pq+yWjPw7LBwp9TI3XEPx3e9iO0H1WlyThYTyjbWWR2y8aweOJeSkAjr5cWSK9+NqOvzH82Wsh7A2jIzBUZ2o2ypBA17cGIU5VM7U/SPNM5deCFLCh2hDpDponG5ASOJ0o05sEIExPJWZmk1DWtZI4udvxiYLHYvyBYfDXSVd9qJObze/I6tYwm133k5/UfXppdvvtt8s7nRx++P3AhzoXc4Y+de1qPMpYm4IGzITbq4aX8EcZeWGQ6jcTSvJuIukf4mf9qE7t97///WRJfxf/cgaZOrQokvk1M+S+3LRwu3gN5AVvjI/6vHcrV4IFHT1aQb/KrziMx42KfIUNPrdxHH7+sMbJJ58McdW1RfXLNfLtFYKTGCSjoNmye93rXiCcx86dh1a5y7Orr/4/+vkHw1J5QtMfXgVX/8Bn0XzA0O0CEZYBdhKgWUZBlqVCtgUtpBzLLMtDsXOZol33R4jJsJIeXLFMoyiigvItmqvybJkaBO/1UxuMwz/0ofcuqCgQqVp5DvWTy99Govq5CfDZjPwUkL+FWzbKwLkkjSqLAZSHZgoxXFNlWYotPuRr1S8H8VGLrm9Gq1/LaXzKXD8ILlAQpzG+fj9CnAiopOQd0TZEmcF8GDEEq7CFczPdONCl49p9zKebtTKrnFJ5LBGpoknyJT9MHf9kw4bN5QJFPdMwLHQUBzR3O+3QUhmwNA7HT8ZkUED/lZQuBRWfPsCmH/+fxrcFY9j5VtbPXPcEf+aW+pkh//vzpRLQOV81zGbX43cl8gccBBexUlU7ZgcfgkuKsNGhSiwx1FisHBsZchQQhF2ET3NHJzEAzQUkANzgM7CULZBwNruSfwCsmvz7/wY/+h01xof6aCG65J6iDJcczWaiVC4HHnURU60Vu2TlQ0HBYvzTX/YycqX7jJOfUbQ55RgLKNYG6xtNRrutPxt0rJPe14v/gQewzY6vbzqBZKdSA/HXKeKzjmG4n8HiJ1EEgjljAoTDHoQp6M6R84gVrCypkrOsrHXm2BQeSFjXCWI9BBUPLOthlszGlIUfEyFEj1IB16rgkBnXla2Vui6V6UjOcn5PXSyKT/V2Ey37Zs34e1B/ossNXKUCl+WjQ5pO/i2+Tu4u44WU35cMLsQvtz+SCrHEJynZwE1dQ1W4gJmmoJTEN6gGCFzay0cP3pKSyO2jN5kPurrCyN6lUYd+KxX4LZ+0lDF9iGA6NebWXMIslj0/qke3pK2IclUqLcbC+N4CzZSu5K58IkSzl2hj9SuTStNT+YXAuKyNP1vq2748AULoq47KCu70OLXjgAMkOGDHAcKFG0ABVcBs9lMuqsqeQpxynueWzJPOtpy1clxnIe18a1HYOsQX5/pCljuwT3dgZuUGo5yXek3FTOAhs6pFeoxf62ZQO601U7lBWo2nnbFbGX8Jb9zw1tou+eU0OTHcntSvevcUfyRBP3LDl0522vAHp6VIsnaYG8SSaVguVoJXBbepKleMYio46TSQOqVnFS+UIEkYjPbU8ecSkAWvaW2Uk1L2OVHCwb/FxcDk9TTCoD7EdsPzmQha1F6ZBoFAMhZVjkbvpMXegvoZaPRdifRplfjOAJaQ6xysTWVDG/VbA5UqaYpyWxDPunIUcmFCxVQc0viKPk+nRqecgMOMIsQsUqjHYdmWjqeS0VZjWDeyDCC3z1Lt7LIsxnSaeB1NTLcg8M1Ng3Wx7oz6lQwCJ48evWritEZ8IRijbIQB/wNZxCGH+Nfj0hFfb9rj0uz6G66vDcHfmcgkKEMqmHyZ9BJHj2SpQE07VtGCfVWkzVE+KQUZkQOI1X+bO8yectJTnBNo/TEQZlXuhgBwBSYK5SVbNSkMeBhMj2+UOcMhqEgpWk8uaq2Jj9Kwkh5UQNDLscc+QvrtsMX1M2tn0XPZCP633nYrsuRYmt37oIOqfi6DAR8Wda0AkzF4o8Ca/7RmxVxhiiMwBLwUkiGZw8hl2ja0pZ9hCCivJ/Fh0ESDiTJS5fSEf3KMKCpkmoSapBrgHyJVwPyraPeIGVICX3RGPRqSLFvpjfVDRoX2xhRsE5+exrHV9dO3wtcx9Ws5Hxy6q8eHRHVGg3Xbs38/Aml+8R4MBOh70jyikoCYk5RYXsCiKzQWuB6dYy2sRSChiNpcftwJ16r4VQTEtOHm0KbA0RvXedNxd2Vq4MhGtgnTlJEpeVU/5zYU33W3E2WMLx8r4zf7llFQgoHcI7MxPg0SV3Myh3LSwWyT6lDsB4XGagmEk65i1ibv8Q+k/X0O2wkBLgdY/KN73lO7hCZXXYX3pSvArz7s4U4gPpmzZGQwywgyg4tgfpImSGqXtaDuExG6Ml1k3/085MEPaRE+/xefR6yM2GUO3/Oi+JJA3fGxkuli+9HbYo1wM48WcL1F9QtpwCFEOixYJ25mxrfCDTfi42nF5huGwfuoox7AxLCmHr6k41vebJcuD+CQiauCvwHBBb/seogvng/mtn0rFwhis9oE0IR/aRafi+YPROzlMzoVO8GafhiazY0943LLbccHvsSRzRaeeLJhjwUMGCDdY+oYf14GelOwkr6soUEJ/vPtEgKsEZS90pGaHNu/H8HXvXa5FyoGnmQ/3wpLyQf8o1P4R4vz5vC3B33/BU3yd5LtK76ZAvun7zXcE7cDj+XZL/7CL2jjsPWXX/7N2gJLs5Of/nRZ+Gm7tOEtm67twPLUJ4Zh2LoqYFlUV2mUgXQg+6at9Iki/m/H7+jxnFwN/+9+7/tClejfcTv+uizBw3jgMQ/0hSHPIuLqdUJRnAC2WmYb7WC1gdGKVxOVexK0hYC2PpAYh/2OwoW6FV+W8TcXeDt+cF0b//bdRfYJ/4w3jrmi88QS0/50ayApHmQ04UsMmVMZFL4lb40YRllalHmoSTpEMZLsI/sjV6lJ1zpxObCgw5GLIjTiNsrb8QsjYyi8dDBQPKbfuo7ghOZa5zWvCAZYxrg1UD2Xm+XZox6JH4zggKL/XpCdnvF7r5GhtMuB95rV3bD4gYLdlhALZYAJMxPpw4pmdb3uYPAZt2W/HT/YEM06eQXs0uyrX/mr1uifu8993A4Af/j9jmgnmHtg/HFFSFfMYL/I4opfHOKZbNpcTm8zPSnZxS3taVU+ecniEE9UFMm3nuUS4pArgtfR5mo7vjEJMsFmij/eBMMG4Mnnl7OQAji/fBSKMtetwbcNXqzRHveJ+KvpXjKEKR1NWoH8dt9JSpypRFmpYeVExyP1Yu745kCX5pNhho6RyRUW2/GNVOFihLkwNlwTIs04Sk2HMgOtVw25VPOcPvmZ/PAlKDwYvO6Nbyjj2eyWW26BA5/198Ln5EXTGY0dueZcosCUnMEaUeSwLhfUsndS44jzwQt3NLW346+K/4UX/Dehzt4cj1+Kxj4RLn02kZCm6UW2h0XCTEUOPSyWhM3xt2LdkLRFMw8ysiWP2Sz000/r2oWUN0NpDAfHTw5JnAqJn9ji5bAdH0isxJ84B3X23KfO6vj71kBQc4bFLXz71QMJuOREmWIOLRGpSJI3yZyeL/XcJhwSzk0+w5s9tLwBSKSkmA5aInGo/Jpkf4+v34xnXAjFUn0LwfisxN+3Bii600uzk048sQF/+x13qGXcURdf/Dn0g46XZ6c85zm0aEO7jbI0mO3mchjaod6m4JbQ13avtNO6kZKvDSCuGN10cI2o2GDb8WfXXHuNsOQrs6985X+0brzvP73P7a3+L8K/3xoEJIEGCwZtScTx/QcCTcBzTrsR9szbhwd1QherSUBEBDN66gySEYJmfEwcmrkOg2ZteLEd3+Dw+wl6eQ58hMyAmchhPY+/u24zWUuBBvSk+wAWteYJnJd/6gXP8BoKDP3OgUDMzHLYWGyexebLDUjx4kTxIcmaSiO9HV+w8WAUeWUEHYzA1EkiULlw+6k/jz9uDbSUROR9DjuMemI9gz++RRoO/vjdfyw5rw6nnFK3hgSEjsh22sqsmE0optpfer4zTOPHpVIqPaafxG0z57+FiPWc3Mnt8/E/8pEP+xaASg/Fp878fZnl2UlPOUn9aSguwN8Pi3P4cRuQxWaoIdhiagC3WtOlpBSk5SVJS0oelTbbgaTlq+3gcpH4WWZXS307fsFS+GoyXRzgH5BwCgFc8v3Fo2XSLTXi71uDuPZv0hpsPr94heZDZ7+wkC6HmkzLA0iuIh+p3Ayo12k6l6UOJgd/4IoH1qDW/HsTDfogudov4w9nFLHyp6k6EuNtfR5/vELLjVimRruuv3/7zb9Vc3h42lOeVvTy7IILLmQUrY87Dm9WcJT5goVZdWxqIJh3b2FJNDWt7rixGjHxu7/Gv+XmW9wLgPmoR+M3sgNRNvl3XvVK4wO4zjjjjIZVQw/EiL9uDdaqlmjyfvGnWsCgNQ409HvUvOTgMy5kSIJDbQwzzG92YvrQLECUVklrpanv11FLaZRVti+Nxd9f46Nu9aF+MIHIGRsAacAyCWejDAEI04a/bQSYm1PHvJnTnv9AMIhaRKb+ILiV7XBwm6Zo1h3eiglRG6hlCulq8SudFYmPG2//js/qAezcSekWGPDWmTXwHz66FvVqiZrN3cXmW5YHD+8Z8GLiVFrPJFDQruBlZVJs3b0aK7pDfPodTv1SVZzklKCjbL+Kj8L9Hk/aARzRO6LoN9mMkPBpJ2h40C3ghmcECslNQ6br008/TTI24Kqrr7IuduHFn7+Yis1UCUDHnnDkTh1dUpWbixttxVg9fgsw2ozqRe9v8c8++2zhy/Plgx/4AHDH63u8Bvja1/6a+0G3iYP5h9mGsQh/3Rr6WcfmEFF+cdATZx588dBPDdUl31ej0lVf+9VDS9qToMpwZrdNUKbri+/NVSZwCJcVU4uic6XQcn+IX2e5zivervkvZ74AAhLrwF8bweAZYl+uy5gIC1FrUJlLxUEQn9RScCwrV2BO1TYZWY8ulRePxVpPfNrJDYnya3Mf7bMcegEtEhgyLBmWFuNYrL09PvNnTbv4AM/6fIbgRHGl66kfHzuIGTxo0JgIcc5Y8i9hIg/d5/e3rbU0e+sfvNWXINgw7m//zm/HqHSwBN8/n59m2JqCfg2JWZeFo3yKHWlkvND4DIDvOWFbgtiX4l/xrW+1Wk844YRAMTvnT85x68A59dRTOxzrqF+/H4GeCJoPaRZnfwlQdFlXACBfG04GuczbSl7oSSOeqO+zDmyqNAfZy7uPn1cJ8ekI3ASk5rmWhrtPxh/PdiGQarGoNoSznvpxtbe6/JKEk2k7ocHmw9twm1dj9Z6C9EtWkUd70mLTB2gtSo/L9caXnmLZauFxv4lvVHU1LYAbtgCG7wJnlBjM3eC/8tZQLth1ATvpmoQf/vCf6iPu/AUmZ/zea3XZZZep+dnP4o+D1XjMYx6TPodVc6XH5HBKr4wAtTXi00krsDxqCpNzxmLnkEKwF8W/6aYbfSLhhHzyCU+q1waz2bGP6D+S/6EPfsh4b6L+dmsQbnDQfOia64cQyswvKSbeEvgbTKKvNW34n+9yEWd8dVvTZpRAmyAeIAHZVruLv8hxudVtZF+LX8CwxJwjnCdjD+qf/n4EONItgt7ngjiGjxTpncd2Y0lyNtIP1dJXZdm3UxjdeXtUldN1xpdjGHDurso5WY68T8VvJwavoiwVhRN/3rJb5SY2U//cG0oVYIJwoc3oRRbOSuA1//rVxfdl/oJPfwpiKg5vNmF19NFHK0smTamM24OJRHWIRsqroKvEly9ZjnadO3omHa29IT5/xTBPFL4qOvUFL2z4X3nVlcKQbx395V/8JfioCpeHQw/dOVbIcleM1eqvt5gpzgiInDvNPmhklrR2p65R1f7sXCSXN4q4ZxNB5sxbBA4SRMoICcC506vFp8XQXtCxITbxu3fG19WS5RRersI16UGRgtoE/Ulrc/XXr+Dtxq1jnSDSA7xa1gHh0SE2SV9MGBK++8j88tKSj7GKQCEHFi0ibfvKDqQUZS1GDTN0tJfYs+8EK/3v8QumuNxL4vMEIo4crFRV6ERDnShSa+Hv28Oe1L/i1sC4dptjepPA0KhkmOCuXT+1AnnI5J/+83+mzUHmpd+4rMkuuODTLgU6D3rIg10EHcyNjcafmtt6NZ6kOEzfXFqkPWbhEng08JAN9S+yXo23nvi33MpffOX4p512OmKBRrMvvezrwpUb/eKLPy8+N8f973/UEM52AwNk54nCYVH9wytOmrNYDjZVx8bTZxO4GkDgDqSe308oA+1QX8TsA/BB0TubOoTTUWA9NzYRHx6Yhg+L/JInDUfFcm+Jz7L0UI78hR9LUYnGKb93civqn24ENpHRORBwgK8SaBMUkEzpJEltDJvWSUN/9MK5lEupJw9xxmbj0z75tgLi1EKzu/BnOj5qYT36wkEvzbXghvA2Foz14p+qFC+siTIId1d/uzVQUQ5lOB7YSgaHBpKQUlNuRDP46R24VUCXqv/iZf9SNG0u+cIXTUPGP77h/bA0e9rTngq+i9iK+HLGXJWoV9NjZJl3Z7Gx+nfnrVfa41915VXKmCmf9tKXNoivvfZauGP8HbNP/tf/AhJdgI7+FpPA6j4W1zjlTnOb2uKKQEZgA+0lOCFyIUVk/BdXSZAuQh6YsAfndisQDQ47j0uIfnsbq+GQkq3MoZ5Fndh4/J7o4Kv8tvctIqqAd2d8IQcsfBuos9cAEiT8Y/LIsGDLvBr+m6kfGyHep8FaP5BEp7s2cWy5cgE/DUwtvSJX3yXnEpthxw68+pUhJHK81fFrC8UtwzIz/FeFlXQHMYqSSo/p95o3Wv9m4ldyQhCR9RwWXuI7T4mYIMZi/DcTn740HJsh086cwXRrroHS0aSzIWRaV+LOFzIyOYGB/2eeeaZYXL7n3e+WiIeXv/xfIZR13vLmN4ODDFDhwQfhUzWqemvit4ALiLpYIeM7r/75sOeee65rRcw3v4Xfyud5v2v2qH+CTyIDDuL/gQ98EPAZ7Pv+/M9JXyuzyiUWWsNonk+NwraUF06sXw+L2WVtE0zUmZVHi4PkSPvAJpaOppKxmpaEtL0EWRe/8uqJPHtxO7qwfFc4rTYZXz574i1ET7/HasLKimuabmV81twgUv3wjv8NCQZjUOW89fHhWYP1ayN46QZWTDU3dO5dzCtDdBKtTJ3zsJ20m2mhkgUiC3ehIGTf9fPSVPGQ3dbGd+aM78Be9+OdXb8j9fior+onDtkUrBnfAAJDiepKYSQ6TvTUyhBIRorH4ZoGJfPtnVaQN0Ovc/StASvJaef4lg8JNVEj4qLmef7CtZkXf+5ztRmWZ294w+v1m19Z92233Or4UDvjda/lfQvrpdlLXvoSnw5I7mD8dvFJjkljYbwIMUsepZqnU+mMNlCohsTSfgadkE2hGFhfhDor8dnZ7/gP8MXvDhDg5dkVV/wvKfI2+NrX4TfTkI3faXDGa/sPo/Tb85DafBx5kcspLvN6WodZ8zD51kBnAj1eK31kR12NEONGaSIIxadSKc7ptd1fNtQjCP6mCs3wxjR3sPKIj5wLZUSfc34p0bm8ofjlpM4YmyLm4FsZ7HH9Qx3+ezqFjgO1+snl37Dc8viFGzGib18OQFSgof5+a6idL9MBE5lwnSSrNum1siJk40JbI0dxSyQd0voeBBy2Kw+YDDTEkxrXckTdeOTsRb9ori8+zXwjsFd5bAXabSSaod/EG4kfJ6gvOWpr04eaQG455Kd8Mhiv6D2KH3+Y5SdO4X++flx9/es0pUoFKEe/N2jwOJKsoZRFtoaWUuQWiilIis/ptlvxs3sY/ONi73rXu1r8c845R1j5uYGaHs961jMFHSE89QUvgCGghPjXjvs1pUL+IYf2P0QipuLZx3z81ggqQmWt+vVXclkv9K64wh8gpf4Fn7oQdjRenn3i458oejb7wQ9+AK+MgN8yc8qzhZWugFB981vwCql8HXXU/eF09/ELgj7Bj3xgErkJ/FM/rghMgBlhYCpKjnMaePc4mAVWb8o2hXGs5+Ri81BnQKn5yoQFP4bNSyfIEimM00KJdQmTEMx8GINyAQA57Rg+uSqDONMsDejRn/Pr8cNoIvlNPc0n1Xibx2BExtao+PrjF6SZIwVMiEE48cC/MAsr5o3/LosEGRzFJynfhWfii9eCWp+6HPKwafzrb/wlD7vk0cBmrSJcT0W0juTz2WHtXH0cNIvvoiWt+n02eRFpv2fBA4GlQSFofO1ffCVSccG2xMf1xS8HbVpcf4svp4nv5iYOT8oWGQteAcITzqwFyqQZhfmL32Lbk3EwUxbQE68JKoqmom26qfp1a2gPbHBEly2W82i8URY6c6m2qfM7NfUevsHKZg73xhtvJEzyd/7HP46kfF782cfOE496l3/zmwKZtgccwK1D/WX8cfMjNRfkswfUp6P4cPZLv3i/Ulue7dx5GJoAT/h/8803yxdfUF/742tcM/hXXnmlaeh9/6qrnBH4199wQ0Vbmh155BHwASbGb/zG83Fk85dnp+PbyDmbjzqK3y6mTtANvbh+KLbRNRdZd14zABGbkVpMO75uDW4CTeFUk2kx4FKpg+USSs/CVpYiF48BU26sLBoupzgN4mm1+GySGoWZeflb4fbtZyvS9IKv5g8fgpGyWAmLmc1JTGfIM5Hv6PGSnobpFV75pDzxydohBmPSJq6ZG3PI4IYEjz6ZB4brEyXPYrZc4E2+SlfT6I/xMMByyNKTk/AsL5YWlR7oTpFunufiM+saZaBpMBgcjSmMtYtfRcsZAeOQIBCbZQkEIErLgqzE5AEACXjQDmwDNY2vtpAji6GYB3xymla8iWvNVZKsPCRGnvxH8KlPFYrZXDVETmhLDhVIkzCp3zpHD/yzydao76WUEh8iaMMRu6zBsgQCEKUl1bYS867HH5vZaAmcMTWyvVUr0em0Qn8iJgKsKHMJs8w8yFf4W0f8a6+5RnFYwqWX4tNQ9Iewl116KSZ+HJNPdkuzb3+bb95AAL0f81u7fC7FhtDfPSIfg79WWG+0gn8Y/8YVdPgBu6OPeWDL8hHDzxDwVYoeDtHkox7Ay/44UmDmkmWZuXlm5tzIzkXa66h/oj+Gb35bIEuzzNz0WCuZGN0pUyLDSdU+ISeqoru+lhOZQSe/F2afLZiMdA43VnQ3Ep9XhYqCBvJyrLMRM/PWGpEYR3UwBOPpqsCzjvpKBVT/XCXPdl3acb2kXf0yEuvTXF8+VrZxY2fNL3U8FAZxNYo9jR/djdRfzjGV52LAlwM2hd3Fr+qjT/WxxR1Mek6q0R6jp8YGjJThTxlUs8pDNpdUJk43Ft9+EJE+aKpYOIBBnnLBUi3n5lCzpYRGVz3Sk4n0WX1DoM5K3QUg9dbpCbe3YIia3TomU5Eac8ECw1Y+blX98S3/exhftwYmlrOnZV6pK5iqJAwegYJrc6ecUuuTDHGoq0wT2MHk7N2OL7CErHASRgZqTuLW1NGYWq/hG0KGOKyFPzaBT+Kh2dnd2Qvx1+eVARULCtoSteBTczu7unFtqEEmd/bZSOpnfw22Jq07ssnh2I4PEAqMjeDv25/QM+o6w0lqN9BjvIJsK+tqLTGbWiZkahECM3RyyzA3m6C4cmef2/EBVgOT4ArguclYEUvevShsJlxqEULi3eKvN5RoSX91UaCHyZDMGhP+ioUV12Yrcai0Wgbva9qvIhyjraIyYXPBsR3fOFRf9YaScAlamINVaWKDlHCBLDqaC9zRviy1dcVvuzWWNmqbcEGM7fiF4gJsguKe4v//AUwOxehRTpzEAAAAAElFTkSuQmCC;" vertex="1" parent="o-uRExmvfYBmLYg7Qbvn-55">
          <mxGeometry x="72.50999999999999" y="2" width="9.49" height="10" as="geometry" />
        </mxCell>
        <mxCell id="o-uRExmvfYBmLYg7Qbvn-28" value="下丘脑" style="rounded=0;whiteSpace=wrap;html=1;strokeColor=#1A1A1A;fontSize=7;fillColor=#F5F5F5;fontColor=#333333;strokeWidth=0.2;" vertex="1" parent="o-uRExmvfYBmLYg7Qbvn-55">
          <mxGeometry x="12.810000000000002" y="80" width="25.63" height="10" as="geometry" />
        </mxCell>
        <mxCell id="o-uRExmvfYBmLYg7Qbvn-30" value="" style="shape=image;verticalLabelPosition=bottom;labelBackgroundColor=default;verticalAlign=top;aspect=fixed;imageAspect=0;image=data:image/png,iVBORw0KGgoAAAANSUhEUgAAAPIAAADLCAYAAABUHc7BAAAAAXNSR0IArs4c6QAAAERlWElmTU0AKgAAAAgAAYdpAAQAAAABAAAAGgAAAAAAA6ABAAMAAAABAAEAAKACAAQAAAABAAAA8qADAAQAAAABAAAAywAAAADXJTObAABAAElEQVR4Ae3dC7B3WVUY+KtigwiK+EAQ5TaggC/kIbS8uhtsCK1Gg9FMqlJaJloxU1NlKo5JZWoqzhitWKUTo1Ux0dQkiDPWzMgkAuIoDd0tNk3zakFezbM/3i8BUR6CgrN+p791e9/9ncc+53/+9/7v9/1X1b7n/M/Ze+21116vvc4+5x4c7GHPgR4O/M3f/M09onxBz639pR3kwOftIE17kk6AA6Gk94xuDs+Xy4vzvPZlce3TUW47X95YnN/2eZ/3ee7tYUc4sFfkHZmItckIRf3iwHkYpU9JXf/yKEvhs9Hw9iiUPBX89X6Hgn8sjns4YQ7sFfmEGb5Wd6GoXxS4hpT0MO595Vp9zcTz/qj/hiiUnHK/yXko+HviuIctcWCvyFti7KZoQ1HvFjgOR8p9Nu3jhNvz1Kncb45znpzC3x5KzsPvYQMO7BV5A+Zt0jQU9a7R/gFRDgfKfaPOwWc+85mDv/qrvzr45Cc/efDxj3/84M/+7M8OPvGJTxx8+tOfPvjc5z538Pmf//kHl1122cE973nPgy/90i89uNe97nVwt7vd7eCud73rwRd8wZnIVVlr89pKKjeFf1Mo+F/GcQ8NHNgrcgOTllQJJbws2n1dlMOecnlcu2+UC/hPOT/84Q93CvvRj3704P3vf3+nwK6XJdoeAwqd5Qu/8AsP7ne/+x3c97737coXf7Hl8jrAgPzlX/5lRxPjwtgwGGhzrpRwl7vc5UD/jMwXfZHVQDN8Lmqei1IqNwV/Yyj4R+O4h4IDFwhScW9/OsKBENi7xO37RzksCgX1+4FR7hfl86NMwl//9V8f/Pmf//nBO9/5zk5x0+tqSDlDcI9wlOdHF8+flEr02c/eEa1+2Zd92cEDHvCAg4c+9KGdQtVtpn5T2j/90z89eMc73tEpr+hAlOC6c/1Q4iFA793vfveub1HCV37lV3b03OMe9+iihqF2E9dzHc6LS7q9L8q7o7j+rujzE3G8pOBOCbmkhj092FAKcenXRDk8Xy4vzl2jxJR5MfzFX/zFwXve855OST74wQ8eUGhKwcONKeycDlOhv+RLvuTgEY94xMGDHvSgpuZoeetb33rwxje+sTMy8DAU6MoCUQud2qXHZph4aQaGcTk8POx+NxHVXukvoirFpuCSbO89X5wfKX3Q/pn4fVHAJavIIVy8Ja95GKVWUte+NsoXRlkVeDMhMyURNvO+lKH2vKt2Gsgooj6+5Vu+5eDbvu3bRtfPwuebb7754O1vf/sRXS0K20pzKjac97///Q+uuOKKbo3f2n7Feh8IXLz4mNJ/IOg8vl5YkYC1UF20ihzCYmzWoX1KehjXrV+tY08EKLDwlHJQ4PSUJ5mQokD6pcyPfvSjOyWtB+/+S1/60oPbbrut85RrKnDdF3p4/q/+6q8+ePKTn9yF4HWdHfj9V0EDhX9XlEGlDz6d6vPzM63IIQg85jdHeWiUw6rICN81yqmCtSQFfvOb39wlsSjKmqHz3MFRHuXxj3/8wTd8wzdc0JyR+YM/+IOjMPqCClu4YK398Ic//ODbv/3bt4D9xFB+Mno6WqfHea/Sh8JvJRO/0RrvxFg03JHdSX8Q5bQ2PwxSZk34tre97eD1r3/9wUc+8pGuXq4Py0aUapter+zLub7Q9prXvKbLaHtsVQKaeUnr2JMCfHn3u9/dreFPst+Vx3f3wMcyXmgdi45ivj8cP4/W6XHe5+mF87OerZ/cbBWDWfH01wPXzikxxX31q1/dZaEzeTU0ZkKszkkqs4hAlvz2228/+NZv/dYj0tDh0ddJ0pKdi1SUM6zIOZSpI+ejiCSH4LOh8ML5Y8m5+H1M6WOeGIUOzqwix0B/NEbwPefHsRMH3vVNb3rTwR//8R93GzgozNAaWF0bNx784Ad3Xtvvk1agzJSn8uTjpNNgpmffScdQ/6fBoyFatnz9CwK/RKwyCMEPYfp7o/z9M6nIMQDPaX9pcIQr3CDUPJRnny3AmwhXFTAllOoQTI+DhLJC8JY22q0BDAxF/tSnPnWUMTYGNJ0GfNVXfVWv0bObTYTjWbZsuqXAV3zFV3TlJPl1Gjxp6PNuUUcy961nTpFD0FirZ0W5R5TVwaMhmWVHgm131Dd+4zdOKtlrX/vaLpwWKrd6VgpMkTwO+tCHPtQp1kkKp0y6Z9m5TkY3+udCKn/ruGv8+vy6r/MQ4TgI/RlGipy49aX+137t13aZdzvGLnF4c/DmI2dOkWPS/scoj1978nhgj1ze8IY3dMKdgvOud72rUzYZ1SEhV8ea2P1sN0WfevrkFW2nfNzjHnfwwhe+sNtHPRSOT+Gcc1//DJUstf6B8HZojEO4KZYlgiOP2Tr+xMeYMZY8cgmWKC972cu6aKXmh74oOW99zTXX7Opjq3I42zx/KeTzze82SZrAHRP48KjyMxPVZt+2Z/gP//APD17+8pd3a9tcr/GOit1NdmD1AWWkxEsSVgSS53f88i//8k6ZhfJwnQTolyFxXAoU/7GPfezBfe5zn9l065eSPuQhD+mMCBpECXIM5oKhqZVYHcbCHAm3zc0lDrcY/5lR5Jh0i9XfjHIZwteCj33sYwc33HBD96yX0tYeKT2X58AEq4b3vve9XehXt6vr9f2GW2grvAbCRZ6ZkPb11Ydjk2to1r8MNmBA5ig1b2pnlrB4yZJAf1/zNV9zcPnllnkH3fJCVHLrrbd242/hqSz7SfCqI3A3/3SKfJZC658NPn7LmrwkxDyx9emYIPIK73vf+zqh95pgCTw1r0z55gJBZUjQ4cUCkEJ9yy23dAre55Hm9jNUX/+UWHhtrUmJWxVZPWN+2MMe1nnNuSF10iRrj388q2UNozY2F9kuj4yBsk0+ZV87ePx40PQ6dJ0JRQ6heVLQ+s8QvBbYcfWSl7xkUomzP96HMpeKTJiXrAsTJ+EXSgrtS6DMXv2zVVL4SOFavFOJY865zRh2eVGoVu+mngjC9kq8UeaCMVmW8MAZFcxRYv15F3usDUNpLW2+HdMAMZzewLr3ve99lo3AK0OGujBx5xU5GH/PmK/fiLLaMoAQ8ngEuMWTUjhC/oEPfKDzQAQIwLNEgO9ofeffPhySPxI5vNRb3vKWLgmmBeFHT5Y7sSw748lEFUJURoVHnDIaqQzf/M3f3NGBDwzaXDAGL42AqT77cGsjUQdPDaIMXh5+yozGrId+IB+Bz5JtIoOZ70vXXZ7G75dnpzuvyEHoL0c5TILXOFIMWc8xS173Q2jyyxzls+UUjrr+nN99iqw9r+Hlhgc+8IEdvbwKRROKK4QzIYXT7zlhJvrh4f31R5mn2qtP8DPT7DfalvBiiQIboz5501yKuAbwgfGTMEMT/MbTN9f47okDgy4HYplgXLz8GYFufYzWnVbkmJTvCxp/ZE2m5vZJOOcIHoEQmlHmVOQhAZlLL+UZAwKrgPSa6QEJo2gBbSIG46PkBHpKIbNPYxPCt7RRh+f6pm/6piP+oWGTJUbSMeeIDu8z51xkW48QX/GKVxyF0Hm972j+U8GF9oyZ6OQ7vuM7urC7r82OXesePaFpZxU5Juo+Qd+vrck4SRGWmjLmBLbiN+naWc+mUrm2aTgGB6FsBd5iyGPwKBTq3LlzXVjp0RYlVaagpQ4cPKH1tA8DlDBnDGW7JecMh2ig9sZyGK961as6lK3jyf6TT77SYp4ps0dqOwznQnben/RNz3DWPPnjr0eXx3cJVDRQTEzngShYPsapqh39ZG2FUa2e6qjh+RPCWiemPP+1zl4qyNq1rNNrWvp+E0aGhUI/7WlP614N9JvgL6Wv7Ae/fWmkfv0RP9caQ9lf3zlDYkw26JTe2Bhf97rXbRwZMPCimuuvv77LTfTRsCPXjsJq9OykRw6h+4dB298eYpgEho0MwkGPjlK5ZCE9l7SmLLPL8JhoYZfjXG+cdPCejIF1VFp836AixBnqZt3WIwWzM2ouaEexCDa6akWS9c71taSPbae5/lV/LuhPsV2VMpdAsSSdKNJQtFDWX3Kub2PFK+9Sy5aXQA4Y6aVzW+JimKyvPdXgKLwrvYRnJc4tnO+2IseEXR6D/nf1wE1k7uSRkbSmwVwKlUzGfOtE79Q+6UlPOhYa2bhBCZd6Y/TohwGhtIQXUBhFNDAXtzERzFoxOsTn/1j/GhdjRViFy/on1BRZARRIyG+DhrA3Fco1gv/1X//1naLhwVyFRqd+ZKmtS2swB3ZnCW15M3zIOclj3Wbot75KyDHyvoyF744xniVoY37rtmWduefGBJ9HY+bgUY961JHxnotrS/WP1sfw75RHDsZ5IeI3onjkdAQE2fNG2WZCiMm1B1KZ0LjncYP6T3nKUzoLbUJkJQnFXGU7IuI8fpMqIkhF5gEODw87JSvrtpxTRoqXa+5s4zql8EiI0WLA0J7KWwpsKoprlNRbVBTZW1XWkEmnNeWT43M68OKFtaCxgCGewKlfPPXeMiUaqmsM8PsWmUxwJtySVsc812fS7RyUv/NcX8aCdutV0VZf/2g09rUBHcb+J3/yJ51h5Jl3BLy++OqSlp1S5CDMpo8nlgTyvEIcFtcktoROmM+DKbwdHJTB9U3AxDIkvL5njwkEDV0ENYUw7w0d1TUeYXoKJzp9Fogi8GwMGJpLurPuEF5CzXOLHCiV8DpfitAG3ZTCfSG3fhg+7dCe9PutL2OjxDZ/5L2hvi1n9GeNjk8y6QqD4bfxMEbwwuWY43P0m+ERpWQRWTgfA7SmURqrl/fmzFPSSZnxopz3xHcKxz8Juo496tgZRQ7m+lTFvy6ZQnlt3BBOtihwtjVRQrHc9kg5KDVB2RQIDYUrwfux1mxz1mjwEAoKQvFEG7LNwuZUor6oo+y37zwFzz14JW2uvPLKrp+sT2nQS6EpGj5bGjinbHidu554wTKplDjGjrncaMlso3dTMN9KC5SGpLUNGs2LJRu+rUFzC60jdY6F1erthCIHQ+8atHghwrEDIeCLX/ziLtkwV4kxmqfTjqUWnrZOWvY/dISbsJdJM/3I5OY6rXWieZ+b47OzPDBDA096qKH+51yHjyfUx9Of/vQL1uLo9C6y9S0g5AoatO0DRgaoMxda+TIXLwM9ZfTMP9pFJ9b5PKylS+s41LOkYvDSQcylc8X6xxJd8PbP1oo9NqL6mah39PEoDL7pppuOhLsRRyeEhEUoSJGBsJEir+GN4YOfIrPQpbDzrNa71p7ldW36AD0ihVScKUHsw9FyTT88LW9ijTsG6tZ8ogDmw9IEnnzEJ9z16M06fFsKilb9K/oY6gfNPCUa+yCVmAJ7bGVpJMobwteHQ13zzjDuFbmHQ8Fka+KfzFs8kzWx8LVPIUxKDa5RCN5FQoKHyUmiyLxnLaA1jtbfLDNhRqcQMgGtj3nMYzphJ/h9tGddx6RvLbpK3PW5vhgNBq61P+Mj8BJjhN5jGHxOup0bo8jJuNcwRPrEW1GUczKgX57UWhm/vaUl7DfXJY89ckSruS69LDq19y3vNGS+OkJeWnmBn/BQ4LnLjHouVvj9/piDczWeU/XIwZx8IeJo8SoBY21XTlJJtOsmweSYMJPBOxxG5pgXLp8fY75wd23IxE2Nl5DJ3MqYWy+jUSkhFYHAoc8YSsEr6655rr8Wg8br8N5Kejg0980H+s0XJVvyTWrtZbfxirc374xg8sz9EpJ35lyIzGCLgoA8BWW1c8841dUebR4d5Qse9thL9M1RYvjRxHhMJd7U3TJcsD7W36kqcvTvA3qXIwSw/D7x0sdkk+L6YSisJA3GUgCKy1L3hTvqEIy1oRawEj9lfuITn9h5EtEAD0OwUmEdtSe0hFcdBbhHAFNgS7ybnk/hxSte27fHUoH75qGkA051JOo87qofo5V1y3PGwrxoR6l43Vxi4AEYo1ddiUFGWmgv0vB0QjRG0XLzC88tgy5hB3KMKTvdxcY/6LKU2MbcNJKQ1S5YH7txaoocwmzn1j9K6gi3Z4EmuU+AMNAEmjzKYr0zFc7BJUxbm/loJQxDYNJZb2UIRA/wCB8ZMCFqJr3Sc65JN5r6+Io+BsXGBwpgXEP1+sYCrzAY7VOKbFz6EAIzZMZvjHAoraBNRmYMP1wiAt6ZXDAqchgMfMlDvCZjc8aHJjzhKNL7t9K5pXq7o8gxgbbm2Et9BJSUMJeMP7p5/sQ9QuN7TpJK1mb1Lp+yjSzjmCKbICGZOiZ5rO8SLwMiZNsU9McoKf71qa9pGpfwT4IuvVQrXWP08CZ9yuI58h/90R91XpiAzxVyfaKPMUJvX3sKywDLFOcThL56Y/T33dMvhdb3jTfe2H0myVrZ/PQZeREHBZ/bNznh1ccMcx99W7jmvdVX9uE9LY9MiS94tYTFnoKcPALxohe9qJu8vk+pwsPTmLg+AXbfBBFwILxtURhC6bFRmejqEGz4R9/wWvfxKATfLq0U/KExtHaLR/X4hLc+dUQR+tbArbjRBgcjWwu7fIKcgbV0GqZNx1LTRTEZY0lS4+iTB/OWvKzbj/3WToLLHvOaf+TV/T6jMYZzg3uvCxqOf07mPLITV+QY+I9E394zPgYmw9qXV24BE0ZwPGu2l9haqQb3U3jqe36bBMpj44L1mt/1ZNXtKL82yhwg0NaCSZPxMgYEv/YQKYwSOujiyRilJcqGXv3UYa8kEyUWtSzBW44dz3KdW14X5fikrSjDGOtxlnU3PWccKLP+MsopcaLFmOcaEfJjj0DJPwpsTJYJ7h9G3kY5gYx2b1htnCeqyKEoh9GnL35cAISBMrLchL6F4QRDXZMn2ZHeNZG3eHhCnGGnSWkBfU1ZYX1LdFk78lYUUXFNP2i37oJLwk5IyKCUhgRtkjUMnDEycnOVgSLjq34SXLMm3tQTJz5HY4I3AW7hrtB9U0OROKeOeENhPV6ScCx5Kfpwbw7/0tBbdycuxsBcmFf3gay7tbcvoG45q336ihyDls14ZpTBDBBBtk7EKELRqsy8ga9CePRTrl3HFNkkEDCMT4/luenYRGebvtAtxtUBRZWJ5Ullf4X2PIWxEIYUCLQJ5wm8tZsEEIWTga3Ddt7g6quv7r5gYf08RmPS4YiHcBHEEmR8eZNWPGXbsfM0hHhgQ89SJUZ3yauxPut7xsRbSoDZG52A16l4eW3qaDwSXLnVlCFmnMhJbcjxk+yJDnOOp/AvuN/76Amek/TIXoi4cop4axEMtK6iAC3WXB0WkYDmS+8mDZ4xpmI8Qadk1qa5hhpqA1/uUa7Hwdp7SQEdhAikMNaTnm3dT2MlsvCtKTQ84QlPuCCJx+D4agUhN84pvqTQMoylN9aP94bdz76Tnk2O8KXh5O0Zsykah/oTqaDTWOcCnnpawTimIpMjRnVoXvv6MB70e/1TO2Oz1bVPibVXl/EWPWmzBfhI4HzzEN72nP8QhobrwRT/QvJnG6p2TOOVvILopQIMxNQpwGxWMYVJG4o3BO5TMM8awWGscUyA9ilA6ih+u07p611MQjYRxO/93u91xocS8wpKeuEhGsrr6CcMvBirn89yyzqUWf8y7egxPvSV4LfraM5dbuV9Ao7mNZU4FURkxMgQ6CXeHt2WOddee213zLks6W85Rw8PnO0d8XXOmPGPUuZTEUs+IfSYUcZ7G1L0vQV4WYzr+GQXnWzdI8fgLov+/o8ody36nTyV7iewEj08lUkeEw6TRECFdRJImKoMgXvaZIKCEvnXJ8CE8QipXO4Jrx75yEd2NKkjSYQugqtPuMbo06YF9MW7s/4+h1sn1YztO7/zO7u+KaVwL2k1JoIm2WOXk2fVqWT6Vs9z1xx7Cz2tdfQjikrlKfttwYEm/GPEjVHeoDXxWePXtzmxrMFPsqPMAYqMjpwPTxCmxoR+a2gyK8SeYzgaaBtcH2u7dUWOPv7XKJNvZJvIWsAomQf9LKNnxywdZg0xFPOFUa2A0SWz9SdJwhsKodwTlppQxxQQ61kWmgdCj8leE+Dj2e2y4oFrEBngiy9ZMjqEhwKhRYThmXRtAOBYsj2xb15qevI3OvBoaH6yXt+Rosk95C4s0RjPrv8l+PBCAWSCbMyFlA3zba5b5lmfIkP5jpU3kLx0jP51JbDqKSbBf038qepy95O15EElJvKRTCoyZggjrUd5ZY9hfEzula98Zbf2aZncFoFSJycraXRNOJUhVV53lKnkdaz/tGuZ2LL9nHM8IMiy2XjQB9aSmRPou19ek1STzZ2jFJRL34wY7z8FNS+n6pf30UWJU/mE2M7Tw5d1p84pLZoz2prrjRM/PKIYBrB1bMaBZl7ZGr1MvibeBUehZe9GkMS1NUUOZbP4fFaUoxcidEoJCYWBCk8N2rUS/Ma4XGvxiATaoxiTM2SpMTHXMM5TKErc5bk6yhSw6Bnim9htKnDSgi7hoQQaoW6hM9vWRwbTN5uF4VM8KdsSZH1LQNqgkiF8WWeNc/0wSl4FTWDIzbu17Zyxkx3KwyNmuyWKTP7wizeWPEtcSd/YkXxIWnJS+TrtWP2Ge/4H8kfH6m1NkaNTL0Q8sOzchFEICYFU1jHBUl8R6vKCQkqhYx9T1fOYhgAAdeCujURJj/Op+0Iq61WTAt9JKHHSqK9zsQYXQhPquWCt7S0mhm+uEuuLMFtv4zkDKYrq4/1cuur65oDByMSj+5RRJGbup7yh9ikr6kryZYgO15iMud8H8Fje6B/uJeP21dbDSKKuIDOjYTX6t6LIwdjvDtw/WjPIwCgxpkxNjrbJPBOhECReqm9iMNsaKz2y9n31XE+YUmJrPvuQJV1WmIzstvlo/JYdhKlVkY0JvZYB1mr4Bc8UL2qi4MFLCmbsyhS/ahxzflsi5HxnO0Zkqs+k01JIfcZc9FYCo1DjLu/3naufYf3ctvCRb/Mm+rTldkMYTXTBvboiB2O9EPGfasKt0XhjjG9R4rq93xjaJ5BCJ5MoyVPCkgnI9oyGTQ1CytI45P2TPIoGhIpjgAfCOcaSIgsHKV8fv8bwlPe0zySfozlcG9BNCeVDakD71BxqLyHo0eHQPFFkS7I5iVC0TPVd01v+1pYhYEwPwytvMg+Bd1KRt/Ec+T9GxxfMihBxSXhXMmfonHFg0WuvNTURvHha3RK365JaNncMCUdZvz5Hz5pAgfrozD4sO/yzdv8kHJ/VRffU+LN93xEPhLqZMOKZ1wZ8QqOdZ9lP2Qfhp4Rj/NSesR0DuIXplP4kAf2efshRbABH/wN5DMeqihwM/+Ho7Bl1h7zbnK2Fdfux34RWdrDehqjNmCC7Z2LRVoMEiyQHj7QE1gxD0cmTMIJ9wAt7C0wIR+D1PTbuPhx91+Ai/OlJWsLcPjxj1/Dfo8WhaEOYLAnGqAwB+ozd48khRcUPYxEJjhmFoT6WXtcv+eIQNoCXB55JC7SaIgeDxLW/0kewdZ6yhoCV+E0cr2HrYp9FHwvh0SILi64ahLIMxFJ6CaDE3BpCgwZhssRVDWi0KSWfcS6lt8aLbgaBkiVOCkVp1hiT/iinxKTvYA8ZTBFWiwFBlyWFraFD9Hmm69n0kLLXPFjrNxnkxMjaQpgMq+FdRZGDefD8lyh3vmID+3mwkWPMqma9OUdCTLhs4Bh6ziq8HFLmVJA67CEIEkRDAjFFo3GiTcJFH0vxZD9wsOp9iiwZJ6EypAiJY+6RsONp7lXWnkLZ3bbGPOIJPHaflX3UdBq7R47mcYyP6lFmG2jsXOsDPGI0rPXNz0kB2jiLDbZtvqyF1lUUOTr6p1GuHurQGs/EGdSmkIoiQWI/tpBpCKyvTOCYEKCtvI/GTcIwhkNozshQ5rU8QF/kgNY1eFrzzxg8/8S/BN5TCIxXJb/y/pwjnlBQH8SbAnORL9KM1U0+SKgOKQ3jdNVVV3VGCg1rzc0UXbyxJdBCeHlLu2ObNVoa1HViUs3G/xVlcEEpVPVMLpld45j6ncLDkgpZWXLhNOs6BhiobxM21Lf1p2x3LbQe38zdCJC0MDbw+nqjCeThhyKDbDN1tOXShgmeJ8GY4Ce4m+JPnHhMeXivGqeEF56aSzDE08RVH82jufA4xr72lkhCH7x2Rh9oGurXPXNGRrTpq+fe4fkssiVJRl/q9tWvx7DktzHrt36q0oDrXND0cw31NgutY2KY7GdFudtYZyZwLmhDqCgEBlsLe9DvhQHfJ+5bE9d9aDMWlpl4Ias1TAmUhvehkEsAXplkuK+44oqN15bGbwlASEvAAy8XLKWzxOWcwDGOHuf0KZlrFJARxSPzo00LqGtOJSXxpDScU+31awmVrxSOyRNepfEewiu68ALMU5/61G4sPLU+0Jh0DrVdcp08SFbW89eAq2l9DM+gF23oRJWfjjL+7wuiAmuEwSbAcQjcJxjqaEOoHCUpJCvqFwEwhjdyJNSsMKYlmLCpBI2+JIx4O0qRwHpaby3xpnASCF7du8X5veU+5cj+xo7woQPOGiTWSi9d32/5nXzHbwoD5xDoS1jMa8vse2nDUgKgUymBkTEnnhPn98jqOupb4lg+KOZTO0Y4i/mlyHBR1DTwZV95Lmro6yPv59G6X4FX/7LfjsZD8fSVY2rBl3jrIzwiCmMjkzNg+4ock/+4IOhftBAlJDOYMc9BmCiryXZu4iRXasvtHqbwovkSf3oFbwTlh8jRRXEovz3dQ4AuIZa9yL7CkYwmzLK2tbcewlNf1zchh5si89DoXarM8Oc4y75sRaSADNoShWYc8ADv8W9Mict+KYD65ovgiz5yGUHJgIiIAsPJyCZvSzzm0ptklMh5H1Ai8258DLtj9tFXn/LPAfXRp+AHZUaL8dhcI9nIuCQNc5VafYaYgZkJk1szE98ijxwD8kLEb0S5c8GWGHuOJh2z+p7ZltWFjwYsSVQKvGsUQqFYGJzJH0JoYhkJWUshMQECGEiQTMYYaG9TgZ1cvrskUQUkfM7FBoulYPJtCDAeIel111230aYYglQDQ0WZfNzA/TEhy/alQWWseCTr1pLndT9DvxkRBQib4U6j7Vgb4hIPA+ADgObdHChTkM/Tx8bJcYzdH+sDDyRSFVEZxabUjDI6yZJrc/HjS58hHqHFOurVI/eP3VqkyIHhf4vy4GOYRn4QNhZ/bJMFxlBYymSjf34nCdNYeyWVV9160l1jpQlHKjKSWnckmUBeAQ0+j8MAWDuhg4UmlHMAPWhnCCgyPJSZ4JpU9+fCEA0UyLi9HAFK3lBe/TkyphRL4cnNCYEV/awBY0pb42fURUHonuNBW/hmKTbEq5qOsd9pXPCHLJhPMoLuucqM/2lIx/os7t0aY2124bMVOYi5Njr7saLDyVNMZfUJda6B+xqZJMxj9YShfhu89kopoH3t1aXwJVj3Csco6JQQUGYZ2RtvvLFTvDqbXeJtOdefKMKkww2fRJ0PBRrPFD1lH+rD0QeuiyQYC+tyhkef2hi7jRWOIiNrW4ZOmzn99/W7yTXGWrQyNKYluBksY2WclgL5FAKLphgbvx05EZ7ZEmlMhof6xWvzMQOa18dw9kvGQG+hKDbc/u9RZruTTHZ4zjdlgdMSDpAxeBmz6nWYiRU+EpwWodG3iTJhCubPnIAj+tBDCISDmUjzSiLl9umYFnogI6A8wpjnhMta3HJAToAwukaBlSmeHxE944SxSKF3zD71a3miT6XmH/4y1gzvmoBPIo0yIqvx6xPdojeKiVdp+PK6caTyOk86zecChezai1a0nQFNG0ES3yxFjka/FuWCFyIS2dTR4yOMk3XchmARmDpZg3m8kLW1CWlhpjpT3n9qrO7DQ2BY9wQ0ekZLaGTFW5Q5BbQ2UomzPFrGKNsCtPCk8hSZzHNNSUj+4SHFEo2VXpICCalrBc/2S47mlqHTVx/gN5rRLtrjYRkUxT30p2w4ZllDDuBmXBjUGdC0ESTxNStyMOqHotH3Z8MlR4z2eMO/9rDWwKRk3hJ8ZRsTYs2XiZfynpBWIkzYvVZ/Jf6xc5NIUEqgvNbL7uVXUIboMi4CcHh4WKI4lXPLDhFV+bWQFPiaIJ4MyEgzovmqoWvuiUrWVGR8kugUudSAbm+zMTypsCXd5HANha37zd+MDEUeixSy7vlj7/9Aruoc+9kUtAchXxetev9DxDFsDT94iyuvvLJbKxJoQm6gmwAchF2Sqs/DpaU2iScJxiWkyix42beIxLpWlEKoCCL6tMniGmG3rs7kX4njJM9FDy94wQuO8hz4TPjRl0pRHl1X1KO4vrLis0Ugx7kW/fhljiX90FCCsFmCkeNwr4/usv62zs0ffjTCSxvrHVWb9MjBJJx5ZpQ7d0scNV92QojtrOFBeUohj2RUeuh6Mvp6KYVdOE0p+qxxtrV2tE42sdu0vtmfIxop8pAlJlTCbJNszSwEF4ozTO5Z33suztOcJvCot9xyS6eA6JoLBJhRkuTLEBtv1gK4hdSeA9cgz+GxUcuypG67xm/jZGREhTNgVqIL3pZZ+Ymod/UMIpqrYrx/82LdIuyxdqFoqaQZBtUICYY6vLBHO56jEvox4BV5bNZZ2xZjMYav5Z5+JPmmHst4hmuirR0V6zfKL0m3Vi6BcZDRlniDk0K1PJpT/1WvelWniJsYQG2Ny3+5YJjW4j8em9u+/5ZojjyKMgfeEtPnJmNomfO6DiPDYdW5m7pe9XtdRQ4mfWN08G+qTpp+Cqdk/qyFJLh4XAJE4XggzGfdMRejFZOhPmVmRa1p4TFZCflMOh8r9a2Js259PDw87DLRhMmEriVMdT9+o5kXGEq+1G3wAl+UtcE8CG19dgZdinmQQVfGQj5G1q6xKU+c4fKYorh3Lh5BmtOxPueMn6L4OswQ38iH/fm+FSdTTqaMX/9Jw7bkQD/4Zktr9tUwNgmVVzbUO1Zl0CMHEfa5/WaUux1rMfHDJBEYE0YZTXBOsqZpFSkuy8wTpZBQboW3wAR1TZTzsm33o/qjHmPhiGm8oJCmBPisNxkL4eK2lBm96NiFtS1aGC7rU4Y0hRavhLo8NTr7QFuJrWzTV8c188vjiCJEVkMAj/5yvTpUr/W6fhmkqW97i9zseRftoI8yk02Zc/OUMloqdysNY/WM1ZJOVDADXhN8uvBrFxMIBhU52v2rKI+caH/sNgXJT8eatNIK+U0wlJxMoZ5HQwSpXt+oD8YsPE/DyubXItN7a6sdRRY+Mhg2QzAYFNy/8yDUMsY1nccGtOCH8REO4fJQuLcA7eImeJTP0JOnkJkbtPpoPR71/YdJ9wn7FBiv9pY4z3nOc7pIrOyrbj92r6479psCtiyrEgel5x0BQ4Y3lg6Um2Lnpg94SyO/hF4yzrjJBZV6kLSMHGeH1XD1KnJM4BVx71+OdHbBLUkaj5U8I6YwfYMvr6UXTiZK+kxZ1rJTIR+P4tECxoMSv98EkUfxdpN1CsUSCVBwyTGMlmxjgLQdMxrwTQGBhkf21OMWxuK0gfcxNzVv0OUamvGA16jpzeRbX9tyXO5bRoimvEXW+ny8xDH3nKKI5szpEsjn7ZZoZIMMWQKSJzzjICwp8EdfoMVjw6MN4+hR65yl3/lxzA6rtbtAkUP4PbUWUk/vYIfhPAhVKWUtDHl/6Eihcw3naHfSFMhEXn/99Z0F1X7K4mEu+kyOLLB/FEZprQ9NIkWXaDNxAL4h4c3rjESCiQOWBPAfxlp8iqZsu8mRovEiqUR9uNQpaa3r4APhZRjxogSCbU5yzOW9PIebYczMvLGLAFwfa5ftlxwZJobHe9Fz5W2oP/PFsCsAX40db3IDCS/Og6dil+PL8fL6+OixopB+Abx0QZsLFTmQ/GKUB89BRpC9ELEUMBEjZEedU7AhMIk8MUanVx+qm9cxXF2hd2ZghfOuC7kJBKElzEJJj8N4aYAuwBg4z9/aopUg2b3E0/NGQ485TL7MqUQefsGjPS8mO+04B9Bp8z5Bo0QMiDCzFC74jLu+VvdjbIyZMZQ81QdDUF6r2xqHMecWVApmPIR/rF2Np+V38s1SyYaaMUXJucqoIo0to2POlDG+mA9FEk2kqD1PncaNHCZuxhBe9HgEOpR4axijdcwiRTrmkWPwTw9E/7ihw2NVJBFYqjHGHGvQ80NbzPeP2ggAoewDXpXwLgmD02DY5cNylhllgqiggZEg3CZLMYkmzXUKmQoobDJ5BHmIHnyxFpcPYBxY+bToxkcAUpklRhiWqS2WcMhFMDh4RcD8dl20Uc4DJUfvGKBdNCUkLo0ovPgxBu5TijREcImq0OZeScsYnr572be5UPDGGtfSpc9IqINm8iGhlvOVBkAf6NNWoXQMj3mfCoG1o6C1kurTGDcZZzH20f+BXNS74PRIkYNpYopFL0TwMoRz08FojzE8LkWTCKvBBJmYvoms6/b9ThrzqyC1B3V/zNL34Ry6JsT0iVaGDlAo+Al+grEI6RWZZeE5YeV1ktasm0c8sLxIPISM0HvEQqFKA+U3IRVtqDcE+pL4EloSbkZHfmGsTeJiLMp65o2yWXu7XhqSvjGlwjpmgdsca49++wWsiclFH4gA8Du/HpI41S37LK/joS2kDKdoCt3C4jmyVY6tj66Z1xYluvRxpMhx/h+jzMqTQwBYPgK5BmCMENgHx31TKS093CbBOmUKcrLKCSzbEA5ZSkVYvA3wnWUv++NLKeR1X2jM++imcARMWDuU8aTIOcbEBw8jaOngCQDvBQjlYaxbecgxwHdRh4SlRJ3Ih3dL2oba6pcSlOCa5KW+5SbMWdJbHp3rV9GPJwqUypGREupTLsZW5NIHDI7934ygiESf8M0B9DHsIifLAhGFfo3jhGHR+hiNnSIHQ/9BnP/AUqIJa07QUhxlO5NKyQil7HIKk4mi5GMMdk99NGUYPDSx1jvbUGRKyBNPKXE5ZudJO14STp6OZyuBsuJBHxgnweZZPTfNcVNsijAVNeGbpYD/XAGS7319uYZOdfp2iFEoyuwxnGgD3erXRXtKqz6FFQ2hdWyOkx7z50MUGW1khJL3W4/60hZtohD4DsP4WWaMbfut8RujQk4ZB/w2FmOCf2JMHr3MeuOp7P8uQTxT9wvlxbnniCU0BrEWmGBWVphn7Qgoxlgf7nmeKfFDoIVbJoZwwlczUh2TV1/fZAzwea4tStlEsNBg/zWBKsN/AjJmzIyTF5Sg4dGAdZ2Q3TqYwowBXrTyw3wwhOn9+/D2rSv76s29Zu5SiafG1IrbuPHPHJI9siPnwJi6PgSWToyVPIjIhwKnrNILEYaoxaOykWXbG6P/Ox6bDHU0cv0u0fjTQThv/N+iXPgO2EjjvJVrpDEly7qtR0yFj3cR5gixMcX1McBQk2xNpcgUC3P7Honk2nUM39x7lExoPDbxLTiNVWhL+dKQaWd8lNn9PsAfguQpgjDRb4JOkRm2NQFuhnMtRWqlTQJSxp7n3EbfyTNLjVweUegSKDtFP3fuXKe85iVBewWox6jLI1Hyq666amidP+tDAtlXHjtpiE5vigs2gdyWN+YcJSMwFNFzgbIOtaMMwidbDIHfQwLsvnvq+5/GEj9wC43s5PJcj5UsIT1yeW3Tc33W/SzBSRDgIQAlUGIlBaW8l+f4xADgRYJEEc8wxOus13pEm5BdUu6kgbeUJ9iGEpdjIU/4LGlX8pKBvTE+B2UJIlmWuQR8TxnVToHDNbQyPBzTwBwsDqvRfGTWo9O3xe/HRbljgeRuI0hQCK8HCBzEor62Y0YAEyQhPFIgiFPCqD68FDmZhqHCbULHmieMGZGsM/conBahzOVFXz/o5uFLXPXvoXaUXYif4BELr2zMmwJ6zJln8eZjE4ArSwse4+cF8WYMGJp8fOgoSlkydorIM+MnoNA2I4nw4DPf6rQA2ZRELI1C0W5xxhqOYwumYM5Hg6meJf9KlB9XoQVMqvBXkqcVMJq3vCpCDaGobKkJrSfIb4y0XlSXwZgCbTBXwsjjCqEpGiXOTKhHFECd1kmY6jPv68cjHBNt4jYFfCqhNETl9b5zxk99woYWSw2eehMwRwRYImtuohDvc2mQCSFzCx/6GHVrSGtuhqcPhKmWS0Pzhj64PEayPveb8utPdEOJXANw1PJW9qkemuVp4HLuaYr+l+Q/9JURFXwF+J+5d4SdxcU5p8cUWcPojMv6JzEIO0wkwZqk0WAzBI42o4BBmCjNLyyXjBoDEyORQDApyRjzE486lMDmD0kfXlLS6ElPelKXURaaEewWXASNMMCHFsZkrB0BxwtthgQu6Zw6MgxlX3CWv4fao1MoR3jzhRTCjX+uuT8XcvweT5UbR/rwEHqF4lkb6tNShiLLTZCBehyuAXMlOUQ+6ufG5kIZA3jSOMDDKJgH/QuDyRGv7pwhQUep1NkH3ssBGC/Z4QBaEoZjtDEAPUag6X8gj+G9QJGzcgzul4Ihb43fvxXlji++582eI+/qMYTHRlNCgtGYy4sTDp4zhaQHdcdoAmw9IhsrnCMktSDUbdFBcCR+ckumCeGZfWSgzAbXbf0mfAqFEDXwbtowDMJUY+7LQrouOWJji7FO0dnXt2valjQSMJ6lBfSJRxIyqcg8ngysRFEroEG/jsaMb4S7D9LrUVT94hsazF3OlzmZkg/K77mu9j4LxfgkTPHSfbQy/BTP+paHt0kG3RyOIoNMoTOXQE7QT6EzKmCQLcfQCycZcJyiIWmtj/hI7jmvCjYKq+EaVGQ3g+DnBeFPjNPnRTm+o16FAggJ6yfsmAJKi0E8mzXDWKiUuDDTxFB+7QhGC5gYa0UeRLuEcqNJXnM0mefCWptgSwVW28RlIaQEzO98/Y+Q8CIlWJObOBHBmJEq25TnBIZHKENM+BgTfbeAeh5FGXt6AbRmthX+GvSbiusePhlbKkLJN3Xxi4BTHLxiyHm59HBJa/Zf99f3W1sFLlt2/fvcVH5zyEtTvMTdhyPrkxMKi0aOwK45zsDYU6nxVFSY0Q5ZriMBddAz1mcfHeU1/CIzpRyev79dRdZJEP7qIOAxcfo7URwHwWTzftYBJqIPDIbFo/SAUpj4qYnGQJNiMjBCmNQC2pkg9XsYeAwF5ZUkM2GUzxhqYYcvx6aeYszW4TY/pOKpJ1POG/DMDEAK17FOB34kn3jBBDQZSyugk3IxlulFjccLB3gu5EVnQo5NRGENx3MQdsJX0m5+tYUXz+BKA6PPqbnM/qaOaMVfht6jNEDJnDOyOQ9jeIwpaRddiUYotf9bBRdAb7VmvQAl4yZSKPl1QaWRC+aT/FnO9cD2FVmnQfz7gpCr4vRZUf5ulF5gxYRu+RZTXyUMEeoRDucsYStz1DOBJqa1DRowkecYAvcl0+zGYiwISK3AfW1TQEwwAyDBdXh42PEgwye/nXsk1ip8+kIT4So9PX6l1+ijp76GR8Yj6y9MTHrh5OVcF+UwEDytR1T6JHDqlDxGj0SRRz8ZRbmGV+q18Kumr+V3estUZH0ZC9r1X9I4hc/4tdHWnF111VXHli5j7fWDlqWAxww9ua/grYH7Q9W12T8vjK0GUERnnwom/GDc/rkogx8doMjCLFavntyceJ4bEDLWfM5kZLu5bVKIu46rP9bolBjOsXpVs6OfhFnh9a3JhPKWDgwWJaYkIhCK3Ap4dRhGoBwnfs1RZH0ZT64X0ZRg7S2ZJOzWByMxNHZz6c0oSp8Gcahu4l/jiAeMSkY5iRMvLbGMq5axrDN0NFZtbI5hfEUn5m4KKKJSzsdUm7yPt5wcfve0f0XW2+TYrMg6CSKkFf+nYLCM9q9FueAhIgHxfq+H5bxtyWgDMimZfDEoTDRhc6CHGYPN4SZ0fUkpjSiddSycc/D2dZgKzThlBt8ECt0oQIvAwJsTn1sssy/t54TW2hkTAczsfYaTJU7nfYopLGeYzkXOwJjU6auXuNY+oluYXya7klZKITIwv0vmzTgYJ949lx1j9JtDBpknL2V6rE3eQyODWRuk8/c32tGVfUyboqxZHINxz4yfT4nSm9nCfI95rA9NBk+iEFDeODOxGOJ8riIXpEye6hM9tQBraN0qmaLOEmEY6hwuY1N4aWszitAKeEa46oSL9u7NBUIrGsixtrT3eM4H6eUkhJTGsiaPpmgwTtHMox71qN5+GTkJxSX80LexaGs51IKDIqOFvJLlVpmFW55Bgm0A2h8hDCBweZEiaxiMuCkOg9s6Ef+0pz2tG7y1F8ZjhNA7ATNZqW0KCCFmPGpvaCJ4G8pc30v61jjCjYbWMaKLsFxehMFJB4OjEI6y5HVthwQMDda3HutMAeW98cYbu0QZAS5pzz7yOIVr7n14KQrDe8UVVwx5sY4mj/gOY/mxdO2KJ5J2uVyYotVz+CfHd9gd8SWd0xDPXVfPIzvHHmDdX91zffalWaF1jT0m+G1BrG2dvx2Fhz4GPIrM7RhY7whDea61FQqjeTbhUw3WfcJqk7lLQClFEGW2OulDq+vqlMrlt7EK+wg1JXe/rJPn1oWUROKlD6wd03OXvCGU+nEtcbmmL0fXzF/e68M9dg3uxE9RGH18GAPKYRlHEYXZooa5gH7LlfKx2hAO4+SgJN7Ij8d4MupDERfcHJc2AzDrfyAP4Oguzx95hS0mLrd1/mrc+tHq9uRPym6wtr6tqciYLlHCatcT7J6QigDU9yYJPoEKfRGEbnlqGyRqZTEeSgAos7ExUvW6XDsK7xGMcYuUSoAnd6TVfKHAjOJheEBCT0j15RmttbS+5ERyT3IqdU1r9pc0O6pLDmTMPcajyHX/2a4+ouWqyD7nF1xLQ1PX7futf7T3AQU3RuPy3FpxjtfG5Wi8eFqDe6JNa/kR2PixU+LeWJEhikHJy/9YMEXc1rytU1tAkVk4SRUTODT5d9Se/mtyCBolzscWZSvhtDVg6XHK+6d1jmaPJ2Rk+4DA9631y7qSerw2ZfDvcXjokp9wuOZdXtfLRA++9WXFCarIicJoX0I+gSDwPJPIinCn0DuHM4Vf21JxPeZioHjfOqlV9jN2TpnlZLxyyIgZR03nUHt0ob0GG2kkwxgqdeAsi/r4l/2UPM565G8oyXq+v1XWx3CtosjniTKwWds6s50tlybCpGIewZlrWRMXJmZIMxTW81Ymr9Xql7jLCcvraxzRDRi1KWVt6Y8iezrgEU1tsAgfL+TZNr5TUuA6niQt2Y8xmxNthmijTEqCOWAwtCt55jr8oiXznoqQ7ZYe4TMWY/bWG4NSj3sIN0UtQS6BoUNr4jCGchxl/fpcO9HOwOaPsvpueeSSshhs87bOsp1JldywnpVsseZJIUhmlvXr81RgeFhCStzXDk64l4CJ1B7A3TqxLX2ZfELYl+TK9sbY2qeoQxmqj/5UZuF65hFkimv+qGsHHg8vVMy6SVffURtlDqQBwQuenLEVtlNK4H56R7+NTdEPg8CzW48K0SUy7TobGr/2INvf8euge7rAEOhnrqGHA43okOCaGP97ou93Z7+bHlf1yElMEGhb52Pj93OiPDqvtxx5B5MhkcAy2k2Ur55heha4yokVwgij879JDPUlOSGMn2DyseYmVbjqEYK2hAueDFsJEbqWAvw8ilcDGaIEIakQVX+UkuIREo/1eD994gGBg0MBlM7uJe3GPB4eeCzG+1xzzTVdaOvpgrY1wCMRZvwSZT4MOOSd67ZjvymtMVJWuIWyaGIw8Te9eo5tCBdeSH7hI7ryd87RUDvXy7mz5MK3OfJR4jYejmQqURdtNvqQQNmn860oMsTBnPeGkD0pTp8VZXBbp7o1EExrNwVTPQOlzNZgBJqAEywTxvoqEgt96+Eat8cNhGSOtaUswn7rQcqsfwJnH/C5WNejkZIRiLkCALcigiizm5RG4gm9tRCXgkd4U5GNiyCpr86YEidf0IunstkereSmBTSV/aif/fh0kjnxL1GyfuJrPaLVOpTXNMZ8zq5foO/sH40tfDVuXpxRMPYSxxBd6lB+oG8GGg9beFfj1I4CN/4bm9XCanRsTZEhDyY1betUdwiEegow+SmsJsDk8mDOWwCjbTNsrZ841ectCAnPr0/hpWJNy8hYd1NugkCgWgQpBcYrlnb+JFjXvvjFL+6E2xj7hCoFPr1WtnVsEfqyPgUVARkjxeTxjamPT66pr+4NN9zQKb/6c4AR8JSCAuPB0Bjn4FQXbX00j+FRP9f2wnnGeS7/4Dcf2rW8HnuenrOjyAgORjGxo9s6zw9s8kCAlKXAc6a1noODInnsYO1kb2450ZTa2lah6JSZIlIMvzO0SyEz4amEjAIlLv+rBkMlR0CoBjYRdKTPFdix8cKlPxGPqEZkQKD7DEjiMQ8UUlju/w+nV8v7Q0d9MAAMBT5uMp9Dfcy5rv/ks/lC3xLeMkhekSyfAozQIdHyypH7s28t14qZXQVznhkCfHs0e3aU8Sf9M3G3VhfGEdhSEVvbEmoZdUfrw3ItmzhYdtlKk6kf3j89ea77CI16HrUI1TPaSBzqaTumRFl3rSPDYu2dYXL92uJQP5SAV/XSidcCp4CwC+Ep8WkrMFpFTuYhFZmxzghhaizlfcZXDiU/XlHeGzhf9D+QB3B1l09MkfUWyvyHITS2df5ulIe6dpJgLWjylihyWmlbHFltIZTEUF4vx+EaZRV2K9bUFJSQEGD3hmiw7ndfiH4SQIkJorW/qAIYl5wAwZ4yKMbBwB3GRhHCPAa8fN/jsLINeoDjVN9luyXnZEH0kUZFknAuwGHOfA7IsRFWDav1eaKKrMMQ8tFtnepsCzB9E6CgBFfYTCg9q+WBc105JHi8d58H76MF/stjnzWBJ8x9hqKv3ZJr+KEPSkwQk35KbKcVwzcF6JPoo8w8eeLoa+ex1pjHQwulstQQlXhqMWTw+vDPuaYvnjg3oaBrriKnYfbpKMZvBpx9RTbYmPyNtnXOYNixqiZvDSBsvJgElyLZQ5mtE617ZdEpAgudgkhoxoS8pMvjHeGnkBUkjrLOJuf4QAgprCSbtV3ZB+X0GJDBagFtZe/hMvY+0Gf9fLqupw4e5qYYhsZOrfSYdf1NfsMtgsgoRP6E8Wg1nKnE9j4cRjQyEy4ORTboYFhu63xT/Pz5KPN2D0ByimDCU/gJAcUjiK4RPEeKq1Du3IJIeSj9WBgGt5cGtMs3tFwry9yhoy09sNBdJOExSa6La3wE3Bi00+8YuG/5IAcxpMgEn6KMATwMpGUIQ2jdnY8ek9dj7efc05fIJ9fHHvdN5SZKHqLPCxu5K25G3x+Ovt86o35T1RMPrWuqYlC/GAyizL8V5R71/TV/ry0MSVsqbP4mtIqJBzLlwja/KbkQVCiWyS5CVYNrPKU1HAXh8QhamQnXb7Z1zP4SF8VV3KO8ymF4D8KXIWXWrY+ScOiUrGvlm+UAr4yuGmTv0TIG6DRGyxbekiFj0G6MVyqNLcc6hqPlHjoY1HILJfx9fbiWfBQtaOexo3HWicqWvqPOqhtBss9TV2SExAQt2taZg2g9EuS1hGGsz+wjj2VdgkE5FB/t4xVsBkFbH/CYCqUm5NrxUnZDiQIoNqORCps4eHztCB6F8CIG5W0NUwktrywr3aLIxmpNja4+r5yK3MeTpNnRODK6UdcTAAbPI7lW2kt8fefmgCKWPDdWeQzRQEkjo+QewyKqosQy/BvA6mE1WnZCkRESzMttnc+Nn49ybW0gzHZLCd/KyVq7nzF8+k3FEI766B/ltEtqzEtqQynTk1CMfFxCMCkz3Oml1afMmwgd4RV6wj/FL/2KPBiZPkWmoPBMATxwUCj069cTAhGNpwXJuyk8Q/fx7TCiEgm+EiirtbndZvpgyCQzPVcXRpdKX7ZbcH7zgjaTTXZGkVEak2Zb55Vx+swos7Z1Rv1JECqaMCHgWtZ9stORCoSUonjU5IWEq6++enDNWqPRrk9h6nr5m+fOhA6lBxSLojMgvHYNwn/XtWtRIMrKuPSBvloUWduMMBIPJbJeFmJTJeCryQAAGWlJREFURMq+BBhwMiBDX8+/ubA/IN8fxl/XVob/GvhetDLODt1OKTKKgnmfiAn/wTgd/VpnR/3MP4TRmkvoRjhN5hYmayZVd+xh5oW8T+sztbWQzUYYDSgDpbIphTejyFkoHKAQPA9lpczCd144IZUcr1oAL3llClvz1bKAEtbX+/CiqeYB72hX3c0339yNrcWwJG70UGJGXOQztLZFW+tjwsQ94/jaqPtD0cd0WDIDaVbdOUVG2PnBrrKtMweaRxaZssgG88wm2ET3CV+2cTTJWcrra50TTI97PG4pt2zOwU9BhZ+KRz2UWPjuOtoprn5KJaBcjIgEk6Qab5X/j1kba9RzkWhrAfXhybe0yjZ5vVbQso5z88Cw9CmUtTLafTedcckxOdYAj3E7GvdhhNMMgTD5FMDunr8TdN7xPuYWCNhJRc5xxsCfGRNxe/wWktz5D4CywsIjZfYSOs9M4Hksa7Kc/PRY0Oc1Ho5XoRgEJ5WhT4iWkAWPfr1ZRHnGHk+V+LWRYPL6HUPAI6YHRSMhVoagHAseeJlByI5HgKemVC15Bf2gBY/KtTkeig4cp0AdijzEV5lmNNlhZ7zw5pzArT1joX9FWM4wedw2ZUSmaFt43zrm78V43rawfVOznVZkIwgG2Nbp3ebnRXmoa2sAoSMQSr52Rgjq9RlFIcQ8FwWhzAwA70Vp3KMwQ4I3h1Z4eC7JL4I3BQyQd4d5TMKMfuNaKrD6Nz7RCkMHlzDUWpmhaMGLf/hShq88NK8P3xign/JNvY4qG283lfnAK/jT+BqDon/1Wgwims0jMEZ0rjGf58f6k4Hr+vPnWzvsvCIbeTDirTHJg1/r3JQ7OWmOY8JG6QGBs94kRBSJV19ToSkor5x01ePTl8cxFA4dhI/wrgHwMAwy/DK7cBs3RZ4C9OKNN8DKd6sZBwZqjLdwU0bRgLVsC1DW0mC0tFEHPTaAWHqgCz/TEKDRmO2uY+DLyKIVf1HvvwRPfrn4vbXTM6HIRh8M2fq2Tl7XhAolh5ToPC1d+Hd5PAM+jLWXtbZQr3y/dpMZk8WmEH00oFH4KwQndLKra4I+8cB/pqBQvBqlZjj03UdT2T+6KUdJP2OTilLWLc+zPuVZyyiV+J2j355wY2Ns9ImuvjFRcttvr7322qWPnjwv/vGahm39PjOKjAHB8NzW6V/W/HyU8VhNo0bgVSmIyWWF7X6SKZ16aZ4Q8J6Endei0Dw1JZvyQEOk8RjCvbq9a6nEhL1PAGucqSD19bHf+rW5Q18eifHIMsnlWnSovf4y1E2F9Nv1ejyJwz1j8xwXL9cGdIsyJMnMs/6Sf0M0ocEzZXMqmz8T3h31vz/m5zMz2y2ufqYUOUcZDPqFmAzbOv/PKKts6+QFedT0cBIpXloQYskiTyl0hmOUnyXnwVreHsoxtRxtHuFRUghb2gg9eUSKMgeMRx7AxxS8Z8u4ZRJtCo+2pYJIXuErj0iJlBLUpyy+WZbKX95fes7bmgvzSJFTgVvxGcPQc/ERHP57xN8NGX3vSJ3Vb51JRcaFYNRzY2KeGKeSYPd3bRNIYSsFiSdJIbCNUhJG2E0oCV/QcEGXPBehlF31IXhWvRTqCxo0XrBuRgtcff3WaCiu0Nj/R0KHdWBLuxKPvkQYFBAvWsahD+vcsi90+PdBliCMG4VCjyMDYYkiomnBX9I3dE6BGWL/MYNHRb/5mgvoIxcz4cdj7Kv8Y7Y5/c4f3RzsW64bDFttWycltR6UkU5lJoyUVhbWRgTbIz3OoKwUWiEgWZ/AOCeQzgltKdCt7NC+FGpC78salKlVIAkzhRIhoLPeQ9xCC9rhsR53PjUWgq9O/W6uazaalJtNWvpfUicjKZELvuFjK8/K/oxFxrvha5hls1+Ksf5GeeGkzs+0ImNSMC63df5m/Pw7SxnH8lqf2UxRQyoVhU6Poo7JLiHrEX6QSl3WaTm3Jk1c6vMq1nZzBJLyEERtKLM95iXOFjrUgUdpAeNmDPMZdEubtepIXklieRHFUoIBTgO7pA9GwJJqhiJfF/381JK+1mhz5hUZE0LQbOu0N/tno/xL15ZAbpq3LuoTegLdIhwtdcboE4qm8hAoj7goSR9NfXgYGILMIwOPgqyvtwn6VFZ4ZNNMpiSW7DL+WMJQYLw39k3AOIT8llONPPd+8X8XczYvEbEJkVXbi0KRjSmYyA1utK1T6Gwvtn+lYjJTmSqebfWnPsvEmlDfZoq5xoEnzs0QQlpe0mOhuXhaBotXDI7nzrZRbhvwgwKLMpznkmNOxDJGo7FQYq8sNoCN6LZffqSh7taqXDSKnBwKhj4zBOv2+L1oW+flkXihPMI01vgklZnXzc8G5XjQ4nHUXCFFd3omCm3ZsI0P+kmqUWRhaP2p4BzDJkc8oVjW+LyuJwuSZviS85Pj3KSfbGs81vj2nDeAtdUPB69f11B3q1UuOkXGrWBs+bXO4y+eTrCTArDGBCc3Xbh2EpBClO++UhAeZwmguRRw3tILGdb4jeHiaLcUTPF4SzhtWTLH2xurfEQ+3qGs8Blzgjr5nXD5CaGzeozaXMOWOMeO+jaGxz/+8V1ic6zu+Xv/S/D5dxrqbb3KRanIuBYMfktMjE/v/naUp7jWCiaTRZadtg3SBG9bmfUhu3x4eHhEJqGV5JqreElvqViSeV7Q9x8s8v5RR40n2lEuvIDPIzaeeM42SQppvS67zEj5nfvEk4ya1/kbH0rjlPXXOuI3HonKGuD/jTr/uqHeiVS5aBUZ90IAFm/rZPG9aE6Zb7311s4TlIqx9uzwRtZk5aMbITWPlYI8p09tagNgcwvF8SiLQk6Nh+KiK4ESoVHyzEsdc18JlH33AQUhfvaPxik6sv9tHo1Txt2mlAZ+e7dYSH1n+LBN4hpwX9SKbPzB7MXbOk2oDRU8ju19PAiha5joBtbfWYXCwFt/uM5WT15iKdR0+m3ZwDjZXCLMBq5n3VRev2VuFQprjS1hJhM+N6zlcfV3yy23dIkpY62NzNIxrtXOeH0VMzP9I3g/FPe+L+pv7d3ikb4Hb130ipwjD8bb1ukxwbOizNrWSYg9T7Rd0aOO3Phh8tcA3sk6s3xjCF7rw1wTzu0HbUP0Wc/aSXUuti3mOtWYKBfFlb13NGYbZSjuUq9pXW6Hle2e6FmKZ+7459Q3dga7YU+1x0seM719Dv6TqHvJKDJmxgT8t1DmRds6JaBYbCFl/rvTNRSaolIYnrJUPJ5RcmcTKPHVeEQZ/o+vkFJiDx3qW6fz2JuC6MVLF3ZY4dNcL75p/63tGVHG6glPeEKLkflnwaPrW3GfZL1LSpExNiZio22dPBnP6X1W3jk/FwQ3jzamPOqUQHkoFCHKTHXeJ/yej87Bl20ZAR61xfuhue478Sw5WoPbny2vIHRHw64qMSOGT/4vdMN6/z/HXPzKEp6cRJtLTpExNSZko22dlMu2RwrteSZlFjp6O4gXdV8ZWgdSNJ7ARg2POvq2NFJydZYCLz/U/1KcY+2M3f9qosRe8DD+XVVg4zAHaPQlFHM5Ad4t/icTdU719iWpyDgek5jbOv9N/PznS2aBt6GEis+o2qwgpJRttr61/uxTRl7YoxvPdoe8IUFTlgBPU27zXIKjpY2x5Zc27HFm1NDcEgm04N9mHTxiRPPztyN9vTvuPSPk5cTeLR6hZfDWJavIOBKT49nKvwjhe2Mcfy3KZVEWAeH1aCa39fHMQmNA4HlYHtIjHOvQqdfjrFPVm6vM+rI7jCKvDQyUDHR6X57Xtk/htHGdZASwdGz4iUe24jb8T2fvFvtAwPuW9ndS7S5pRU4mx0Q9Myb49vi9aFtn4imPPO2Qty3rDZ0LSyVhhOyEL2gcqnp0nZcBMrANa76jdn0nFFZE4ZmvZJj1rsdhflu/M0zoYsAYnLMCeGTTB2/cEDn84+D7Vv5X09r8mpaOtXvcYXwhmHb8Pz/K9nf+N/CBR7/pppu6x0SqDwkeheJleHGZaKVF8UsStBcaexnBxg1eVlThSKnh43GVubjLfk7rHI8osU0+kosNO8T+bYzzJ0+L3rn97hW54lhMuE9l2tb55OrWqfykRF4WsKUxN4gQyhK8FCFh49EYLz5X0YTIr3jFK7p+eNr07Km8ZV9n8TyVWCjd6Im9W/z0GP/ybOMJM2qvyD0Mj4n3QuuvRvnRntunckk4a43KI1K0fDbLS1M4YfxcBTYQH5R/9rOf3a11eaklOE6FIY2dphL7h+T2ATSs420aekzw4cIvTDT2eRrV9mvkHq7HJC7e1tmDbpVLlKwhHJzdl7UvZT5L69zWQTJ4FFcozRs3KHG+W3ymlBg/VvucbCtzz1K9UOhfCHp9eWSn9tUu4SFllWGuwbNsm1yE1BcTWPOLUp761Kd270k3KLH1in+ydurvFi+Zh31o3cC1CM8eGdWeE2Vy50ADuq1WIcC5xpWo8hqkZ73nYl+19batoD4AUG7WUOe5z31u96bVUEJtq0SvjNyyg3Hyz/rKt8kmuvnpUOKfmaizs7f3itw4NaHM94uqz43yqMYmJ1LNBhRKmuvm9LyEWaHMuZ5GEM8rc+vD86WX8nLDC17wgi5TfVaVOdfDXgq56qqrJp/VFxPk3eIfCEU+nkUsKuz66V6RZ8xQCMoXR/WNvtY5o7umqhJgHlH5NFEI4pFyEuryd4mM17Y1sd4QITt+3XXXHe2RLtvs+rkxWecbkzLDGHm3+Irg1WZvqJwyg/aKPHMCQkHkFfy7mp+a2XRr1QmxlxRe8pKXdJ659LR9nVJyofV3fdd3dVtFyzo2oPDMPH0Zfpd1duncWIxfKC2p5ZXTGeDdYkr89hltdrLqXpEXTksI0D+Mpv8hys5sa/Jvaq6//vpuJ9aURyL8tnJ+z/d8T/fsuWSDHV2+5CHcZhR49l0EywTP0K37bbnMr4Y20iq797QY2/WN9Xe62m7O0E6z7E7iQpmvjF+rbeu8E/PyM7uyhMd2aU15VIpgT/b3fu/3HvsEr96tq30QQMnPzS6nat2WjBDjcnl8W0vijjdeAD8ROH5lQbudbLJX5A2nJZR5p7Z1Go43r174whd22eopZaawh4eHB9/93d/d69GE2j7R40jxp/BtyM7R5qnAdq9J2Hl7bCryGED426HEPzhw70xe3ivyCtMWynzvQMMz89A7Ad5QuuGGG7qPH0wpHwXxWqXHNV6xrIEC+9KHd429ex3jHUyk1W03/a2vfJzmUVJ+kmfDDSw+nPesTWnbpfZ7RV5pNkLgrJX/fZSd2dbpubG1bst/ccwwmzLnq5g1a7wF5Zkzhbb3m7GgZLziVIKtxjX1G1402dTBA3sRxP+s3uSNsqLPh4Yi+7e8Fw3sFXnlqQyFls1e9Z+wb0Iibyubba0bwjuauFLXe9ISR1649xmcPuAlKbHHVV7ksOEkPyqgvvug7M/5EKifXlc9v63dvQRiHexLLFNRxRDunut/FtfuHf2c2WfGPWM6GOZuX+39tSYOhCD6r5CeN3vufOpASXwIz1qXkkwpFYXmlT2PFXJPeVtZbs+zHXls7yyLBqy/eVXnjn6XgA77xxkMr2DKOlNeb3LJqPeF+WX7hefXRb9PXdh2Z5vtFXlLUxMK8+hA/bwoX72lLmaj9WF6/2mCok4ppzpCZorse9sUrMUrpmeluEJxO8t47wzDGZLE7ZwCC519T9r5wuTVHF78XCjy/zynwVmou1fkLc5SCOoDAv3zo3zTFruZhXrOs+ZUOgrsEU8qtO9en2H43lBkW20vKtgr8panM5ThXtHFs6PM+v9T2yTL1y49nuItWz0gD6uuTwj516lCb8knXvSMwX1Dkd9/xmieJHevyJMs2rxCKLOM9q9H+eHNsa2DwWOk3//93+9C3lZl1jMvTamtbb0C6bO7wm/n1rg7rtjvDCUWJV10sFfkE5rSUAC8/ldRfjrKTvBdYur5z39+0y6wPjZZ6wKGgGJ7zivDLHllDW7da229Q/DsUOQf2CF6ViNlJwRqtdGcAUSh0D8UZP6nKDuxRzuV2euPczxzzWqeWqIrk13W1TZteDHj8PCwrn5av38qFPkXT6vzbfbrTZ49nCAHQpDsKPpbUXbiczI86LXXXts96kkPu4QdMa4jz8w7++2RlMdeHj/tCJyJT9su4dVekZdwbcM2IeQ3BIonRLl9Q1SrNJeR5jllozdR5poYXtla3PbOHQDrgFt3gI6tkLBX5K2wdRppKPMbotbjorxiuvb2a1Dma665plvfZni8Rq9Cbls6680ga+CeieP1wfOPz2xzZqrvFfkUpyoEy2OQq6P4Htipg+zzVVdd1YXIFHAN4JXty+aZTxl2wmBuiwd7Rd4WZxvxhjJ/Iqp+f5SdeDfWpo9HPOIRq4bYwnUbUdYM2xvZW1Z7WfnjYjvfK/IOzGgo82ej/ESQ8k+jnPp/N/DShP8wuZbiyYafiw8E2qZ5inDRJrrwdK/IpyhZddehzL8c1079O9regPKPztaCGFe37/q2225bC+VcPD6sdya/V9060L0it3LqhOqF0P9OdPXkKB84oS57u/FJWS8zrOWVrbl5ZS9SnAK8Mvh66pHONse9V+Rtcnch7hA6YeB3RPF/m08FbLf0NY61QNLLP4KX+DoFeOUp9HmiXe4V+UTZ3d5ZKLNnzI+PcmN7q3VrPuQhDzm4973vvZpX5t3f8pa3HH14YF1qR7HdMnr3Iri5V+QdnsRQZru/nhbFRwpOHNIrr/UoStLLV0X847gThov60RNe7hX5hCVqbnehzPY3/nCUn5nbdo36vPK97nWvoz3Um+CMsXT/kubNb37zJmjmtv1g9HtubqOzVn+vyGdgxkIQ/ybKTwepPxLl+Pdytky/z+347Oxau73gefvb336SO70u6ufHOf17RU5OnIFjKPMzg8ynR/nYSZL7sIc9rPt65Rohdu708tbVCcFFn+jCx70in5A0rdVNKPOLApck2DvXwjmFx8cDfA1kLa/swwT2X69hGKZoj/svbahz5qvsFfkMTmEo8+uD7MdGedVJkB/9dd/rclwDJL2E1/5R3JbBhvET4dGWxzGJfq/IkyzazQqhVF64uDLK754Ehb7R5Q2pNTaIMAif/OQnO6+8ZdrfEn1t3VpseQxN6PeK3MSm3awUQuqFi++L8u+3TaFvcUl6rQU+BeQjgFt+FHVR768u52KvyCU3zuB5KLMXLv6HIP0no3xum0OgyD4cv8ZamSJ/+MMfPtjy/uuL/vlxzvdekZMTZ/wYyvxvYwg/EOVT2xqKlyl8CncNRUYjZX7Na16zTa980e/oyrneK3Jy4iI4hjL/1xiGDxV8cBvDCfxdeL3WJ28psv8Z5Z/MbQFspNkK4i3QujHKvSJvzMLdQhDKZgOEFy628qEsb0T5xO1an+6RwX7d6163jQz2q4MXp/Kq1WlIxF6RT4PrW+4zBPjt0YXvgb147a54Uds2fSlzDeDlJbz8X6qV4ZJZH+PbXpFXlp5dQRcK4rHLU6P81to08chrJb3Qll7Zm1ErwiWTscazvSKvKDm7hiqU+dNB0z+I8nNr0uY/SfDKazxTRhevbLfXTTfdtObngC6JPdY5r3tFTk5cpMdQEi9c+Dei/yjKai9c+OLm3e9+99W2WfLKHkfdfPPNa2TF7UU/0VesTlt89op82jNwQv2HMv/n6Oq7oqzyBTz/tG2tnV7JAi9U+Nqm5NeG8HIGbEMcZ6r5XpHP1HRtRmwI93WBwX+42Pgj0zyoZ8qOa4IXKYTY73jHOzZBe0klujBqr8ibiMsZbBvK/Nog+4ooG6eJhdf+X/JaG0SwU1bc/4y67rrrum98ubYALqlEF/7sFXmBlJz1JqHM740xPCnK720yFp8Csm1zraRX0sLL+++Qz3ve85b+h4pLKtGFb3tFTum5xI6hzB+PIf/tKP9h6dADR/dPzmWx1wYhtk/nLvh8rn9m7s2wSwr2inxJTffxwYbAe+Hiv4+r/zzKouSQf8uqeHy0KVDe/BesPmTwjGc8o1uHz8R7yYXV+HOXmUzaV78IORDK/AuhRLfH0Hytc5Z7zaSX5BRFDFy9HHIvwXn5O6/bZOK958svv/zgwQ9+8IEs9gLYK/ICpu2bXCQcCAV8dijXe2I4z43yFXOG9aAHPejg1ltv7bZalkrqnGIrFF4iy9H2TkfF/5jifSmx59I+K7QhXJKK3G8+N+TkvvnZ5UAo34OC+v8vyte3joLCfuADH+gSVEJjL1SkQlPiyy67rCsU2Hra65COPK77FHwl8G9h7hU4rf8vKdgr8iU13W2DDSW8d9T0P5s9cz5L8NpQ4m89SwSvRetqpnAtgvZ4Tp8DoQxeuLgmyv99+tTMouCSDKtxaK/Is+Tk0qkcyuxd3r8f5efPyKhl0246I7SuTuY+tF6dpRcfwgi1fyxG9atRFqWRV+aIfxzlhQjljVF8QMH5m8L4bO0zR4F/p2GvyDs9PbtDXCizfyb321HueQJU+YjgO6NQ0NvOl1TWd8fvPVQc2CtyxZD9z2EOhDJLJD0/yv2Ha826k96VV+VdO2V1vJS96ywOnq+8V+QlXLuE24QyU+LfjfLwRjakd6WsvKtjV0JZPbfewwoc2CvyCky81FCEMguv/58of6sYO++aSpoKm+GwxNketsiBvSJvkbkXM+pQZomvvxfFv1W8LbyrN6r2cEoc+P8BfQ+W8mxn8uUAAAAASUVORK5CYII=;" vertex="1" parent="o-uRExmvfYBmLYg7Qbvn-55">
          <mxGeometry y="37" width="51.26" height="43" as="geometry" />
        </mxCell>
        <mxCell id="o-uRExmvfYBmLYg7Qbvn-34" value="" style="shape=image;verticalLabelPosition=bottom;labelBackgroundColor=default;verticalAlign=top;aspect=fixed;imageAspect=0;image=data:image/png,iVBORw0KGgoAAAANSUhEUgAAACsAAAAuCAIAAAA+8nckAAAAAXNSR0IArs4c6QAAAERlWElmTU0AKgAAAAgAAYdpAAQAAAABAAAAGgAAAAAAA6ABAAMAAAABAAEAAKACAAQAAAABAAAAK6ADAAQAAAABAAAALgAAAACmPMiIAAAFcklEQVRYCcVYSSi1Xxj/cMmYKfNYRMbMRIYMJQtDKKyQDUWxoCwsSKYsRIhkQ0qxsEDG+stUyJgpMmWe59n3u97b8XqH+11/bu7i9pznPMPvDM9wXpm3t7c/v/qT/VXvQue/j0DwpT24u7tbXl5eWFhYW1s7Ojq6ublRUFDQ0tIyNze3tbW1sbHR1tb+kkEIy0hyD56fnwcGBlpaWsbGxp6envT19eFST09PRUXl8fHx+Ph4e3t7Z2cHtJWVVUxMTEREBGBJCgUIxPxeXl6amprc3NwsLS3T09P7+/tPT0855bE909PTRUVFHh4eFhYWeXl5QMYpyWD+YYzpw6mpqYCAACyrqqrq/PycPiWGBuju7u7AwECABnoxktQUL4Lq6mrsc3Z29tnZ2T+tcArAvampaWJi4tXVFaeAOARZWVmGhoZYihhNSaY2Nzf9/Py8vb0PDg745Dn2AOeNi7a4uMin8yX+7e1tdHS0i4vL4eEhpyITQUFBgYmJycrKCqf0/2M+PDxERkb6+/vjtrItfELQ2dmpoaExMTHBlvsm5/r6GtuQkZHBtvOBAMFjZmZWU1PDFuLkIAH89/6bnJx8fX3llKEzl5aWkCR6enroTNAfCHD7EEKS2KJMlJWVUTnH3t4eaYphl3NYXl7u6OjIOAtRXdjY2Ghubi4pKZGRkZEwl8nKinTl5OQkVElLSwNW5Fa6vMhKbW2tu7s7ch997sdpRUXFzMzMyspKpHliXIgAAdPe3g6AhCs9IjY2Fnkd9YW4ECIYHx/HPxIw4UqPQKwhLNva2ogLIQLUGxyBkpIS4UqVCAsLGxkZEUbB+0+IAOHk4+MjVa90466uroh8pEiKKYvLubu7i+aCLiQJTY8aEheSKKLioK/Z2tqihAXIVriJ4HIq39/f0+8tXQZT1BAp5PLyUiDgbreUlZUZ+MBRV1ff29sTIYB7rAbdDt06oVNTU3FLyJBOoOZSQyQ7BwcH+pYQMawVBRaNAuFQBNwBNEUL0FCAYsAkCqiq6MDIkJPAOSJDc04hWaF1Y0+BT/nFlCz2BNcSmZItJz0O3KmpqVH2BaqqqtgrNL5o7tguS0tLc3Jy2HxwWltb0UeBgGJdXR1nbsbWotVgqGNX0PPp6OhQfAEyJVrs1dVVLy8vhiiGqDpsJsWZmZmhCKwGJY1PjM2n2nx0IdSUMB/ADT1NsnU4OSRGcIiE5pRkMPHcwE00MjKi+EIEWAGSFLkaDIUfH/b29jo5OcnLy38gQKI+OTkhu/rjLukGETiIz6ioKMIU7gEuha+vb0NDA+FKj8DbC2+9kJAQ4kKIAD/0x6hXfGFNyfzIP5qghIQEEoqwKUKAQEB5LCws/BE3fEa6urrw8MVqPwmQhm5+fh6d5NDQEOGIJ4qLiylDeNbhdMULYxZpGJIVFRUMyU9vZ2xRfX09GhZJHuHDw8Po7gHCwMAA/RVfXifLTUpKQjeKQGDWMDoihHV4eDiuCd4YdP73aawN5RcI2KY+unVqDvkSFwLfABg9NVtTcg6e3pqamqOjo5wqTAQQ2t/fx1szKCgInQunjuRMbGpubq6uru7g4CCfFgcCiF5cXMTFxaHk4KT5NP/Jx+MzNDTUzs4OXzbECHMjoBSwe8bGxvHx8QgTMSbYU6g9+fn5yPwpKSnItmwBOkccAsitr68nJyfDFm5GR0cH3yccyiLuLyoc3iTYPPT+fX19dE989KdoJJHDIPAtobGxEfkE19Pa2trZ2RmNF4IQjQWaRDS+uOSzs7Nzc3PIuJ6engAdHBzMMMI3lAgBpYwl4kSRBlDD0Lohw8A9plBq8b0HX/PQ8iOOvvAV7d3uFxDwLeKbfFFd+KaV76j/PoK/lpe10wnZGywAAAAASUVORK5CYII=;" vertex="1" parent="o-uRExmvfYBmLYg7Qbvn-55">
          <mxGeometry x="3.4599999999999795" y="25.180000000000007" width="9.35" height="10" as="geometry" />
        </mxCell>
        <mxCell id="o-uRExmvfYBmLYg7Qbvn-36" value="" style="shape=image;verticalLabelPosition=bottom;labelBackgroundColor=default;verticalAlign=top;aspect=fixed;imageAspect=0;image=data:image/png,iVBORw0KGgoAAAANSUhEUgAAAI0AAABcCAIAAADcXqF4AAAAAXNSR0IArs4c6QAAAERlWElmTU0AKgAAAAgAAYdpAAQAAAABAAAAGgAAAAAAA6ABAAMAAAABAAEAAKACAAQAAAABAAAAjaADAAQAAAABAAAAXAAAAAAWNTU9AAATFElEQVR4Ae3dZ6gkRdcH8Nd1zfExZ9eIGcNjBkUMoKigoiiKCQwYMIJiQAX9ql9EBDFgxIQBE+acc845x8ec9f3dPVDb2z3T09MTbs/drQ9DdXf1qarzP6lOVd87y7///vt/M0vjOTCp8SOcOcAxDszEaTTkYHLtYb722mtvvPHGEkssMfvsszOekyZNmiVT4tLvrLPOmm7rSz3XMj2NivbRIAaGcrZB9t2glgiGAY9fN9PTVA+CI/o7S0ysxui/++67a6+99sEHH1x88cUXWmihf/75p0gqeJQlnu6oRD336xIY2VfUU5tUSYCpTJ482f3Uu0pq5tHnn3++1VZbbbLJJjmao3U5bXr1xv38889feeWVMFt22WXnmGOOv//+ux6d7FuJ49mb7erljQH29ttvH3XUUeuuu247CiNxv77di+mZ/6qrrnrzzTffc889c889NzOINXSrl8mHNlSkUNLYoz///HPeeeddccUVK1JrbLPu9OmPP/7gjVpO5oMPPrjuuuteeeWVhRdemBnsHa2WvXR1k6tj9KZMmUKfunqxgY3znqB8iHffffdFF130888/F5stv/zyxx133JFHHjnPPPO89dZbLCHPgVPFlkO7Q62///57zmloPQ6uo+7s3lxzzfXQQw8J8/bff//VV1+9OKz11ltvnXXWefLJJ++44w5oLbjggnSLM28ZZRRf7+MdIvLll1+utNJKa665Zh/JjhepWU8//fTqfX/44Yc//vjj77//zhvhPs9UfJcaiSm22GKLZZZZ5osvvnj33Xfp32yzzcZgelRsP4g74ZkYvYMPPnjRRRcdRBdDptmFPomsPv30U788EOPGG2HEfvvtB7DioInzf6eW995775FHHhEWenfOOeecf/75KaVXYJZ8GJpKkUjtO4jzl9tuu21LSapNdhxf7CKO+Oabby688EIRFP4qOCvkZegOPfRQ6lI+h99+++2dd96B1ptvvokOjQQVCuiIEqOo9xgoxhiIyCeffLLIIouccMIJlgrlAxuVp13g9MQTT/A6CRJsNUlOyBLyoIMOissq0xZi8BzQYkIVtpE5dRmBYo8rMCB9++23v/7668knn2wBXmU8I9GmhclqOW6SLnzIOpjQhpVXXvnRRx9dcskld9ppp5YvFm/+Z2rJ3hfuC+ivvvpqthGp2loFpP9NLccff/xEAgmvqjr2r7/+GhMxIsvfgGqFFVa48cYbKVb2UVd1IQb7yUyRA0FHVhqq0wmQjPOII45YZZVVqr84Ei2r4gQGTqU4JVCJDsTfl19+OddVbFD9DjXbeOONWa3qr6SWvB1zynhawK299trp/oSpVMKJIeL/24k5jyL2/eijjx5++OEe+SLHA2zYV6fDL9IkkSdXd+yxx1q9VX93hFpWwomrx4ic0ctNkl+57bbbxHW5+11dAnu++eZrJxBFUkDS2FvGduKJJ6622mrFNhPjTiWcKBNXXzJhCmdhxGQ9/fTTJc3KH8nxvPrqq+hUjCOARPMY5KWWWuqkk06yuC6nP9JPO+PErOFFuTJhAZYJrO+///6KXC5yjToyerxdFbtHjfhLArTZZpvJK/JtRYIT6U7nuPyzzz6z3Oloi8AjmpB9YIXkZLvlEU2Si/JiR5jD1tFdUcPee+8t6dBtX6PYvrM+kdmKgRydE3c988wz3TJCxH/++efLIFhElysTkBSiwA6LGmYQkPCzA05//fWXfE9HoxfAhEq98MILHXUiC6Qcz9lnnw1gtqv8RTqtgWTV0ksvLd2wxhprZOlM7HoHu8foffXVVx2NXuKRwJqws5M2dtPNkorDMOeddx41WmyxxcozRsYgmHz//fe33nrrPffcM6WvSohPpEcdcJIrYvQqMoXJohZEPs4hdWTTvffee9VVV9mgUjqC9NNPPxGaffbZZ5tttulIeeI1KLN7fAAjU9HoBWtAZQH03HPPlXNKcuiCCy647LLLhNTMXUeQ5FX5MJtJMyZImFmmTx9//LF0WXWjhxxlwnfBG6/Di7REiwO74oorfvjhB1m4cDktm8VNUQPsjURoJ6tU0nJiPyrDifnC965wwiymz04gJMRj6ln2cV1OJgkI5ZlkbxFXsg2KdTiJv+3xc0vFp+mOeMdyigEI1dSvnSfDSA1GvTIdH7OTiZ29bkFCAevlkESJ55xzzs477wwS7LOucmjC5gX22QpBttzWZUdCn9g9BCNwRx9B7gp+PJYibKGd2qTcIHStl1lgdtURCfmkdsqd7ajJ9bb7hJZN11xzTQ2cYrZelBL85Zdfwr2Rd6GghIWQpDpCQQrTJRiRgrEdEK9THeCpoOZOqI6O3InuouIV0sYXogCnjTbaaP311xdYNhmPdmNri9Mtt9zCQFWM9FpSxzKyj1OIKDjb0cq1pONmYABslUAIPLivuNTAr+IyR2Fqk1m8KJsuheF1JyY23HBDv/yoUeXaN/ayNU5siHN6cQavx6EH7zCxRzpeT6ikSnWa9NtbDKb9XkYSQqyiRFcUmKkssMACbtJ7ji3koDr9Qbds7Z/EV+ZT2+hlB90XhIJgIpUq2Y7K66HK9Im/VFyyinE6Q53CgTAWf6yo4mgN2IAXpzYSkO7ngqPyfvv1tAVOuCDSY+JLBkQ2leBXDa71a/Q16CTb62ibKdhG8YuOWaiIREgnW236EjEOl3nEugDYi2ITOMFMROP8RRSXVDCI1BhPxVda4ETQhGclyuSRofPPBk30wGmSaf4VOx73Zsas5IYRs2b38N1TGGig4pLOqZs4S2PRTf9g6Y7G1A5mNsAUEab0SomI53qseNnCP7388ss33HADCWpJwkwgZKz2IETGnLNmTATB7DFYaNld026G3mBCgAeqsJkRW1JHCIHNWWDLD0WcSQt7n0Ven3Qvm+C3HWkDZdY333xzyVBDFDFbFYkMmQhvESWAmQb1KiHSjnjz78ekQpNitIAhoGH6PPUolp4vvfSSOgkm0M64W6pbVtaeYB4niuLUYztlim5AFRGtIZIXZbvttrNasuluMWtByh6y4EziREUrx27wKIk5ph/Oz/RhxonAjOxilAWcE3BsY45Cx8u83cPo22+/PWBo+TIIWWed+WSj2IAEWSD7GFQSTx1aIl3NRs57FadW7w6ZjsL2sEPUAB320HcSeFjC51x30+GEmzYafGFRok/kQiDE/h5zzDE5WtlLCdzHHnvMSTEV9jpc6yDUCxfCW8QvuXZnEB1lZ1evboTGxodZmAJM6MEO8SBV0JoOJwBceumlVBW5dkPxKDIxZ5xxho7bNYv7EjwU64EHHqBkRkO92ITe+RjD0zs8OHC5vhhzgCQA4yN572aihTPBN+erZCbZwD322KPj2dDpcGL07rzzzo7cp8LCvDPPPJPzLMcpPeXz6JZww+BYQvEu7+VpDVYaHpH0orQCS0L1OQPUZBAQFC5DjiQRC3vKfrVMw2hUJfiMk0yOgx677757STQ/DSfcv+SSS8RvJcoU8yS2+H7qqaeyfl3N3OKDR2UPqReGAiwEX49oRkEwLnOU3YxCdey+a8ycKpHgyb6rGWwYFiwQYhGmxkJljuSM2Ik1HPfwhRKZy008LqfhRDZPO+00AthxFxxpQd0hhxyywQYbtCTa8SYOWqX5HCp9bcgeKpgerjF+0QEALitMKPsGab/gkfYmfQmeYo+k1St2vLTUXlBTbNOQOwTLaEElgj/66KPZ7eLApuHkmXSRoz/SX+UyiCh92mGHHXbccccixa7uMFAWXs5xAp4qwwBzjZu4BB38VeBH+ewkacym+zsDkOvYETpE1VAFxISgyisdaQ6uQUi/8/GHHXZYmMRsX9Ph5MGzzz577rnnAhZrSGu2aaqjaHeOnjqwkG72XsFTLoe9otl8DDtsuLHdx5/Rcp2eddZZwiTeqN3YcsNAASkLCdCCLfe0aZdGSGR32WWX4sdk+XWuhdhuu+12/fXXl3xCRDCZUd6vv/OkQ5LTSkuytOriiy+GUARyLdsUbxoqTeIFKSutQqTYplF3pkyZctNNN9EBxiM7sBaB9fbbb69dyQcaYDd/NmqY03aIjDOjTN2aL+2tB2iV0nCVYiQIolSTVWyOty1wYiv22msvYZWQrGRi5l/R+GTlol6dMXQApka6JbozI2rKAKjUG8DQ3gKP+EBM8fjjj2c7bT1uJkJWQzq83cTgx0ylqCxLcRB1hwDIjVCinmQQKaaP2EWQMogR9pcms3HrrbcacCLbGiePndsq0SePGJMSbUsd9F4RPkgYUqZ6IMUACByY+3KSoPcZlVMgVUyfsFZMl1q2xUm8lzOR6R3wMERD+3s0lIniCh96wcnk4cRFqaSJNLZipkJcLjlNuS1OMk4smwWp5WRWb1wCyQJrOKdThTNPPfVUjfAhh4EJc9FujoTpI0zW5tIujhXHRNrixKxZHlnQaB1ZTqbDbDFOutafyyGeOV4M4vKuu+7Sb7C4F/pETbHUjyRyL6SG8y59YEVkRKO7/Do3NwhW0ueYL774YlgMLzsCYIHl/Fuu5SAuJW19eGuFi7/JAtTuCE5W0IoptDPptYn3/UXSafomfsopp6jn17m5/iTH7AfSJ0Gt2IF/a7cOzb3Yl0t/qUfX/Ur5hOkTSvQOeV9mV06E6ZNMYPe4HratA05Biw/vNjVePogqTw1UZp0y9ZGtLAmykZGqMobxbSM+MFRrKTi19U/jO0S9S3Ur1j19xIndViTdWZJxn2CVAXDMsjBaNne4PnYbs8vTf5lTZW4lbUAu/BEc8VUlzRryyGj5pwj5GoqTIdqg4g77qEy4j5oVBZ8nN998qIyWPskKiXoaihNvbzOCI+0vTqCioAITzrn5pi9wEmmPGeqG6HhuGDyTBWnJHliuffVLcYTYhOnjoqu/NV4tBT74AKqG4mTfluAzTYOwTuBn/aw0cGG8AKjYL4vHRIOqoTjJenChFSfTbTMqZRVowdv8HBJJIqmgaihO/NNAhZ2yxkZ+w73UVIMyljNqKE48J1b2PYhImkelJDrRH7RApB7rVYxQIbJNxMnIOHmrcZV606vyFuIOYsopl2yzVaEz0Db8k3FiRRNxouzM0RBSpVYnHJWFZJiXgXK8HnFGRdKOq24iTqZkZGPOc8DZHaJgO45VcRpp0H3VwIn0WJKLTq0jG4oTJz+E9Q1GcFTONov9bH4ONHKpgZNXCCs/CqqG4rTccssJJerNrdu3aJIdKSo1tpwcsAZ3NTaDsavpYMiYI+jqzaE1tg/JKBH2IfQYjho7/DWGIRjbrmZEWH3U5pWG4kSfHGNzlJModTWxeo1BxQfYFJUHaQ5ULL/px8HkhuIkEvWhnaB5ODhBl+7a6xL+OQ/SBKgYPWLKd8ZfBm0oThi35ZZbknEJ06H5jFj80uMmQEVAJfX97ayYfnNxsqG366672t3gqIapVTa9GEBQ8eHjFQGar4jc4mnTTTcNS95cnIzPR+FOCWJZjHU4v2EAhRVEhESPC1R0yClgf0Lf8i5m3WiciNUBBxzgBDX3PjSVwhdQWWiLZSyqhp+tCM/EQ/sSMIlmo3EySvzy3299ZeYvCjOAQ/NVIkBmx/d65MNJElZoOIqlO1Jim9RH8EmZ8KHDOcuE5/hWpEp9EnTfffdx8nFSzGSGo2EkQ7bCeVP+Uu8udT0gbpgR+j4pZPEOPPDAbC+jgVOM2CFe/xvPPqxQ1YZsiF52MgOqR0cWCRIWAneJHB1ROKWPPUIIQd8pr7XWWocffji7lyU+SjgZt/W5rxj8xxSeg1kQm5nPVI71k2VZBqU6PrJ+0GJ+6bTFVuhWj2iFDiEivJS7Eojvu+++Enqp36iMGE4xaHLtIw7/ltdZUcwi4NQr9hV75FqOO7lLPFX07qyWZIFOCYrNETfDGFbv3SuhQLBnV8mflSI37E9DtHSEI4lTYp+/OeCPlDmR6TyFmZNxvCOM6lhWnWuJYJUK4oqzFc7pUwLsth7XL8DUPUr9poqbQTmewhgw3pX4sL3kXeZB9sGfO/KNBYErDmMa0eKzUblDlgHmL704mimXioNYZvLO6bGKwaO+O39kFWSD436hAidSone89igkhp2EhztURwVIGlBEZgAF7tbev2SrP8YRKdeWbJ8IOGUnZs5c8euvv+5XkAYzDBLcK8G+sDYYFMKeRD5LpNt60ISH7iABDxTgoaBvAAprpplfeyhGwgAYqlH5wx6iO2u18k4nGk7Z2WKEVSrALJPxhZnCR8yiZCSdwcG+EHk3Azm/QQF/lexllnLUs0/Vo8QjBIFEpUKB9BtFG4ouu+pfFPjjD+AxhiLl4p2JjFN2trjGUYvW5GMUkZWckDvYh5XYChW/wPMWbqqQfZUwmKENgYSW2tAeRSXeVWf6XGqPZlS8RXUiDS8RBRW/kofUSIOuyoyCU5Ep2B2uBVpUjSdXUbh3Ba8trhUowkDjAEwFWqiBRwUSoZ3wwH0e0XIYMNYMsWxQHzvd0PM28YyLUxG53B2QjKnM1G3lLE6aQShw8gsqJcDLUejj5Uyc+sjMAZL6f3cKlp5NJSOIAAAAAElFTkSuQmCC;" vertex="1" parent="o-uRExmvfYBmLYg7Qbvn-55">
          <mxGeometry x="80" y="44.58000000000001" width="38.32" height="25" as="geometry" />
        </mxCell>
        <mxCell id="o-uRExmvfYBmLYg7Qbvn-37" value="" style="shape=image;verticalLabelPosition=bottom;labelBackgroundColor=default;verticalAlign=top;aspect=fixed;imageAspect=0;image=data:image/png,iVBORw0KGgoAAAANSUhEUgAAAL4AAACQCAIAAAA5sEaMAAAAAXNSR0IArs4c6QAAAERlWElmTU0AKgAAAAgAAYdpAAQAAAABAAAAGgAAAAAAA6ABAAMAAAABAAEAAKACAAQAAAABAAAAvqADAAQAAAABAAAAkAAAAABQuMDkAAA8+UlEQVR4Ae3dd5CnS1X4/y/B7M+cQNQbVDAHRDGgFyhztkxlJFhCWQZUzFkxh7KMYCmgImqpGDGRzDlnBfYqYM456+8189492/f5zMzOzu7O3t1r/9Fz+vTJfTo86TN3+t///d//d92V//mf/7n11luf85zn/O3f/u3rvu7rvuqrvup15+LVd+hO11/q/Ou//uv3fd/3PfOZz3zhF35hOfQf//Efr/Zqr/Ze7/VeVz/Y15cFd76+3Pl///Iv//Id3/Edv/Irv/L8z//8z/d8z6f+y7/8y+/5nu/58z//8+vM06vuznWVOv/5n//5lKc85U/+5E9e8RVf8QVf8AX/67/+S3z/4R/+4Z/+6Z9+//d//6rH+joz4K7XjT9Wl5/92Z9tn7rzne9sn7rLXe5iEfrnf/7nO93pTs997nOvG09vJ45cw6kjLRyE//3f/92B5m/+5m+sK045suTv//7vYeDBaDrMad5OIn7dmHGtpo5Lp5/6qZ+yN8kMKSJpAHe9613/+q//+h//8R+dciAVCw/43/7t3yTTdTNmtxNHrsnUcXz5sR/7sb/6q7+SENaY//7v/5YlUgTguFPelFJgm5dYY7mdRPy6MePaSx3XSj/90z+tdgq2T7VhyQ/Z43zT9iSHZBVMCeQ66y/+4i+Cr5uRu+qOXBupY82wDTkI//Zv//aZM2csLSWK8NmkwIC2JDkkpeQQTIdlvVLHqeh5z3veK73SK131iF83BtyubwnKAEPuQCNdAA408kOuWFRmCWk/kh+64A0MrnIL7JgMj1jm3e9+9/voj/7o62bkrrojt8dVx9jLEmfbX//1X//DP/xDMZIZ5YqzyzRhSgtn4YljK1BNyw+C6F/gBV7gJ37iJ97yLd/y3ve+9xD/H3ApEbh9pY5skDc2pj/+4z9+9rOf/Wd/9mcWEuuK5JAEpQUapdNMvfYjS5EoaNal1iSq1NFsWXKj+fVe7/UivpSoXTneLFdnOcfXyXDl9J5A8u0odcTLRiNvfud3fkfeuJVnqZA37gVLAktIQRTTStmDSxcYb5iiAI8XpSZYkWE2PlfvL//yL3+CSF1GluwZ29jZ+Uzt1M8Ri27rrgjc7W538zCO8eDLaMOli7odpY7MEDUnm9/8zd90RjHhCnHnFfHlrXBD5vYAZYyaBCW82uqyjoqudWu79NidTALDuGky2JEV3rn6c8HoTpWmLlnyYi/2YrbmHDGRYDRvvvnm13zN1ywOJ1N9ebluF6njDo0HBaJpSbBVCZlhbmkRSsCaN5otMwXiwGQq6LgU0zdR6nvc4x4v+ZIveXkjeAJpFlT3vp/1rGe5uSBjNAlhHmul+4u8yItYe2SPjAlpVsiw3/qt3xIoK9ArvMIr3P3ud7/q2+5VTh3p8mu/9muOw66A9gd6b+mWLu3xLSHqAHGUE+p1Y9I1g1fG1Azurg8M4eb0G7zBGxiPoT99gFUywH0pecO2DGPSvot76yXvuP+iL/qi4gBumZQlAE0TDM0f/MEfvPIrv/J97nOfF3qhFzp9F0bj1Uwda8xP/uRPCqLQKIXPGIuOlApZojC3sGoCapY0apiQ41UEhLTZDf1bvMVbrDSnDBv4H/qhHzJVWMu7poqaUyzhCBhgYiCAlD0ASSO30Ded4nKPinfeYnu5l3u5U/Zi1F2F1BEU+7f7NELZYiNAlgSRUvSKUZkED9OeJbL7/XvvUShlDABN9QCaWAyAaa2uF8ZMvec976l5+sUw/+AP/uDTn/50JvGuFGEwZ9V8UVilqQBsTP/ffgmPXXzAcmjSyOWn/c5NTlvwTTfdBH/Kfp126vD227/9200akRHEskFtjJW9EO6niFosZhYKKEzJMQGCAasL9+AFWqmXBGIRqF/6pV+620JDeTqAa8Zv+IZvsMt4hciUSOn4AsjN8Lkj0RWwAohYzRGuNbXEh1O33nrrb/zGb1i83+7t3u6U75WfauqIwuMe9zgXFC/1Ui/VcJqF9pTCJ0zCJxwwagEy0mVVXRPcTfQ1C27stADIV8rOejVjPM36T//0T7/sy77MZaPjS14wBpBJwdmZVTDZaT0WBEWuyK2XeImXkHm6wpDgWt1RmoNqz4DdsnrQgx4ksKfm3am+JegJlGXWbZWiIy0AotDaoClMnU4gda07TrEWF8BahDJpdTVHI9AlsoRrqi11rrZOLbIUWW++9Eu/VN5YIRjGQZZsXGA8pFrJFwAMuBta6DFarV2I1ZULaJIJ+eIv/uIS65d/+ZfrOp36VFNHLMzClhmhkSicbwoWLLkiEBvPEWwwmugrdYExrqk2wxA7Akcrd4x2RV0hDO8e/ehHu9cgbzK1tB51kKvxGRzliocp+y0tHKxJZkuyrNKrdnZ0HhrhpwCcauq86Zu+qbeG3dJwM4O3ivFupVkn5cbtQnxgAk2I9ZJGCIEKlqn3EXsTWvF22Eb4lWs6F/d2fSqYwQDOrhozEiYf1ZUNHoH8gBS3v/u7v3OItp11jcZxsOVc3tz3vvddhV9p+PTOOr/7u7/71Kc+9fd+7/eEz+x5mZd5GVOH563D/ARPEakwQhmgHjhgMABhbU6voQc3Wo2Ezcuby4hPoVhcn/SkJ7nvwobJA3r38nf/qdzYkMEcB6gRFwQEgNabGDkI6CAoXbiDwISxmlLnvZSv+7qvc1h276rojYorBFzx1BEp53+HOBcCksZcUZs6ioOeSLUICxwPCx8aRz+bt2JZFqC61MHTBFTIoUitmSgwoDog+BzHlf375Cc/mYO8KFGYnVWaBpuDq1NMkQcZFJlaiVh83AAzwTQ7upUZf/RHf2TuOb15iGHJESjfDH3v937v67zO67zne77nLbfccqVvGF7Z1PEa6Dd/8ze7fypS/JQKIqI2inbu/fjsVZtBFSMHTMuS64We/DXDGgD0E+VgtfFQK7oCRqZmsJT1DCjeK1pbEp7xjGfwlyNUt7NkG72QsyqEXMkyDL7919505syZTvdxCYKCTF0miaccHaR7Zp/xGZ/x6q/+6u/7vu/79m//9pOUl93l7c2Sy6XAgcYh0dctXDIhuF2Yph6gwNVMu3CHdLNLUCxOCiHwpBmSwoFlCnqZgUAhxNoOA1CLu7rt7PGPf7yYXi4fD5Pj1t+jHvUot5HYyUJkskfd6EKGr0sNn9l8RAZmrcXGycbVmWYur1ziqaDHC0gy3mQCZJ7yhm/4hg972MNsYTCXvVz+VYfP3/RN3/TEJz7RmBnygjIujQPwEztI/tcFuR/buxjv/W3t78RdjCBF0FWoddg8A4/k5CAYDF7RHLymxHqTN3mTU8gbXpgwHC8h2KA0wLqyqlOLZr3MEysRsCu5CNU06sKIjONEKQkpRCtjcVuzJ5qC5pDgxch3eZd3+ZAP+RCTcNgvC3CZU8cDqS/8wi/0OJO3bUyTE6LGYqOrCESjC1kZZ2oigGmeAYRSHO3oImsj675wcV8Z6SKcZMjpzQDN13/91x/iKwfYrWzQHZDHDPa3QsAwL++ykMGyBJe9SZcpwWCOe36OeKI3wFieEOxpEbcNjS5KkX3Lt3zLL/7iL378x3/85V1+LufF+fd///dbHuWNpOFGvnEp33gigqID0IWgrnzWnAIzSLOnCSQXW2kcg9qbNkGsGe/AqS6ZXvZlX3ZYrhzgEtL1TvnBTSVdvM73AKEoGpBSxx0/TXecZYy0y1k13wvL6heBxWdqmMSmLmKMqSbz1ltvfcQjHmErCHNZ6suz6nD7a7/2a1nGaA5zI+tzSTMgi8elCeuuJ2jqVRM1lPB0uUAVUwk6XQgUitRo9CLbx+1VyHTJuV1Flx3jlm55k9fks0fRVBgGUw5lnrzhjtrEsNis9iDQZHxITXJChpmuyHSRjAa+MmTNOo9EvH75yEc+8rJcfF2G1HFH4Qu+4Av8ToCrIbYK0FjMmSmcCT/1Lma6AHrxCkRwdaG3vFuKhUn2zKa2PzRnz0+4FHtcEmSzzc6zs1X+lYCZZNEVB3pp5wLz1GzTBQmAAYdxxLGC2oXRGF31EVbVOzSkbYjrgle4P5TIwPR65Gxn8CzIJdilv61xqRuWmwoOYk972tOsisKRlQxVOKCprjl+1lQP5jBgQ6nJf3kg4vwXcUBKR1FAShO7n0V3NpyeYR2m6HLhzWk36GZOs01hTICMsRZODjFeQpsGtDv+lzrjcsARhq2UQwYZnN7BA7JBHH7pl37pwz/8w10Cr70ngC8pdRyKP+qjPsqDIW6LSHarjdbYCiiHjmPchKPxbuokMJkJseQYA0cKcac3FRMs9DQqzXgAAnD3YY9jxolp/CTUaEmvet06GclgNaS8cQkJNuuspizceJ3j8HVV79JMfApX9QQhMzSLkqal2gMvE95LZyf2FOPJU8cLKJ/wCZ9gnnXmYFz2ZQ0Tp4SJoDrMRGEDFMf9iJ2vNjQ6jIG90oIPUKhLOMB4UKGJS5e9A5nRSu+Vq6Wy1FGcXehlAF20K0yqMENXqQMwDRiZtdm/qcfx3JnewW+AISCzIQhYVRgyN40+7uM+zlM2+JOVE6aOvHGxZ96bMbuKx+K68i2XgsuIjc+TJvArrFnUog8eCcajwYCnjupSJHUwDZhBso/g2rX2MmLc/s4YuZIZhSIkmDG6JFapnM15lMFrvcZnxQcfZrbeIgaIht6VGJ4ZNgpmyJ5f/dVfXXuPD58kdZxvPvmTP9lpg3pGbJTBZGse5sDAK7CGZmCjO54jnhSJAGaAemlveAAwUgQwEkISwqpTeLvUjxbSqJQllE4pmaa5hmisZT/ejY+au5h9JUdVcakjmhBpsqFeep23PvVTP9UNhaNkHdJ30anjDoR9yrM320qByKwJVorG2+Iy2sel8WrcQFkZGs0YVzxMBAH0ThMGJcPUkLEH2Bfuf//7J+3K1W/0Rm9k4ZG+WVVM1KtG9miW4uAWQoDC4M1UyZG6wJV92rNT6BzuNl0R0DIAG6aEV8OY/B4myh4LAcxFlYtLHUvcZ3/2Z7tbarOkZvKXiVmWrWPx2hx4tS/kGhGYCceGZfAkyI9uIM04DTGygVmlaXfwqfkp3E12xeuJoygxgGGKELGWGXldlNS60NjuOymOa2P5AHVtmvm4RvL4MFERJ9Ok8mG/5cDp5/hCUF5E6nDY/RvfEHF4YkEEWIBWzBg3Jk5oVuMmHNEPzcy8AaZrBcwYu4BiGDZikSWTYXqdch7+8Ic3v1fKKwF7QfiGG26QPc43irBU0gUGwJdSXGBVThWNLB/MbgSwD2VksYTc1EMcXpNeZTVJ0xW7PcsjW3MMzTHLRaTOE57whB/4gR/g7Sp6jFiNRrA2wSvLwCvNhAyyiExMA8JPb4Ax6EUWTSXJAWpZJS7qhz70ofe6171G7xUFPO13u5YKeo1EucIYAGNSLZuVQrd2gRXu53JXmtOcEIWZrCIzxuoDvTuMgBl1WcJ//Md//Gu+5msOZD8QedzUcQ5/zGMeQwG7+Zz1Y9A014zWOyqHMqQaS2W6NMEiEuZc/97fwhQ+mZAB7o5IIF0wauFutPQaPF3e0Xm3d3u3seQUgDd+4zd+h3d4B4aJhkJjlquD1aW1kQPveXguXcbTyYy4hqb44Jqia+QDotzUEWBJGqtKXJgsBFibv+3bvs0rVuDjlGOljl3w8z//8+nY2D0GpSm7Q671xo66xuGcJDlA70QNJvxGWs01g8GQJU2SJY2mWt7Yzjc2XOmm16wsz7QrWcW8lK5GCmnWrjVKzcqu+/meqBXe9ajeXZoVA8aYSYX9S77kS4552/1YqWMdO3PmjAlNzSguc2E4mQVZDw4T5aapa82MCdBKHHKtp3ekpRcNq9R7G8C5W3ACYU4riL2eYQ3IsNOs/VeK13qt1+rE0y0cVomYwk4GF4Qyo6ZaydPgqXcjFiWP0FfHWHPX0+kdejRMUoYYbI55mfWLvuiLZPzgDwMunDqeazriWM026nclIhiX1t7wBWIVsgtPsACFNZoVHq45CtDFbUOiljF2ioYH3vj5+G015nRgRrpQzyQ1qySQvGGhwoYcLKrgcQow+RRyzZshm0ARBTlOrfAgB1h7EzVdgP3E/h9nkp/7uZ/zhe7adSB8gdRx0e9tinzL7RSQRffgNYPDZ1YEPAeM7rVr4NgnZESt8KaZ2Hhd2bLHwGQbQDNL1MT6oH9UnzLgvSrDwDAmqSWQwgaWq2H0tpCPYeMa4zelLsihAQRDTriIGsZ0rWTBU68EiVIzTEJ7o/yC29YFUsfLvC76SeT/eLgBMmXsqBdyyCKYevADrMSQrFemdwOsxMLkfmgXMvAZOYqMjZ9/27CfWtOC5zYPC2kse3IKRlOW2x2YqpnBA4z9YTIYcgOMIxv2IRuWMGkf5NERdrr1avmoOBA4KnU8qPqu7/qu9S4OfZXMJRHAw8qYNfgwEW/qaKojI1lzU3QRXtdIQBMe4FmjpdHebDAUQAkknzx5uPHGGzcCT63pPYq3equ3cu+AqUxS2JZ5kHZVS4UyTm2A7ITcGLwbCgQNyhpA8Mq7dq2KNsJrIrbwPOMZz3AP70CCkIemDlflnTmNjizjd4SUC3aNuUOZY4NfgaEJKAorwfCyymCY3DBMtSPsj9Fehdf/wNrsCBvJV7r5AR/wAW7ztCimi7XOzl4kZSrjmV298W7TxAtTPcBq/Ia+JoIRvhIfB25vfexjH8v4w+gPTQgvSkq6dmsWzPiBa5I4Juo1WtHobT7tE+5VKHVlQSyQgLWOZTMLI1hNJydRo1qvl99oh4kdgZcf3vVd39WnJCvv6cO+kvZo2jAwiXl7pu8fevyiG2PAkIB8mUDtU20XYMjsRzxxAwSvXSGFYgUKL8wmwplBeMOXnGr7qU+6fBi0Ilf44NQhy90hdPk2DOPAYAJyfpd+Q7bb3JWfil38qih1OWxgXuVVXsWvZ3h3h//mNIynAQ9+8IN31Z0+xr1Bb3O6x9MOxTwHAJ/1GMUJZsDUjaJmJWcLCAwXqo/wBTGaGJHFG3344S29EAAGWVMYIX22a6WcrhU4+N1k34f7/ML1C/6VejUCPCWamiv94AF6j+7aeKWZY2rRPNCBkO4X+6W3r/7qr/bB28033+yz2at4YbXro/WPPb5N81WUp0WepjmcIePgSlxTlCwM3azitTJkhXeaQ0+ILs1dTPgh0NzVm1iKIl5ZmGHh+Zmf+Rk/Vb6aGnxw6nzrt36r+eGslNZdtow4Pn5DyclVwvi8AggkTZ4AdJUoYRIos/ns47Qbbrjhi7/4ixFc3cPNxs1p3njjjdaeMe/nf/7n2cn4NQiI+cjT8kYXAEvZs3o9YgvXNHcBBAcyogw/vQPoSqwMLrw+dHnzN39zzY3888vUdHgXR6L1mLOtsa4EgbmnUBYeUAkZvOnSHD8RaBYRSAVMeCWMOhZd9a4SwBUs7OzoAHP7zJtzxp43zz3uUic3Iwh2whDz/QCfHZoJyEo8MkNWnx2G244LysEX+YSDAZteSNFOmtjqddj1EqrPPEbjAAekjtvHVlRSNrbCVIZ5BXStzQ08jAMgIL+yIdbcT5izPqBZCWomx9W41Ln070JW+acAex3MlRfjZ5xyaqIRcFi9a2HRUNc1wEq5oVm70r5iBsbFyB/5kR8ZzADb1OGPZ6e9yTVEAZOtY8QKbIjXLvDKizKMesOlOfFqESq4kIAYhwXSpaMxUAZ5TQBu+cgeR4K8K1YsF6U8hee+3UoNrkxkUILVmwAmJ+TIXJG7LDBHF4qcW3xF30c/K/E2dbwBeOutt1o2VyLwmLLis3J6pxnNphnZSpz/1fCAKTWFrNipdRG4pqBeSNdWzp7or6FiS/JLvDmVRzBKqdONTXmzmzp8LKoFSjP2NSzRHBb8iVIEUw89YOCICff6qQdbw3sWv2k/9alP7foWP/tyLxrNFUCQxZB72pYlpObUCOIdDAAGu67qVXI5AUO7IoIw8Q4ZdkW4jYGu8NdQ7YdqzU++O/SUNHnRbNlPm/NLTr7v1vwd5MBrEJI5XUMcUOR3kTCFN8YE7t7guc2qY/2fn7/DHM8ANY+oxwg0AwM2csas8IKlDEtIdXqHeDUj34r4Pe5xD+k1XLd/II9kvFNa2RNGEDhS3WyZsAyed5DoRYD7E6WCPCHS3JRLCQuxDss+1Oyewoi6Ter4KNAvbmYT3Yiqh/o4QEavlIPJt5rgNnuUpT9MBWYDrE3EJMAIqCnrzRjNVd3tHM7413iN13AT3N5UWkiIKewvRDzNcU2Dwlk0MNUYBVCS5S+awrhxP1Eb5PGbGUC193jc41kZb5M6rsE8TaQMRTyRpn7qBi8yBAMEayIYmmlyXhliALc9eKIIcRqrRzUgmQHq4mt19MG5p7t3u9vd3G3jGLJrqHDkpptuuvHGG42HqexGsxxi/wQHLDiSI6T4cFwTowKp7pWBTqUh4ZW90O/ProDgJE8NmBJXNSRguhKrCWDP5neZb5M6PmSPGX9s6hG0C6xq9I6tY+4gN3kTo+s4SVD2oESDcU0vZFNYUt6ItV8xUvsi7JZbbrn73e+Oa8iuCYCPHke87du+rQngysWX5wCZUYRzB40pUUwGDxPSQHr8bh9BkMtoGqyCr94UBCgTtalHwhDgTWAyRR7GnqUZsfr8fLX6+YCcNdN3IJAFa1d2wKwG0bSh0aQYnh11FR0hgJ+gTCyykswmnCRjoQKAUVty3vu933ujaFV6O4f9UK03qnzF4uqXO7IHoFhIeJ1fgOImGgrHrU+CYKFCJmgw0SADBFfD6B08gUmAOU5BPHIAdDnPWCb9qlrs51PHz8+YzccciRGaFM0pxn5gvWAOsCNYnYosEylRMPNMI5imFAJcQ286dr06YUIM9lsNV/1fMTLyxMXC47n6h37oh/LOkVktgYSC702qIln01LyeLUyXF2dLHfDYUGyLfxFWK/ABKImKHmYYdwFChgVMl0nuVwYOSB0vFBpFFBiQJguwDmTi6h24JnpAxOpKXWyt1ByD0Jg6il5dpYgIRgCjEKsZAXoAI91SE/R3f/d333X42sJ4NuQLBB9G+ozf9i0JOCgOskQacZ/veTRAswux/aH4IAhQC5G6UhiLHrHIEqJ3IxNm7RpGZATWBRb5M2fO+F3m2M+vOs961rNYzLI6NnXWhCSrTB9kADXw6inwWCCFQwHjHTfAKIVAmOiFh4kFfmBWKfDkuAnrfPNBH/RB88MAGzuvuaYPjX3RbOdys9/lrSAUPTMKUMQKlFoRBKGwSumNGBKZJrw6gmEs2rrEX13Zl3T2FHtYxBKbnGhgJMnQn08UTz3Dkj7dBwJDcNaQ/T8szm71APzXSSW7Db8aDODPCBEFvDkGjyAWgALj6aYfrXU16+UKUZ4F80DbrkWkQ5tfnPmwD/sw77q4m+9rST+55QWSfBEZwH6M9yYPQN2RVJzHX3hNq1ExFzeMUwOGEqAptlhW5AVhescqxOdTx7WuPhJZsNG00bE3pLdVnN15oiZHLScUOhBzA5JYC8w+93m74S05CGJHD5PGzNCrSxEUXRf08Bol4KAXT1v1uVno+MJrdaEQFgWNAlg9xS6fcBU9veLc+QmZ3iFu7CIY5C4Q2YonxBMJliTtbOpoOzwTt5GouTIH71Pt4QGkrE0uMV3hsCMwmhIl4vIDC4Lp2o/DXe2j5ID1KiMTmZPjL/zCL3jbFdKS4/um+93vfj7Muz6WH3cZvFXn32i4qWZgTK39+N3F+tHgqQWhIhUEQWyFCGaiBJA0UifeAohxL5T7P8cp8slRl4UJxLjKP6vm3MjWNVoIdyfFSPXQ8GzqsAkqa9QHihtlZI2OYWEi0eqGnyfgsYzpwXpLoBygCB5lAvUSAgmj6KrIQkhFZJ+xXxx6/Iukd3zHd7SFoVztuVZg/4nI+caPBMgYLoiYIXHZtQ4tXzRFDMD9XCsy42YhEjqALkUM9QLwQu5H7mycdUGGSUIEI22AYSQnJECie5H3NqnjJjKUvrFvRBwGEF0XQMFbDeCGmdHkGLsdcXSVXuPSSACgjACMbKTVVMfFbl1yyD+c8g98pY67O9ah4oXsdl646S1Br377FUgzljve/OJR+ZHxBW1CpxceMQygUAPgK0U1uN4wEZOswMQema7jlLEBMUZDwIwYz646RqKrmLAY0B0oesUPvALBHJBAasrYHXIly5RUwFdG7+p/XSghI1BbnBXC3VL7tE/7NIdol11X939RHxiuDdLT5cc+9rH2JgNpgRnXxruh5yPvFDQD6y0CQzYAsoKmVshX9CYBBsGwp5eoMCNkF4gyfDCBNc+mzn5enh3gkZiyjbgDTU/o0Nfcd2GvIoF8QFpJGPUjPKVtpSjbudSK1UtdLOIlXxNMrHUe4KLRzxv6ZM7/0fCBxIi9/QDuuD7ucY/70R/9UTZ7mZr9vNiLzrmVnheKyCDoatT87mq0WhfiYqse13AFT2+xUmMZ+gGGEQC5GrB2DZx8lBmgruv8MTnU2DGceAY+DhA9/7MbSxGJd7SsimIZDJqCRUjHxv3dby+BJo2woIeJCyDQDpum9YMe9CAfRVys2cdx7cQ0Msa/yPOfBjZJk0Cm5jIXKpMrvCtiQ5njmquDyMRqzIsGo0Lg4IcLvVITsIpaiXdhxCPwbOpgruyJPJfFcWrq2pUyyH2O21SIOe/c7TIBzAE1in1f9s5oG2kRSH+A3pGMLLi4kMlu2WOlUTdxkwaWPYpU85MuTqAf8REf4QyxUXT6TTfv/d6DnwpxpnG0Zyc3FX6p+cupTgtcqzkR2MShJhrRGJoANSHFBFy4RjivIasBwaQNfPyw4BLk6M/+4ZLCjeNLiXLcyw41IRmnZj2xAM4Uo9weLVHmKhixLjEFFF/yFc0ANWLP/0hrBeJJXdGjhPd6dVvY6fzbvXFnA7jL+nmf93k+3ffkhJ0srGYwZ7kgXZSJCaRCCALENcHCqAww4UIwZGDZ07iC0WBJMkVgdU29GzuP08SVVY0RlrOp4+pXMSRQEV1QXGTZoV5LRpPAVvoAmV6YwBHD8xwNnyFRuidWlsBnIiBLChzGKJNJoKbzMmJd45v/X+Q2lV/l/MRP/ETPiZJwyrWVz6+9eqHC4td6wICiwWWWN5aDNOq84AuaTTD5qKD0dF2NXSlLNJWht9JPdianvIklYnVmqIkddQFJG8oA8gGl6YzI2dRx2le8AbPh0UzNLj5z4QHEMRGc3DRlVgRg1quVGNVJFkRF0zYU8WgEVMSUZEWTHHWiABixa7YIhUfjHTyH7s/5nM+RPbfccgvJp1l8QuChJsOsNwxjORcyPmvZqZlHAWC+sFydF9V6sxzgACA5zDS18ZqupDUEkISQhiuBmiMQDaSCDDKaNTK6NPUGbLpktiUm5PkNC5YOHq7U4NSsyF2h2coUQPTq4oIxZ3KgWq+iC4soqBEL8eBHL0xRiJioZmeep7EuQzJdaRRc66j/CsgpN36QnU5x7W2fokv6tt6UN4bNqOfj6ggMRwaPUe+YCh8MaKURQ0Hr/hbG6APESi+MOiHwiibtgLSog0fLBhilK54EHs0/gjybOtR4yujl0xmnlecIeHRkX+ykUQPO+sxFUKmp1sulomnJ0UQQC40AhZDkjCJAZHpnoZp46S2BcCHTZIkFwFzxBOMIRy5Xl1+ykjf0StwWQpYQ3qacX61DYBaqEVcHgLEMkpswCozCZaspafwa96c3YmQwA9MiPoVoX8ZetSdxvyCb5gqf6z//F5kTBeNDnU0djRtuuEFdxAEpBmwKfl2syb2VTFexqIuta2hWmMwYrQoKelHArlg8SiZIk1UeKHprNn2xk0YCpF5NtVDSSIIaGQ/B0XgKZjj9D7p83Hh0GZteu/FtOXXew8p4dU5lDKtgmM1+dhaEusAKL7ivC6DkEQIlRnVkHgA0irq4AAlIbE2wsse5H5PcrFl9IIYc+HiTM2TsEcAIILepE93RNcXDv6EcWwFoaqKJRb3Sy5Leou9RH8sQ+E0at4a9hyC+ssrKbCTcEfFgHyysJFhC5Eo2JBOxODYko6Jh07TMevji93tlj8VgCC4vwH7yvZbgkJ4xDXMWspZ51fQCKtngGr4pZFq7hue+/aiCwHs83sd4znOekwThEgdrjzi08IizLpRSrcgnVk07jALYLZGFH5ZBsnBFErLOvfOp4yas4w4pK/Ux4bjUpNMHGK0jcICcRClewm1cSx0YEXHX1VWJN7n8i2Vv72aALmNvTougm34udz1xw6UgGI3yKRvUiq4ZQsvAmTNnvvEbv9FrMcd06mLJvvM7v9N3AfKGg0rLISEs0ZRG4FaRDOaU4ZcxIuC7Dr896FaCz8pasdLudyOI5bU51isZ5CgCJQLY00IFaVhIVuJV70VhPw71ggH7uAuP8kZOwm9cfmDv/D7nws9jIC+f8nPfgD0LAmDA1YDglWyQgJU3/NRZE2PLibHvSoE/9QLExbWeuLiu/piP+RhfWo2EABfeBulpT3vas5/9bNKSoCvVakJq6gUbMEX0LWB+S2VekdyIvZSmJeEjP/IjDaqVQL5O3pCZa2rDpuQ+S0TgpptuesADHuCXmnZfsjYQ1jA+kiaZumjPwWRyR5F2CMbfYpgjwboUegOmniiFQTDuwxSxVR0Civzfa9vCWfnohsc4eQfAcK4WcDVv1UMZPKKjr7mLxBXBAJTKVPFt2Qi/0jAUgdfs/RSBC+wDn2sS4seOnvSkJ3kC2mFotWo1pq3Q/igjb775ZkOyDu04dSmA3dBjkMa4c1tOFd5qTrGKMVZQ88HTEid32bar18rqma69j0BXNLiSMJTFyorFqcYrTPWQAWKUCsGalZWGYcoQAGoOhli6LIpf//VfPwbf5TM/8zNRVKyBUkdy1cSwKecIt6kAH+UQsG9gXQMH8IQFZtLgV3a8mgZAUGxebg07/fhIe4gD0LgqvP/97+8jXNeGDkNmfD7rKt1XAJem5cGwYdlIu5Sm3PVos0uqDh/pTSN4rJI0nHrwgx/sQwgerbNxDDAf/EdVWW4p2izJQ5NkMSRcuEZOaVHwg1FumquQ4KFM2rDUm3ArnJ8nW3/6/vxCgu4+97mPDTWG6rSumAvC2bFbj0BdTOR2wqv1riyaLJZbFmQ7l6fiZ86cOUy1Bd/ltxyyC5CMsQJWRp2VxriS6Rd9Z1YdJvOi8N/93d+NnnCzjkZw9QhhD1hy+2VMpr7N27zNzN2hCXBBYL0xhzne0riJ0tCHR3OgqHoRAyrgjVUjagCUAw8QOy3iPEjAbVLH8JgWq/NHKFu7wGvzCAvqij6WlXG1LEoRlM2C7qLXCrQSrLCbtv4B8wd+4Ac6erc4jwpAmcR5gSbNInHp/6p5tNtW+t1F8qUOXY3l6A0wa/2jE7e2j/ghKZuCmwi33norr3vsdWAkU61Lyc0x5mgAfQS4hnKQgwEMgTkmnmq2eSy40twmdXwZGt2eUftFIEymYoFfCU8EYK3XZgpGfV0hwauQPI9SV0UzGgDVtiHFB8+f9VmfBZ+cA+t3fud3/tiP/ViHCWR4SUMGUKInTfZoOn4eKOEESEccx7KiRLKITZ07ZCKwScnsseRARV/+5V/+wz/8wzYp+Y0Su7oS/bnW+b+D3whM9RigFxzNihSozYij4ULLZ11xoZQewdW3SR2rDqPqSFNS1CsPmlW9rrjGuJV4lRZlxOpNoaUyLASy2KgoJqI3ef0j8V3hK8ai6nUL12jpWruokzpEuV9inbAPrr0ngwXX+/Yyu42DilVOTduo395+67d+67VrF/bbR37llG2GjTSOr/HcxEqzWIVfKUnWDFPvrq6VJnilIbnlMyRR3BQ6yyGrhvJ8TqB43vOeR9me2iVDkUIOQ8DGpqFfyQ5EJo1xSdjUsdc7otA4oECqvfti5Z+uAwHZ807v9E52N4xDEKw2KuQ4UlyWPeu5z32uJw/Gu9TZ9csGesstt8wNqrFnAxibr/iKrxjz9gZgWdSHGIFCS4rgBwPQjHF4A4Z9BXRtsnOIk5lALJHR6IKXnSPkfOrA8nMYhmIXGB27XTB6jyZIRc5n5SYQkDArsvXT8LiR8+QnP/lAvSvSN8XucLpxMu5kUmKrXQCvLCeDvZpufzQjx9pVjpC6uvZv1VbkgbAX3YmyVZWCE8Dis0ZpxeTdYJIc70jYNNGg30UeaNUqUALZdpWhPJ86+rr/UV/xTQ14pJSD6gojAFNn00gPPwTwiV3r4i5kRU1zjcgYI3tIszX4/fA190fXCtiVDFhkuBS9iQVYdVwh+86SYSvXCWAX0sye+KRlFLlQcjS21V5Qsg8k4lojA1MRk/3w7F1M7RKswtHXBPC6MZr414QfsiKjroz9mohHVzJt8euSfz51opY9Ij46kpgDq4nHgfGuZOxIjloINlHQKzmMqHEth4Y4Iehh0HiFavPzUquWgf07I7ewLDzpHXxNueUGj7vSgz8BQLhVUDazinkkcJmRiXLecufmOC97OCc4a/MdY74noQASCMlgkVGDc0E9MRylw7gJfvgD66EcIQMMPRpZ0fXHIM+nDhQKZZIU9TR3xSUCwTAOZk/KOTwk3th5q+w2IUXEAACEIyCWhIMRgBEYkuNcH2HpX45zJ8OqGaaLFhNoPrNfCY4Puyx3ojKcpJFZyXFCzFEG6L2gQHnj7gN2lGVGLAksJvC0FCV4SGWAmmqM4ZN2QdUR7I3WuSUqTEMPXrs2Ms+njg6Wtd4MUU0iMiu5a030NFd4gySwMnjNFaZ6MON8LFkvcNkA8FBwkxAjagU8UHTXuKst+OSrkw/jkmGlv1jYAZnwDBvf06Lpu+b13usRwqWODIuRtAD0gEpIMjU3BKvYCMJkTzXMBpjm2kW4ZrXwoqlAthFZ9iyxmpXzqWPw3E7A04lnRJSAmgpZsY1oTXBFL+CswnMwgpULATkJARjFBnJP+jKoWMKgDC9kiibrbRM+tk3IETWPXG25lzWS6UpISs8cfof6CLHTJfPYuefAObHTZclx49ixdzCHAQ6etmC7VXIILES5rx7GYDUXEEcwwJAN0KDs1gZUGTyNw0ImgZoRDFlblUPbem47nzp4PDQhcU/w/laVxHSM0FGTylUxGNkQHAjk8NRoggMKRIxJXnuFTBONOyXPfOYzD5S/QXq0YkLvGkaIOST/Vvs3vBdserhtb80kNfosBBB7zJcSbZreM8GIJXaAQkiSMwM8vdMFqfClAo5YnYRpBoRc6yhhKlQoRrxcAcCXEoDuOY3M86kD1f/pkDctPLElCJyVAGU1ZWQB6h2CunIp9oFXAEzLyGQAjLJKBg/GNuGVnU3vgU0/UrnuWdGQY0GSOk4qJ74xyGBDPhvNnrn7BZ773tXykPVAkzZIK2hbKi4CJAGCs7L2IwBuIBGsvUMWY81VOPymCRNygKwNOdpbOKYLQI5aJDMgsbdJHd5Gx1b8KAiFSRY20kPGvKmzIOQKr5jsU29KWiiqYFnDlLQMUCvH3Gtoee3Xfu0ZG2JhkmB6uXh2Ps28i61dXtlrpCBpIzbAixAe9R/ngIze5VUxzwDmBSRqmoWlKZ0LaiUy8aloAnbrkPBHFI4QiJI9U6OnGkaROiv7bVLn5ptvnlggxZ+Ifca91MtWQJghCBh8vRuatI6Emms99JAEshgw9HqH2DZx/OtqL3ZthNQUKSOx3qgY+ccB5JzMEy6molcTy0gZSey97nWv4whB4x4BrrFwuBpITV2VCbJm+CGOYJoERqweeIDh1RtMV6XdqlwJg4Y7YCo2Tt0mdbzW6bogifETnXr8dBNNSgRjaDRTr/iQ0asr+RAZzEq/aQ7NLt6M30WuogZ2W9lHdIiVgq4LwBFOubk+lBcFOH1bXZITI/lkipvTsUl4TGlS8LCQTqBIBo/APU+WAl9rBYZ4F0CcZMD0skGB55RaSSY3wcadU0eljhD71b7YypWkw4iIQhMF4hU+6akPM6bsAhFXJ1C9AjXVIxawNkcRG0SchbtadjEuXrzwa88iTW/Zow5Y76zv8h6B8SqWgFh1hDVRCRd6VxvH/z9LhHAHb+aNxoKwxmRvAPYvXwoLeIITMLwBI3CAwSd2xbNBU5RENS2I+VKQ4e1Wm58Quc2qIwRuRWAgRdnNHsgWHnL3SfaqDBqzBhgCwOpkdg9meldMyJUSTHKDpGYkD1fVR8A33XQT4nhHTsFysXYE4xFdXmxi5NgDCKbosNf/DpM2vENAcmWNSdEgP+AcyfnYwkQfAWmDSXIs4EwNAM9mQvjQDC8CBzv3GlxYJKf6NqkD5Sdq3DhJtOFhBGRSZFJz11FDGSmZm8qp45pmzlQPcoDBMz3rw9ScXgCW9DqENlnHjCMAx/+I+ZWQ5ECeeMMqFAQmqprB5N+4fDZwhFV1FWqWKIRkXnLAaNQVcASaA5zrPLstDOUwoqykDhwwdappnNmYSUS15GCRW/e///2HJWDv7v5aPPe55z3v6SFR/MQBcKIhPUp5Y6EmejCkI1vrKDcYLGGYC0aTlmpdFU29FTSQ1QPQ62OlNX1Td1jtpsPc3SFciRJgPh3GdTTeIYAXI2qIIa0607wgILY8RYaRg4WU2JDwqSgyNWE0EYQsUMEbzKp9CCDB1ZR20pclVA+7XnMDJjN4tHtnfJs6BHm5xAsAAAUzoRSs+sCsb+TSlzNqZShXmE019RLYCgmuTFfh0Cwc2Y13msGU9h7dOQEX+OtlTYcP7+jwiHAFg5pfRF2A+ZBuGxb21RG2kWbN9inWIUwHoLsuwavoJiHDNCcaYLo090zfL9MLCI64JjkDjMow6ukls4C03lA9vTBSByVtXsV5wAMeMJ+aj8DthqXDz4KKdQqqV6FMTC41sof6aNIKrmhOwQI5TTAMmau3ejfNoa9LwiFIHaC7l2eVXeiPADWcREUbIC7MuBD3wf2dr0moe39A96S51HDX9WCeg7CO8Jvw5u9EA1AJj3hWiPAwSr3qgFVVGHXIADHpzpPRVBJCoF5wF1bRc+c93uM9VoHBB6QOZ/y/HfYVF4IaNkIVbBRQRrqmo5MyCZTuyPaol4SYrhUAK9kdPfma4Vd2cMOTAU6+OXDMWqolDX2i2Ewg144pYUPGwg2mpvvXRePA3l2kyxajmLS8RsNCpaa6+OzWdakj3mc6X6UrIaOXyyjKG7ClRYkmTloMLhgLR4yy46/bqiNhgO2GVceDH/xgPy1LyogDtMbQh4YyKiFlLjsyAlIXZDSjI/pBAqJBH1IdMBJi0URZKX3hWUWpM9kq/4KwJwMJp4jAfYV7FfiCvAcSJGTTBUnRBnl0080SzxQnFNwU5wwbOwEKOfCrtPDVa6wiRhmgHkYA+YaMIimiFs8oUwrZyDa11Ie9jX/AqkMQf7yj6U5rKtXpyMqxnhrPgFp+6NC7cWDoA/RWmAtQTyE/FYMBoIkR3HlWE5kbJ+5ejhnHAbAch+xiadizYXF+32COblrjfYrb1EcJUIhdfV/h4gNTmXCdQ+xFLI2AiuY58OycoUI8RRLX9IJJM6YwRlxxynngAx944Ke3aA5OHR0Pf/jDnQ+oLCcIIpRomJSpFfrYIYFyGGas3O/fqwYz7m0AYrM7PHrAMAL4WRdvJfS9733vTmN70o9X0JttWbJy8GttXiy8y35RZ2TqWOXTek4VW24OzNoik+9rPfiJ7YFA7jByeg2iYBqs1I2/aMgXXoARh9d0yvEh/a6PcR2aOvbsvkqJM9FUTgJlTTrYoVAGCTOGpmOaA6xRCBn7vpg9OZW6rGq8dS1TU5evJ5N8/Nqm4NonCVmoPiwoxxSLfZVAuJ30YnOaLidLt7wFlmuGjb+m4gSkUBjUgjMhGiACNQNybdxcHYkssRGro1eTP/mEnRli/pCHPOTAU05iD00d3e/3fu/nRhA3BCizKONYOhiRiVNnR2YNcgD4ugLGh00I0K8Eej1zgLE96+KPA/JxXvjNvamNjY8TyFkHe3pPAOxlzbJi5abUcdfgYqV5jVrhGiFk8tTlmzjznSg2FyKjW2QOrDNg7RoMdnjNgDEPJnq6Wuoig4extNt5hngXOCp1+OCDSzuxCcElmagQscnQTITPlLVePQnWmxFxbQgSEo2aq55OA1iSV3ZfCb2+q5a0C9YWLXcmEjLEnIKf5kUBrYIkKDESzjDXmxclB7E9y3WJqIJJI5njPG0dmhAVMXWYmtM7wJCtwIalLuoolSVKmH1v9nYuDzv9wMjRbzkelTpEy5vP/dzPNXKc0VSKVNmTt+GnHotXDHblaPcwrh6iN/nMRdoV0qx2Hikc57OmUb0CAkFFQz74E6dOKUIgUWphYbAl52QCfRvq/6Twt1lq9eKs7BHhVGQweGII0NyU8WuDr6l35j8M4dQ1iA2rmlj1ox71qAtew14gdSizOxDUDEgBZDpkK3w5McZN74FO5jCaTRnJCAgUOHG0VyKTNxyG1/TrIbu3NTeiDmu69mGk3lXXwIdxHYZv5UtgNQuPnqaHiYK38DzykY8kx0BKPk0uC4Kns0V+5dV1QbOJYo+Sbegr5AgvLcbOtCR8JdAF74fP/KTaqvFA+MKpg82PCPkPg/QxRZMydgTQpLBAiSCj1QFj/a76aKr3vNwvrDfb3OYnFou8EUo9Xgbljy+Cd+UcE+O4Qw51Qw8+2SJBgiwpCElL8qXcAnizN3sz25ZcIZZVCvOEFEZApJHI0EJdEVvr8QiBEmXw2oQ3TDJGSeAwAuiFdL4xP1f8YfDBtwR3qR/2sIeZZ/Y/zuQV04tdJmIxG3RNPULWEENirGsAzbzdz8CzyxikdVsBOPFYP/1OCuHxnqB2TF41kqDpsusEorBYGFZGopQNciU4Duzfb3vn2u8fWFmJEjfRJtZIi4xQNJHgD1x4UNKyZ8e5CI9S4a00vZOwUhpETZfij3jEI4braOC4qUOK86k1/1M+5VNc8nCMJ/QxZTKDcTzcmy/7CcS9jYcoFUiMmcXchFTnDBq9hLROOPx7cvuVX/mVJ7juXZ1nvNAzkgHwWeKR00pzfJioiFk+Bl/U06tdXc5PfurQLPXmgolKhT3aSoBSnBWWC4vgp53eVCMQugQGFEm2lTE1p4scpSYaC7wp9Omf/unv8z7vs2vVYZiLSB0iPFT3tpjs8Wi9kGUBB8Ys+Lr2/TpbjVe1NdGDIx56gC7R0aVGY8LR6J/NqBNy4lrEyRx2wpUTn06kNXYGiwBrwYRb2Eb+yQCpzFk/6ujfnZJGOLMNP0VUBKgLI0zaNanTVBfDmjAxIoPJTnCikiMjvWYjb/xDTDTHLxe9/ts4nvCEJ7hbaIYVuJTlTCaGyW72MU49ZW/67GPUOZZL4zN2k0DI7PFOAH515saLeXnqMOcN9iwVY2Eb4mEsR+B764PNOR7lJa46CfGzX49+9KOd6lwoME8o1GtgKa2UAcLYRr8X1v0i1BEA0IwXwbrYLBSais3kiU984sXmDZkXt+pkhJlqWrie/Kqv+qqnP/3p7O5KlUERMGjMPQwDv5LFqxYmSWOhNja0fPAHf7DmRtrJmqVj6z8JIsiALpROIBCjZYaQ4dWUndO8FIDvfmb1vve9rxzytZeMlDoW4JHJcmWaK1AkI5gRWQnAdigCvTPqZHOCpEnaSVInTh+pPOYxj3Gme/zjH692IpHITeK8Gt82DkyT9Wgm+th1GVqJ6GLqoQ996M3H/q5gE5oDm1KQColOi0I7Rcd//3wjk6dyRSGKFySDT7z9bYTX7N/hCq+fFJI3NFI0qR9N2sEA9cQ8TEhwQbYIkSMRJaU5+cAHPpDNek9WTp466fPoTvHVtJc0nva0pz3rWc9iHIOMk7FRWK8AeAWYRMFucUUp6C2waDxGfsADHuAnAX2YcTJ/juCiS4mAJQAaT7ykyRLLGHeI4ppCWqvvETZcbJdXOD7pkz7p/d///f0S3lOe8hS/rSFoWS5oSaM6IKdGRaHWC8DFNlcbt9xyi63QejNkJwYuNXVS7DclFL8hKof8DIVD9JkzZ/wuv4VxPIxSfGfYDKTouxB1z9ov3Xu4byU78Q5ywRDI0SZug11kWyYvyLtLYO4ajG4+6SWTO1TsUl46xiWC2D7kIQ/xc1J+/8svcj73uc91o8tZ0CIqwrQrKZpMKrzO2k6KblWb4Z5lXsZ18XK6Kg98o99n+o54NmkeSiDF9XxR5qGJjtJhUPGOnNr7ueP5pQf6MAn0ljoIqBNxZjhVHEZ/NN7AEDjnDwNGpnI016X0Slbvlvd6ua/ARNWXo1649qsJot1qRL70lS6Wq8LrJZAT338/2trLmTqrJkOiXOxroKuEyw4bV4PdAt4YG4wTH2yljnOSKQFo3jP4iqbOGhD3qBRftq/IU4Yv+uL8lO27jOqMq+1yBBpvq7eBH8zFAuaGud56oybqUqRdrParTn+lVp2r7tiBBrTqGGa9UseycSnrhEWrAxNpZNoN71Cpc34WHhjr6wwpdcYjg+2sM80TAO78TuoA7mipc4dbdSwzs+qc+AFWeeY0SloHHTJdcF3KGnaC3L26LHesVcfVR3ljjK0TTpqXEv3Nhe5lv6lzKbadAu8dK3UabNlTAjnnXkqIZd6cuwn8v9S5lGDe3nk767TkqN1PuhSLZd56D/DEdxcvxYaryHvHWnW6i2O87VZql0iXEno3vrtka+35v1XnUoJ5e+d18dxWxVDwJa4Ttj+52EUWsSe+u3h7j9oh9t2xVh3LTBdBxttIb865h4ToULTkUySN4joLfCjp9dhxx0qdzsXyxmDbXy5xi5ErHZ56pnuJa9g1l113rPs65Urv1Bn4uT462bBht4x5EmklA7vNczI51yjXHSt1vN3hyXPD7N2g9ebyCcZPxvgBEf9ywI84ewPL2zAnEHLtspy9tXrtOvB/ll+tCNyxzjpXK8rXpd7/H47N9+kod8iLAAAAAElFTkSuQmCC;" vertex="1" parent="o-uRExmvfYBmLYg7Qbvn-55">
          <mxGeometry x="160" y="41.920000000000016" width="40" height="30.31" as="geometry" />
        </mxCell>
        <mxCell id="o-uRExmvfYBmLYg7Qbvn-38" value="" style="shape=image;verticalLabelPosition=bottom;labelBackgroundColor=default;verticalAlign=top;aspect=fixed;imageAspect=0;image=data:image/png,iVBORw0KGgoAAAANSUhEUgAAAG4AAAB0CAIAAADrdJBRAAAAAXNSR0IArs4c6QAAAERlWElmTU0AKgAAAAgAAYdpAAQAAAABAAAAGgAAAAAAA6ABAAMAAAABAAEAAKACAAQAAAABAAAAbqADAAQAAAABAAAAdAAAAAB9d5aaAAAUFElEQVR4Ae3dZazl1BoGYIYZ3F0uMLi7u7u7BoJDcIIEDfaDIBlCCMEJCe4S3N3d3d3d5T7Dym162+59quf0TPb+cbK6uvTt599qz5B//vlntN6vDgRGr2OQ3hgjEehBWRsd9KDsQVkbArUNNKy2kRob6K+//hoyZMjoo5dhoB9//PGLL774448/xh133EkmmWS88cZrbJmjDWmzBn/vvffefvttUI411lgTTDDBDDPMMOmkk+bE4u+//3722Wc//PDDqaeeeqKJJtLrt99+U5h++unLPZU+520plOB79NFH33333fnnn3/yySeHy59//vnNN99MPPHEw4cPR6TdN4Y+dIfjCiusgDB//vnnccYZB0lCU1+PpHv3cnfLcE25mQr1ev7551977bXVVlsNBG+++ebXX3/966+/TjPNNFj1q6++ig8FHTW4GF5R/UcfffTKK68st9xyH3zwwZdffjnZZJMZx/MYc8wxPZLECFGvioU2QgmUZ555ZqGFFgLTq6++Ovvss2PwCSec8Pfff8eh3333HZq1baC89NJLTz755Keffqryk08+QcU//fSTW2+88Qb4APfxxx/POOOMYNUAX+sIU7g3IdbaCOXnn38ONWyIMGebbTZ8irJ++eUXKKBKSMELKA8//PD333+vgfoxxhjDX7/3339fY8ARBZoNGzYMMf7www/jjz++en11ROAqlev9tRFKVImCoGDPMAIfAiTy/A1QAhrKauBIL4099tgIEOVqjxgpKw1ATzjCeujQoQjz9ddfp7JIWyMj9npBDKO1EUoQwAJNTTXVVBh87rnnxt2sGRBgTHj5C0qMj6MppcDgKBGmCJCup1uwtoeBtB944AE1c8wxx2effaajQdyFb+1othHKKaaYApovvvjivPPOa/OwQJswgoX6b7/9FhCABhAqAx81AiDYYVv1KBRtKj/yyCOeAfK89957b7nllqeeegpRewbsodpxNGAbTXQEuOiii959992M6pVXXpk6Bh9QcOhzzz03yyyzAAvZwgWyJCkFBXckTALA1F8oL7XUUrfeeiuyXXjhhVGuxqyC22+/nUzQsgkohx599NFNjFtxTJsn1NARWqMxQIYAX3jhhemmm27OOed0C3FRIPPNN1+gtZlnnhmINPVcc831zjvvUPSoFW16BhTRW2+9xaLyALQnST2qKaecsuIK091bCiWwpp12WptnGFIslC80Ud+ss85qD+6iMiAShbBDtkHVLLLIInQR8aqSSEV9//n3pzDTTDOBddlll8XvYPU8aheXbWRwYNEkJB3hCDVawv7pkLjXOM8880D5pptuWmyxxRZccEF3sTxz8uWXX4aXZ8AwwukomvT0JLRh5wORfEDRdBSJnKasKjVthJKxfeONNyLDFVdcEZPSPNgcDTKt11prLZxrw0yf1Vdf/fHHH1fPSqeXAnA8HJrdkwhq2jNgYBqQfAAuMwtru4Woq6CW2bd1Pjjiuuaaa2yb1whBnIsT8TVk0SCaok/iO4FRMOnpJZELELsLdJyuoJcRSFUcfdddd6FN4D744INbbLEFnRYfp3q5dcYQjYx2ll9+eUpZaAdV0iFiEwgNxcGFEIxvGyJsRvpEmCPg6K5KLIy7PQxiAS8/9NBDVBn5S3fx5eEeH6SWcusYnFyjKjAgFFZZZRUI2qcADy5mIQGLAxN4PL1/FI2XjYCFPQ+Km+mDQtmkFBHlw0TVndyoXedYTOugJBlxJW3L24MjIoWLSsyLHhGayzSIaoB4//33Aw7QlFUwPI1gHNYPfPns5Omaa66JKjNHqFjZOigxI+snqAjKhGeCgoJWoaZhBM30nolLmoplvt566+HuQJXkQzAnKXQPg+9E5mZ2Tw9YoqZ1UOJuNg3IAAdQOCozv0k34o/+VZnYZ4gSEanrrrsug5xHxGtExWQrAmcD0fudaDkxVJXL1qkd0nCBBRaAJi2BH/3ITbDCglKmYdK7DaFfwKFBWoWyJlX1IhmpI2IhCNx0x3prWgel7SEozMiHYbhgTCSmABG4YNX0/lErkkStJAMFBUQhNQpHJZRJRmon3av2mtYxeNghkmTE0LaIEY/TJAiz0+Y1QMuwZo2jYjzOoUTX5Czlo2/mA+g0Wun6jusrPWJdHYlI0OQZDejEpfa0k7+MHrqFlFRJdzNFSVhAdzKh8kyRp03rvJ08i060IQQ47BgcLWN2UKrxIzqxNpLkI+miBpruNqSC2igrE0iFS5wLJj88m2gAGkEj0oBegibBih4xuGgIxmcSkADkAwplrrLbE93ruhwEVAkXmUWxSCRGBaE+KoU3nWBYECNDZhPrkqsj/COToQuHElh4X1lfNr+a2sNCpmg7lIjxvvvuo4iZOGSiS7KPxcObFhlK29ugpMEfe+wxdqgfpg6ax1ZdGocM5REJzdVFjNE4bWdw8UfwiRIhK7YOFNDjBhtsgHk5gog02kko4Gj4ilGyhASN9ML4EGRagRjvhxpjJjpWv2w1lEiMR0gOhjMBNAbOFWrD2sssswx2hlEaAviSCVQ2NKHPGiVMUTFxicepeLfSvarXtBpKagRXgo9bTXtQGkx3glKUSJACfQE6DUGwoqgdMhFqAnR0ETZHxVJAPB+YUkTpjhVrWg0lSRfMQ1CKucGOEJSlCWSFNvFs5v4JVhIALQvTMU5le4COkBlG8o4eRhP2UHtNdBhRuMEYtHNmdlAg/hKIuJi8o6wzoeQsSpkJ9xKXskCQ1Vgm8umnn5auQNGZvSpWthpKliA6wozggxp+Z98QkWJl+NStLpFHOhrZwo5VhKNBj6jlxGktEqAiapnd224MEZSUL4kJTXztUhlV3nPPPcI/mYGi+D6pcqztLwJH152oON6ldLntUNoYIORp0SYyxO/BssGn2Lb0tpvoOAigtG2SjkXJa2QeYVuWTaP0VQ7owQFlub31c69GBHA/76El0/WgrO1B9KDsQVkbArUN1KPKHpS1IVDbQD2q7EFZGwK1DdSjyh6UtSFQ20A9quxBWRsCtQ3Uo8raoGx1FD3sUozST+hX9Fs8vKEYeHVE2wKldKuIpOMCMjB+zlCIfgtQivsKnoNSyBKIfmLAQpbilXJnAuPSihJnfl40c+agOiKlRxjIeCWknLOQU5WMlWuVuhEn90qEyC5cZL0dR5EvhBoEZRTAjTZlGZ0SkP8CvfPnQJfncbQX3PoKrS+55JKLL764c/wQL41LiY4DAKVzpF7bvO2220ICy+altCSw5FSlvUBWYhvAlbRwlMNT8VKUt0TlfyQd11lnHe9DeColxizapf+glO269tprr7rqKvuUMnTiR5Ia7UgrFl10n+0RqU9GeGCyad6NcL5j6623XmONNdJnjPocKn+D/oDS4cczzjjDyXBybbPNNkMpDWWi09vG9c4QeD3tuuuuIxw23HDDHXfcEfmnW9ZQY7LmfrjYySnA7bHHHlLSzU3U58jya96u32ijjZyq3m677bxF0WeXog1GnoVt4uc9QizsjM4xxxzjjEoTU5QbE5HutNNOTiDtvPPOTIVyg2T2qh9KwO2yyy608GGHHUa3Zs464JVeoNxyyy1R6AknnBCMrepLqhnKSy+9lEDceOONaefqi2t6hDvuuINGYjzR+9Xnqg1K5giWYQ9edNFF1ZfVbyNwAXAPa+nUU0+tOGk9UDoSxYjzyRBHQysuaEC6++QJsb7ttttCtvQCaoCSrUPo7LXXXqyN0usY8I68Ji+he7vPwcxyi6kKpU/4cNdOPPHEctO3qpdjcptvvrlvE4K1xMIqQYkeRRCqS5kS626oi6AJNve+Kh+p6BTloSQfWTwnn3xy0Slb3l64hCVP7hc1kkpCKYrjpCj52HJcyi3P7mjRvffeu1D3klCaxil53lihyQZRYzwnGCr4kn/NZaCkary+4bWD/NMMxpYXXnghy0RUNOfiC0OJErE2fyvnBDU2w3ccgTwDCrLVwjG+FLHvvvvmmVGbwkG2Sy655NhjjxXm6R5nvOGGG7w67EWPnMErqYgnnnhCfEEewjtf7BJSH4t5JUJM07fBvN/g5ZEDDjjAJ1nCufT0uzf2w7YFoojU1VdfbWofC3R2XXu3XAoti7N5MSC+KtE/HyzxkMTw6RxvCjnoDkRtxD5MJzTDgI93yS7nhDw0YysgyTPPPLN7L/sRGz/iiCO6Nwt3eesHH3zwIYccIqooDM6mEyQmqjwMVp5F26E3jzXmk7hkRZ999tk333wzvCAVPjcSysJo5557LlNGAsNT8TxIITZGGOTiiy9WCazEqtg9nmLAjgKQIJHniNpYw3777RdddikUY3Af8pGQ8oJclxHdEr5GMmzdPrmMPLL6O++8s9OAoIGL7Wlw+eWX+4pYAgvAiebGuyND3CAtEVXij7XXXju6zCx4vxfiHmfiLppFktJQifr0ZbE8+GWXXbbqqqt6DdOsnX7muPLKKw8//HDc4f3CTs3Un3feeQceeOBZZ50lM9GpmdjiJptsgpo0oAGgJn8bb2w66bN4Da8BKREUUSWO7vPbEYHrE7xvBHEjebrAENGAmYUCUOJu0oqsyRwoqiR3tDz00EMJJlGiqD5REMcWWhcY7lOeQhOr6u5FsMCGiaHSl6AMH3mIbqUFa3Sre8GT86R9D6p7M3cLQEkzBNu1+6BEEm+BUrIf/CLLmm6PlI488kgksNVWW6XvJmo4HptuuqlKokD0O3E385KkrjGBs9JKK4XPQGXOFVUWgJJ+CFn8qHO6QGCLs8nnuCXJR2wJr6abUSNUhEhMmqHSjenuPtkz3StR0ydVksiJLtElE4J6oJ2imszC/8mdzBZRJYGFZ7uviWZguIRcvtS219ovuOAC5BkNEgpsKUKAzZGob+jSmn2fIEQoMqfQwFPPvKWSTcacInwVOrVRXwBKSxFP6zKW5XKE6NzQhpTZddddWYIS34lsrfyPNo1mpePrdLyAAgyKPl4flUFJR7vMJBTCyq8L1mGcAlASlMzXaPp0wWdLfXmKZRNUqmUxttmYctBMs3h7stKlu/HK5sqsfcIEf2QiZV7rYW84JBIWll4JqkzYCek2BaBkEzBH0kNENYxE6piWj2oIIEYZPS6GFDdiwsmT5j75Ey0gKlgJUz+6TBdI5HRlqIEvcQTNTg1CfQEohTB4BZ2GYwOFj3EmGvjaBTYnHB2Jim4JYdmY0VB6Hja3Gb8umiEauXTB+J36ElysMdvv1CDUd1Rb6W78HHnt9PdoQstzzjmH1ZLutf766yNnFlL8FoVDy7OuMvV7vGUoH3/88XGTO92g0RrZHrvurnMsoACUjDWi17jpddNI3GFuSfoWXvalU5pdvCC6S2YdddRRDq2JjEjyRfWZBdEEDmsT36vKnC5dKTLAGuuucvUqAKXgHZdR9j09mXARPhXFSd9S4xyEB8CQjN8l408//XRiYffdd6ea4rfiZQ9gzz335Hp3ElXoxS/eJV2mMfpsExpkNnMcjkTqW7z8K4Xy/qGId9hhh0RrXA9lJJmojy4pKwS4xBJLpKMbV1xxhdAOZneGL2ofFZzE5GmAptPRLaIW3/n8Z9QlXTCpHBRPKX0rXuPAoonOP//8eKWyxywuI0yVqE9fFosMSTGyEMMRW2Phd5TFNbYI9C9Q5gHG5yCw+Y5ObQTt6Vu8sEukn4TUhOOEznhHI0aMEDHRRoxDL0+Ip+jhJaJBpkDODAYOJWJhNiJtMiRxusY6ZRScW0PR2kiiwCtafFgn1WzNp512GpfGUNxNO/I1o2gX7nLn84Sci4V+cQpnZptttmHcgA9R+IYfK4clgTVgxBGMs7lH6oi0XsH/QSB2xQVKWx76Gsoxaj67bWiGlJxohWamiud6UUQBRyvxzMhfuPu5DD/L89Umo4XZtdGexKcG/9dkNMsmCrX0sG0EstaMLCIXXvhG+aSTToq6dCxE8OcsePh2aO6c7Qd1M+Yatclby7OLAmonPA2n1FhYp5xySseHM6rcAB+RRT44m5drT3nwTrRhnWABRxQT9aPYpWACVy0hW7vssZjaiQY66KCDJHn4AFHNKFYgZJGLiG/+fZWEkghfeumlKdn8Mw2ilqKTdKNkSaE1l4TSHNw+nx8/7rjjCs3X/sbMDAlbmY+0BdZ98eWhNC7LmQoaNU4EBpjg6L8aca6CTdYdu8TdSlAaS1qVvyHblRh3MF6ywzkRcOR6lFh/VShNyecTNAp5wRIraEkXKSmurRdk8qvsxMprgNKI5CYviCIapGeyfIqZW7XbbrslnNoEWN0v64HSHAyjffbZh7fHfe4+ZavuSunsv//+QioOz1RcWG1QhnVcf/31PFbqT6qk4sr6obvVyqCIWNfibtQMpf0LqQXydJyu3Pn4fgCRcy28L8olJiSEUcuM9UMZliVC7Jv6vFcnXnKGA2rZT5+DCKB5+1cAyZMW3+uzff4GTUEZVuDUkmwEQMUcZSJFtPKvrN6WQlmClWxvboWzSg4d1ju+0YrFK3MFSFKNWPKSaI5AClgJtqPWKBqYaltzBY/F6UABYOcxhSPR4/bbb09Z1zzNv8P1B5Rh3WSo/Qh3ihRQ9JIQzheK9ec5NlR053IkpKHMnSCWNByrW4hebqPRr2n0H5QRHE5wYHz7pOUF2AWyJKH8fOQcxCVOWpEb7Gq2LUVMRstVOEjjCTka6YQqg9epsWj25goDAGW0GaYoCvXflKkCtj13TcIAlOQATP3lkkLB6RrZAsJIR1kHvfw0lpBAfVBTIAr1ZR46wQBBAUChfhwdzdUPhYGEMrE9lMV4QrN8OLpVvldMAUY8EMQbNZYXwqfyM+KJEKeLua2UiUJmFijq2HShRVB22epI/Thk5L+6jQpdGg/UrcEB5UChU2je/wLI1zsAjrUzQQAAAABJRU5ErkJggg==;" vertex="1" parent="o-uRExmvfYBmLYg7Qbvn-55">
          <mxGeometry x="138.09000000000003" y="22.360000000000014" width="27.65" height="29.17" as="geometry" />
        </mxCell>
        <mxCell id="o-uRExmvfYBmLYg7Qbvn-39" value="" style="shape=image;verticalLabelPosition=bottom;labelBackgroundColor=default;verticalAlign=top;aspect=fixed;imageAspect=0;image=data:image/png,iVBORw0KGgoAAAANSUhEUgAAAHMAAABoCAIAAABNMFjpAAAAAXNSR0IArs4c6QAAAERlWElmTU0AKgAAAAgAAYdpAAQAAAABAAAAGgAAAAAAA6ABAAMAAAABAAEAAKACAAQAAAABAAAAc6ADAAQAAAABAAAAaAAAAADdiNZ2AAASbElEQVR4Ae3ddYwkxdsH8PeOw93d3d3dIWiAhCAJBPdgwUNIIEDwBP7AIbj7DwgQ3N3d3d31/XC1qa3r7unpmd2e3R22/7hUV5d+6/GnZm/EP//883/DTw0IjKxhzOEh/0VgGNm66GAY2WFk60KgrnGHaXYY2boQqGvcYZqtC9lRdQ3cFeP+/vvvP/744y+//PL333+PPfbYE0888YQTTlhxZ8PIFgP12Wefvf/++/797rvvIPvXX39BdpJJJplpppkWWmihiSaaqLhbUjuMbALG6OL333//4osvvv3222D95ptvAqw81REjRow33ngfffSRBquuuuq4446b7Tnm+zCyY+ABzccee+ytt976+OOPf/31V2jGR7uff/75nXfeIRA0m2WWWcbomXsZRrYXEhT68MMPv/LKK59++qnascYaq/fb6NLIkSMJ3D///JNwyHzKvw4j24MJyF544QVC4JNPPsljGhppQ8JOOeWUU0wxRR7KTM2w1dUDCBsAptgc+2cwCq9gHWeccWabbbZ55pln0kknLWyTVv6HaBYLY2SbHzVqVJ4qff3jjz/8m0cWpnoxuWaffXaGwYILLpgi2Kjc/chSO4jx888/D/YTIMYff3wcDaapppoq4gK4aaeddvrpp6f9wwH4BGWylQSYeuqp2VsLLLDA/PPPryb2Kil0M7KU++uvvx7tp59++glVwoJlOtlkk6lfdtllcXdAByEvvfTSoAT6t99+y0dQZloFwQrWOeecc/LJJy+BMvOpa5H98ssvn3zySfCxn3744QccnbI5MwDQ7KcZZpiB9AyggHv11Vcnar/++mtmLNpE3UQqfaWQAS68OqqMkzbBBBOET92JLFgffPDB1157DayMfBhlBCuUGfxAQdcRWYhoBmtPIY5pJfESnDQEbhACGis4hplnnpkghm8XIouOnnnmGXLgww8/hKknRSSUkTCCJVu5Vfmv5TXBSeMyMHvRPliDXHZaRjMpgc5J60JksTNqorVgmkqAiBdYCVDENcccc6QEGxuUFKD5+OOPEzIUHUyNHx5dMAcJE5w0FN2FyJKqdoiOMhIgbB6sWBWmFD3LtATE/Cfy95FHHglOGkDz4zvLYNuZvQuRFZHy0Dm0kP2nABGFLK1gPy266KJ5aNLGmbIjEakRUmjqpNF4rIguRJZNSofgTZyLeCECXxKQ/QTWGWecEakCNwNc01esQB8SNYWCW3cTkS3M5HnnndfRdiGydr7UUksx+z/44APahmXKVqWvkJJKNn8jaDCyx5EUOmkYPDhp+TOAqcqMkzbCQPmmXVMDDtsGJbAabYqThrqDk0YpAYQkQd2oL428gPXuu+9+/vnn6S4HEEbDDQYnuIOTxkMjvsPJNZyv0TqGVn0JoDYCx+ikMUuZt05CfXTSlltuOSZE2LLK4KSBm12Vd9Lmmmuu1EnrcmRL6KDcSWMGoGUyZLrppoNpGAema6yxBgL3NZhcqJV3wCHOO2n/UWTB+sADDyDYEicNYdJav/32W0QWvpiA9quiAAv8k5Jz7o5PJObTTz/9xhtv8JfsqFChkc7okVJqmu9qhMl/EVkGKbOhopOWEmwjEAvru0oaUOtYmBDExTQMYmTDTjPNNKligQJNpQFllfcUjIBaCU0xQ0bx3HPPXYhalcouQRYcyDBGSSgfLB/sIfYT032RRRaJOOJxaofvELRQChMKpY7YA4ynVp20dBzlbkCWO/Dss8+GUKzgE50TjXT2JmGKQpHhfPPNFzYvSMjw1CY6ac6APIU4WDlpTqKKjspAmXkd8sh+9dVXUtnUEQM+SICMRsL7EPREZBHvMsssw5wKET/UTeMHJ01liZOWYhd8ECfXSBAPbWTFXMT0BJ9gZJOR31MI1AMus3/oy9N4mgKUDqWMJ6g+RpsDC34zUS5SwWHLBCSHNrIkANmKWsHnyaDglfzF5igRj+e/qil30tIumOPVV18V+QUr+RNuJZmUnEHmpPwKK6zAUItdhjayX3zxhQ2Dr5Ba1SNVoVhys+lloYhIYUHiR8QgpGdCbCEeJCFuDWifEUJPxu5DG1mAwo4u8sSthlc7lDEEKGUl9JURvnH/VQovv/zyE0888eabb4otGCc/lAANa8+Tjja0kUWP2NDGiD9UEzaG/UMolg1Aa7FJCyk6RaGkLCDL8OAHkwAl45hRTDYdZ2gjS3qussoq2FAMkA0LYmokaHmfEKxyuts2ypII1GMJrCZlq7HS6MN0/KGNrJ3YEtrEiZAlB4L9BNA8z6bbDmUSk4oPuohUYc9m6I6kJka1iaImHcRXrzwR8cPFF1+c95F+HfLI2gwQ+a8ZFzbdZKbsAJi37733Hk53JPBFdwFZlE4LRXyNHBw2EjbgGIYKYp0lwOqYddZZF1tsMVZXZpZuQDazpfJXULrNGf3gACukgEiSMOAQqZsy8R4CBUj1k92MreDdYQuWFvXI2AIrUZ6h1rCAAcjWWB/ODVymQPMEXrO9ICWRCXZGEeioHKZWvzLy420ByzBveMI4qNKrQMw666yTCk1pSoYzAg/5yuAHg5WDUIhpGK12mhV5ogQYLjwlhXDLyq5sI9hMqUDElXzN8AnVYHDBEcpdfIRNardUcKtoxvZW8uijj5bfFjC1Nfg39lJwzAsvvLD7ndbm+C27in9RC7JIgwF4zz33uLPmqK2DPAIQb52d5KhJfaft8BFpBlmgUynkGi8AbzoMVvptt93m1TjAlZtabbXVaIwoDVMUGpWB9dJLLxnN2hoZT9o4OYrekx8HOVttvr5RTX8iy5b+3+jHBoihJZdccpdddlliiSXAUd36CS3zziiKM76jkmW5+uqr+ez0xiabbLLWWmvJdTfaXqzHyNiFcZYeZPyqAFbAUUSN5GbauEq5H+QsK/2mm266+OKLAYpnN9xwQ7t1W6LRHqosq7wNon7uueduvfVWtEy9oOLttttO7q9ELlNc2j/11FMhHpaOH3gfB4AVy3PYGhF12qtpuU/IIqKzzz77hhtuQKFbbrnlZpttljc+mq6gLw1IPRmtK6644uabb6bxdthhh2222abQ/CI977//ft4Usz+IS/NicCDiEuoIl5DmCLa/CKJNZGF6wgkn3H777U54zz33JPj65ZzbRpmlcf3115911llso5133nmnnXZy2JnRtEGzoiqEeDAMgh9MqnI3pGdKFH1mqEqvjr2lB/cdcsghlrLVVlu5ptpS37obI8xbbrll5ZVXJovOOecc9lxmRg34CAwVlG7xooIUWohdZVr2/fXfW5/VnyuvvJKKX3vttYXxq/fqcEvwXX755VhbSIGJ0uHZ43RVkaVViTBa/oILLoidB3OByjr00EOZDcccc0yeeDuw8krIMnTw16abbipk14E19eMUDz30ECOfT0Vx9eOwVYZqjuz555/PsD/xxBOrDDcI2yBe3EZB8Ws7ubwmyGIlFglLsJNrqmOuY489Fn0wZuoYvHDMMmSPOOIInihLpbDnkKvEfExdxkNnVt4QWezP2Wdad2YdnZnl0ksvBe59993XgemKkb3qqquswN9Q6MAKOjzF6aefzmBw86PueQuQFWcjkoBb99wDNf7ee+/t9nbI7tS3hiyy3D43Evbbb7/6phzwkTld4pkHH3xwrSvJInvqqacKqou51TrrgA8uYYMva/XQxojIiFILqtKhTOtKQYekkegnK0Ig0SBiHwJ9PB+mRUgHhNAc6SbeKBUqEgpcQb8QbRIK0SC9YBIHFj7XC5UJexsw1ge3St5h+eWXFwKO9dULoh+ivXfeeac1VO/VQsuUfA477DAxgbSmShmahx9++EEHHSSaJ9Lh1eOuDkW8/vrrW4q8lgiToWTtbebAAw9UKeQo+OC59tpr99prL1plvfXWyysWvhMPUJBbl9NOO01A67rrrvOv4xe3VGneKovMtxFaciHhrrvuyn/ql5peaSC2JpXiJ08tjStGs9JKK8kkNOp18sknIwqAxgacIrnPo48+OtYocENDukkcPa0PZYErIGKLzKd99tln9913z1RWf0UQG220UfX2LbXsRfayyy7DVi0FL0Rn2LzC++VTbrDBBggztiHE3Wo58sgjY00oqAGfMFWm3qvzE5CWQM18whmisZnK6q94SwZThrx6l+ote38Bcs0110grVQ9gA3S33XY76qijCuUjjOIjDo1O46tCYdze3wTwiUBIW5aXMZlUTXmbkq+6izTx3UvatP2pB1laxQ+hSbqKAzk6vi/Ns/XWWzftYlhn1rQZEaFNS/lRAkSGpunIJQ3WXXddSqykQdufepDFF4ZwH6TiQChLdMNdEtqpaRcaPP0Ba6P2mN0nRkKjBpl6pjc+y1S2+sq0sBdDtdqxafseZOX0aecqMIURaSQSWT6u6QQVG0gEnHHGGaw9iYBGXQJRx6+Ubd+RJRDAylKMw/ZXoee+gZA2ZKsP6o6Fxn25sZJakWYXrqTW2FKFmW2NyR8GVjh7mW3pLMgGq676svMtMRP5I2PCAst/7UtND7JsncJkcqOhQ46edG7UoLzeZrgA2ki1CqdJ+clX3njjjY16gRW4TOBwwwOyOkpuo/RGXSrWO0iswLWp2L56sx5ksXYhsTQaSDjcpyAZG7UpqQeK6MT+++/vbLiYjAcE6BZMuTgmguWM47Bk0XHHHRdf+1Jwcn3pXti3R87S8jyFwhaFlcFbFWasLvvT1SsjW9dSXCpmNpxyyikS1BKChXPFSucRywrSnSg9rWmjjPlwQEaCtzFOvksPshx8sib/uVGNqI20vtv79957b6M2ab04Om8yrUnL8lTwdd2mJY3kHgabKR2njTJDW1AisGAb3Uu69CDrFgGd4PRKmqafOBR8BP9yUpv28ufeHEBGjqcajOMgJuB0uarcqnSiustUsdlb0t4Vl9SDLFdEdOrdd9+t2E0zLtNJJ53E3ycuU07PjECSCrgwG6N3pzGxnmftM888E11j8GB4pOPo4klr+qssPkcrVjc3q8/bgyx2YHZUZO04+r777nvuuecKOGyxxRaFXqmj2nzzzfnBAh+xF6zpYuGVWBMKG2+8saNiJ7ABMFD61StkM5Vpg7bLd9xxx4orrth297KOo6nh33/cgGOox9fqBbfn5D/oeo6mO2sisPKjF1100R577CHeIcC87bbbolADAloAENYWRGcSvkyCzLUqeSqaDQ+5wYm0hSXPO+88ykoXsWNl+UHyp/rySlqyRlyeTONwJY1b/dQb+fZbE6dnq3ZVdhQNvlEFaBPKbAyLwPvkJvENlGhLhTvcBqB8KGV2BaUs9uo1HVXwCSmBb/vttxfYddubRSjyrYYB6zanmJzXtEt7ZeeEFPxBviip2hunuFd6FGLJwldpTReXsZETEvmtaY+98VkTuPjIxSQxa5psUA1LXrmhXl/Gbwxk7XzHHXdkWg4qCOpYTJCw8kl1DB7GzCLrpi4r5JJLLqlvysEwMn+al0Fq17eYLLJmklmh0MUV65t1YEdGqlyDfO6nf1dVgKwJDjjgAP4rlunfyQbDaH5sxxv0q5W6F1OMLL3pHrLfdchj172CTo7vYpUYEMu9A5MWI2tibpJkzJprrtk14PoNIz+z7fsJrR5GQ2QNxPh3sYP7kE/0tzrNgLcXFUKtrqp0bCVlyFqEC3tCfFypDl9F79/9X3jhhXSyOyX9O2z5aE2QDZ1DkkoGsHysQfgV2+26666oVTSjw8urhKw1yYH7mx7CUSIDHV5i29O5s+WHNbTFgHiVVZG1PaljHppM1PHHHy8S2PaGO9BRdEngjcvDDAhhtg5MmpmiBWRDTzdK/BdFflNNeGUCgJmhB+RVzkmywx8hETIeWGenZWThJZrnYgBGEwAUhQthwwHBMZ1U7NGFKL/78nN8sdD004CU20E2LJTZAF8X/lkOjMSB+hWOIC95yoBBpy49CuwOCI75SXsj38Xh22a1gho2BmIZcna4OJntic6lCcRmY7TzHaDSDS5/SD0QSi7lEaz+Fm87Y9XTp6/IxlXJF0jSSMZIlfuLAfwLXOmvvVAjhXc6Y8fqBWhieTc/nKXMIKHkhxzkqYla+psy1WfsS8t+QzYugsPm/rvNyy8xJ4U/kDCN55G5cZNZorTKzQnmBwnuwASl3ED1KEgwG8Etc39QhSCSTIvzDrZC/yMbd0hQyGJBRKrCb1mUAS395XaMq3aozL8uwEaKJkBYSIL8molakONeZcBwAFPa/Wcc4Pcksh5xisFcqBHZ/LYFd9woYBf7V97QKwTD5bvQWN4Q4sicM+oRRVWWUswPNfhrOors4IejH1f4//TUQcur1rjuAAAAAElFTkSuQmCC;" vertex="1" parent="o-uRExmvfYBmLYg7Qbvn-55">
          <mxGeometry x="38.440000000000055" y="17.590000000000003" width="27.83" height="25.18" as="geometry" />
        </mxCell>
        <mxCell id="o-uRExmvfYBmLYg7Qbvn-41" value="" style="shape=image;verticalLabelPosition=bottom;labelBackgroundColor=default;verticalAlign=top;aspect=fixed;imageAspect=0;image=data:image/png,iVBORw0KGgoAAAANSUhEUgAAAJ4AAABECAIAAAD/QhtlAAAAAXNSR0IArs4c6QAAAERlWElmTU0AKgAAAAgAAYdpAAQAAAABAAAAGgAAAAAAA6ABAAMAAAABAAEAAKACAAQAAAABAAAAnqADAAQAAAABAAAARAAAAAACbiuHAAAaM0lEQVR4Ae3cY5BsSbcG4Du2dce2bdu2bd2xdca2bcTYtm3btvE9MysiI7+sXejq6j5nbpz9oyJ3Ote7nLt7gL/++ut/+j//HykwYE8c6rvvvnvzzTe//fbbP//8syfm7z9nKxQYuJVOXepDDTz11FPvv//+YIMNNswww4w00kijjjrqCCOMMPTQQ3dpnv6du0mBATqukN96661HH310oIEGsjOTh+AOOuigww477MgjjzzKKKOMOOKIgw8+eDf33ReH//bbb9QSnfT9998r/Pzzz874448/DjnkkAMOOOAQQwyBifG0x5EHHrjzwtPi2TsMrRPefvvtv/zyy6+//urwICS7gwwyyAADDOD8HtsC8Pzzzx/Yt7jLvtjtp59+euedd1566aXnn3/+lVdeoY2+/PJLB8S1gHQ0XOt0jhmVDv7777//8ccfWjXh47HHHnvSSSedcsopp5hiinHHHbfX2LrDPPXss89CF2xffPHFDz/84Hge58fLDu8XFRALxv0ytHboIHffffcDDzzw+uuvQ4uymWCCCSabbLLFF18cPLhz+OGHH2qooRwqDuIXnFjQr/6k+Ztvvvnss8+wBbfjxRdfvP7669EE2BNNNNFcc80133zzTT311D0KcyelFkc/+OCDDvn11187FVBD2jC4R5nFZXohvdhiiyFKX5TFyqXhcc8991xzzTVOQetOPvnkc88996yzzgpR0FYO6VIlmrz88ssPPfTQfffdp4ACc8wxx/LLL2+VnnBEWoIWMBiZLWlwEurojjvuYH6oow8//BDzEtC8P0lle7hUsF9kkUWwfN7ad8uPP/74eeedd9tttzGNCy644FJLLTXzzDMPN9xwPbcr3P/YY49de+21d955J8rg9bXWWmvGGWfs4IotQcsz4vRSQeEHKVCtxSaefPLJV199FWyffPIJgJPIpm74A5yjjTaapoUXXhjMqalvFYgmPXnSSSe99tprNOTaa69NVfayOiEz999///nnn09hMMlbbrnlkksu2RHnqzm04RnZQbhCflmIHGb24+OPP6ZkNNFpoK3FFXigxRCjjz66MsngX/QtRK1LqVx++eVHHXUULlx33XVJzJhjjtkX92Np5ozmgDFtseOOO6644oqF2uvq9ppD+8gjj5BaaPHyoRgMRYd4VEKLIJJmOs0rDgCzptptgRZPjDHGGFp5yDRzV/faqf7kY8899/z888+33nprkipK6dTM3Z9HWHH22WeffPLJqNqnTx9muO05m2SjPvjgAz4ex4c4sqA4yy/vH8zAgyWZfu+998jiVFNNxcpCmqNUbzdABbBWmrBenx6t//TTTzfccEMyyrY9/PDDW2yxRT+Fq7OzU9tuu629LbDAAquvvvomm2yCBdujSSNoOfHPPPOMeRW++uorWNJj5BK0H330EUQVGFdohT8pKoAufeKBYr6hQFRnlcq65a29U+azzDnnnCh111137bHHHjbZO+u2sQp7t88++3BLqcDZZ5/9xhtvbGOSRtC+8MIL9APRFJABA7TxqFFQQ3YtGdCq4eDRzGAmuLz5kFG/mrz+7z+P/hH5tbHXtofY6q677rrpppvusssuYhuRZdtT9eZAXhV2ZHdpGhYE3bq0et2UBd0lWmdZqeJIPhTzAizAS1LIEosCRfokWyCIoJpoPI4xlR7d+J+0dwOlXazS/Vf6hgZmWcQ2rEb3J+zlGXDkbLPNxid47rnn+FmtK5tqqQ1VDDkiSOvWOwy04oFi9AGkiJBYe0DI7aRblHGcpmmmmWahhRbiGvSae8w5EGjZACX8b8Q1qDrttNMSGER2FqawHhxFfTW0DBIlzDSC1owEtBgWr7BXgG6C1iu9O91000WTX3I/zjjjgBOo8qiV4awZONguFbhsohGvlct1tTJwlc+78sorJcK6Oryf6k8YrrrqqoknnnjRRRdtEd3q4IeQPfHEE2+88QZFSmrDhyqOCgCwjTXWWAozzTRTYcCkOKj08cYbj+A2zaIJroRY5sFDNDb5jtwIPBqnwIot5a/2LHrG72eeeSapzZv+vWWSJgqXGuJhNdXM1dA6vFlkIcADP1kIFrcgECTUgNYvTSvjmpNMa3TIKyvLwicbZZ61gtZD1j0KYHYAMPO9K8W9ckKVNi83awbyijuLbiY/4ogjSPO8887bNusUcxav3E+C4VCyxEVT669iEMaVlaX20ihHW2aZZbg1jhYRR2oqCnXZGUVmmWWWcHQRV7YBVAb7DbpzjqQdAO+VbS7mRdaCFYoO6ZV3wE3THwNRoWwBsIMt6Hm8JQB79913U/9WCoJ9mkBmpxZXw21MfhH2wsdWZos+NBmrUfQHnm07Au4844wzxFSrrbYaXxKjC7SWXXZZTcWQeq8OS3XlraHwzHbdddeleie6+OKLXS8edNBBqbKyUFdqozfKkl3gYZZI+pMkeGN2jAMAG7IYD8X1SOUCjSs5ri7OcF9cFgHYnH7VmFYChNRaHaXY78ZTpVYbXm655aTdaeNUWRQYfkvccsstRX2DVxuTYSbrVBRHBAsyVaB1L4JXcCfrQwYYRf4jphcjWMKvBFyaljPhgg8BDfE4o+F+HdlmxLInnnjiZpttlvorWJQCwKlxA4jDdHbnyNxgUFFv3jkv1w1+opMtTj/99O4oAMk/Mi9QTa3goSQpZOqiS9oyLe9Utug1pUTM7FEDTlQTN9MNFEPupqXhlQVDpA933nnnwPXtt99G8cqeTlRZ71wgqW2yMZO7kCfu+Iwf4NSoASfYHH/88ZHeypVn5STyDxNOOKHhtNFFF1108MEH07oWXWeddeQXTUWZ+8VJhlvUcnQvWqGJmqOPPpq3LAEu3nVSgkHYahdS0wRaPVxBM7Q+M8A1ZkflSAWzf/Kc6F45byuV+Nd9tRnoBtPi4nyUV8dzZh3ojLypQVkC1ia322676LP33nvbJBIU+zQ5tU8PFVORdWqcavVpRNHk1czho9Y2cezpyTXXXLMxtFoxQQz3OYr8yfrrr08PO/5GG22kns4XhVOBmMbZ1eB7BptzAGaQ80/VX3rppTvttNMFF1yALTbeeOPa/ahpCRhaCLoMIW3jzB6sWjld65XgbJwSialQ05FalFr0PeaYYw455JDEyOiClLR9IYiWRqD9998/3zC8kdsF39JLL03XUUh5q/4UiTA9r0xlCpkMLLHEEqkmFU4//XQ5BzRMNVFIDoqZPVEp1oAWbU8lFDcoiOAbgb322ivNo7zvvvtiBZYrVaZCS9A6syUxLFtS0ChNlAp2wDAgATNZT+kBjCp2HrOhexpbFEitR2WLUivyw+yASfNYwrYRN9VEYYUVVkDZU045Ja/HvpwGvg+BqI2D7QQdnn76abPZfz5QvaCcGjAhRkxNypwsmgOX3HzzzcJ6TYR7/PHHBzbiROdEUrravQXSccr222+/rbbaSp+ggCXYAoxLRo877rhQQk7BmZKMXHXVVdOiqdAStHpTwp40rEFB1EVpUB2ojED8CAyBB3OV6EjcP7yp4CS+LKk3oYPpg12iUK9b1J9zzjksVr6QUbZRO0q9p6g/9thjeSW0XD5D3scQegvLFmPt0HmNchblfIjOV199NQ7jNEQ9b////nkQClsfeeSR2EUTHwpOG2ywAf4wSl4CB+SbV8kYs9NgjqkAT2TZoG5Bm2+3QdleffXjnJbndNDhgjNc6WCIQsPIHoPZ+Tm99CffT4KCUPI2045j/r9p/4+t9Yo0nnoUj/4Womb5xvn2iFeLHIm9EJ2VbbAKDuMer7LKKvkSUZbIlCQR+dQ2FTWogQM4R+w6r1iQSuLtU/x61llnkYToz+TNM888ybKodAuEjA6YE4rg+kqE05D74THDf3kuxSa6+mp/vL5QnigFZmUoepgifr8zUDU8wJiZ783HQS+oAzhpOYgqG4VnAxi4ptZ6u+Ir0gSFP4x7csavN1Y9nuOqNPUhYj9Ud7KUMafDFmNxduVyutmS5B2VRgbYC+LoUWNyoY6Do4CxmCCfwSsiOFFeSYgJjE/p8soot6qQa0fW1vgqkxqxXZqW66sD/iIEWM+mmXpNgEyGU5OsCFce8JS2euRwMPXOj0ONckhDPE2hFXtwCAzPN2YUquU1UdYt73nFFVfgLenZ2p6pBpa2F9DiYMpTABpSZSrevtPdeuutgYrOvLmVVlpp8803jyFpHjSJPs5rUfU2GTV+gzj8NTrA9z1BAX0soYZUFNCqF4nxsX1wk5aIQsegtSQ7j7NsC66hNGKvtovN7ZJUpd3H8vCDriQDucR9do+jPdBVA1EdZADIYq6aijPEK8+WB1Q0sUZgEAtZV2iIvRT0YecQNGIkhXPPPZcTdOGFF1Yq25gzBoZo2gz1w1/DkdHK60HlYGg11nLbLWL0sUS9zInDOprOZjY25olfxHRwSYmcLcQU0lK196FshPvKfHiUm0BLnlDBdHSmxYod5NPxeDE1RGVqECugzfs7gMcQgOUDWZcZZpiBrsb19LM+QPWrXujMhOTHywfmZf2ZAFFZXqmMpXwg4EMZHXiqa6yxhsSL+u23394vAPyy0MwVTVgoc03587fq+P13joJKLEKd4oNEaE5D8G4a4trfuvVw1Y1pjxRbktpELkGUu1G6Os2mwMHmDOc1URYrO7sDpuFR3wRagujkZBGfOhUmRXGnKgIpu+TFEDUmh9QGrsUm4gB2EDonb0VTqsZaBtJRhNt2MVPep3E56F5YO2uBFt6TTDKJ4QRIcopvUkx1ww03IMppp50W3YrW9Grb1GzalclzayqvRH/ywkIxatKhMVOSaVkz85NdvOVTCghRM6RTygmd8XpaXcErwyF7zPnyNyapCS54lDygf6pU+K+XvEGZf4sWFnNyIzmx1o7P3vl4YKZC7QCWlJ4+Tk7JFLwTc6pMvFkLrT4CSn3gSkytWOykxddiaXjTkHYYw4mCtJQ4IdftiCKi4Gc2xtUMlKQjJA1cbClUaPEBInSLbvFqA7JOaBgZYAATX4TF2ehsCfMATIc0HK7iaa7ieuutx3akegWjLFS7Vl1onZmORSxIcIuQm6Tak4mQDGfxmFT6G5g0ryY7wLAFidM+9NRkeKpJBWNr8zWptWmBXvHkYmQIkaUMkpZWoAxEgXn+XaqPkb7sssuaLhFECEapPaDIRBiK15vO46R0m1vk3Xff3Z71B2HYeCE1aHWozWoJjmULOCVcxWIJx4RLIbL61IU2vnkzgLBiEw8JsBVwmojd9QsqkmpnLp58Au/AzhYXRMXhg6dwvRkqpbbYbldfkcM23CPlA+kYYMv/pUp+k7jQtY9IQ6VD+ZxMliNsXupWWWBxwiRpxfd0lbOnnvRkriSdEQcXRIjOtsodkWkq7spCQrSmOaNAzxMqq+NCFgcP0aY5wAju7LVrVUNLKPkFcMURPKm0HmwcSY2zsRBeQwS5P6hDyQAeX8uu5fuLTZstlu8JaC0nwhOB5OvGlYb6VAlm6R6JBf6toEgAA/4+ffqkDg0KhAYYDqiP4zsFCYv+zstR4DSl4VoBr1uqSQXUMMlNN91U+EQoSZpNJZWRXBkUYy8YeNbX6fSRNJYecReU8qmEMD9jWqgCWuPZTjsI+5q6RsFikAZqvAa0ymbHBwwGznKwSCKaRGfBjEq/ypoKtVnM3/arIEr0kg+/9957mfDkxEbTNttsIwpceeWVpejkKOjnpLHzsbXluAaOesztFElqJTgxrm/S1NNn+qBSnL12HqRLGjhvNaHN4AZeErGJkFcHNs4OEdaEHgFekZDCc/g1nyrKFdDSLYAxI70BiSSy+eBYxq8OqT5dENm6eurO/pLqxigOLPZgk9KQDhZ81XDAAQfgeirEtHiOZNB7xRKOgwPmm28+HxkB2Bf6RYfKV6k0CRlJwWhFegnnkBWZIOlfXEJdUQPsl9QHCyV9UannEY0tY/WLhTCKJqQ79NBD8yZXs+K3SvB0o43trfIznVKzc3ExCFwpXj5IJa5mxHqBbpJaleyoaExoBEVuHl6jSbCzPjSMD6aFH57isiw/RnfKokCgYvmYxB/20CKVKYhLLrnEGbGCKzyG1gd+Tdc99dRT/Z1SYkohJumHEN1IjPz5hr+wc9LddtvN91Z0posd3iwC1s5MsrF4bT0trT6pw9QBMXP5SfVRcFkkVmxJIQNVNMaVt5ICLVG5D7jG1MWqhmBYZA2tC2wMLvPgN6xUsbMOvuJCRlSGHVq2d+CBB7pfSZFPLMSr5zcxVORbClBEu8MOO7h7h4f4R8iBRnylYlfuKPV0Y5jXY32XNgwhOCMBohX15P1dzB122GG+gnD7dvjhh9MN+UB74woR+rxSGSXZ2lxUokMl/aPJVHQ4xVMpgaVCZhRhw0phFnRBC4vVzo65dDBjAa0lSS3/zedepJPaqUzhxs782lzt5Km1qwXJJuTmzTE/DiKKTTNwDMUbgHfj5HQRaFGwZJGlhIE/otKZpiGaFADLjWQMimO68ZZaSp42rhWKSDKw4nS+PF9aJQpUFBVNSYqhPXglz047shqGuRjFyvqYhj5XTzkr0Hw0QaUvFmOl33nO9WxKCa0xZozMHzmDLhZLACh4IEo6g1NqoTUDUGUeKlkp9hS/vFNXlQgkZMIQ4YDkHbpaNo+cjqDe/n2rQIbwJX1LTMVmJBK0RVYBeDjAKJrcJblkbEi2SIbfh4NPOOEEnIppHFzSjQLkwdotrVBMVewWeMJlfwctU5tDS9wpszxSioF4yJCIargprAZnltPD6cuHp1XsjeZngws/MXWo+0WjfEXcZghnYRADMBEACEQEtXANBk/TtV5wEobKzKTWg43wMk7ycCWS99/6hNGTs0MuZQ3pHjgJDNSzfKjGJjWdTWRsM+nuEwwulEi2gRCS5yO7EG1lqliLCqEGcuqLU03lvr3pZggVZU4urRuQ50PkN2TF/TMC5MrrU7kutJiC72decOIdKgKDY2Qcp8mjzIIShZRWTZO2UhB04kqzwdgvgsa0ClQCNc6XlliweiuzpT5mk85l/1hTYSiY6508DWmxQGrtrcXODbqRB+qkQYe8iQpBAeyeVyrDBe/67Kv2Li/1rAutHrQ8h4jSR/oYEDDgwbiTaVu2aAJJA1jSPKygo1IDZvMba8VCspg0RNpr6wUxK++0yAm0Prwf74k5eGqRNG2w1UbQGgYD6Ia/jspxJ5OrlwZT12uCqPAfPzLGwrJwE0Im4Apm6iHcVBnB9mTOtl3SUcK0X71t/HvrOQdcB84gQjU4RRN1RzHS8u718Aj1S6oq5wpd2qLyFEvAFYT0PG8zvK3QdYQ1vP/YdG0kULl6baVtc53kJWj1uDir7fMvreG+8c/5xo1xdbom0OrBp0huRT1y8Lk4IFxrPirTa9V67jEFUPsxRpo2ACbBavy2Da3h/Dv5dFco5vTxaVriX12Q7RIQi7gqcxTF0ZpDWwyofWUs3YsRXIkOEhkaldIOmPOQBlqYgNsJeFnMUMK1E6qPpzvQmpa+kWqQcaUefKnUESeodre9U4O8ciCSjqIvecdWFu0utKjP0bWwxZThChWmTsIS3hQ4CeZzkSEdMIGEJ73Ne6qX59LNbAFtZdDcyqlSH4lPIZDPz1xkiYjac+bTbH2rgDVF3uI6mVH52ha3UeaQWxyWurlLIH/cH460e0RqGX7xQYJKYItcfaoR/flE0rwqOcOcsmCINFVtofvQmlNygCcoeBOP8j5qV+nHa7hLdk7lsK+t4+pQ3YKWaIKWFLKgcvGWR0FRB3QD5si8hAhajBCLxsixGrEagBVqKcuZCtQ7Aq35rcX18A038ZVDttvaRfvBGhLiH+e44ZByksHuamDSPrSoTxWjvgKRDZCgy4769QpXgY0yMYVW0E6iA7q4QT1jrJDQVfBQ6YQ7ottOQWtpu0ImH3tKgbnz4WH1g1jmW+Lh+3LK9RHjyg1Erry1lXL70LJeMmGwIbsBYbGe3UDUL+w9qTVy1IEieYoOfjlc1LXQmUWMIfqkUR0pML3Umj93dFcjMSu87si0nZ2E+RCRi9l8toER5cPbm79NaGld6VmyxSHiNNULdQJRAHvy/fk6VQqQNBNi6Mq2Q1QMCl1wglkM7eakNoeeT9JemVZwPy8zDGbXfwAWS9hJe7N1cJQ98Of9O2HfCEh6y/K6diQ5bS/RJBtVb143Ni4P5PQ5b24ZK6EFEl+JIGq14yJlCHX0dZcSuw/smeG4CmwvCVVvt/XqZU7cscs5S375q2f52NqPH+qN7WC9qMEFgG0wrlKklArO7v78bULLaeK52YodUMuVkQxoSSFZ1KcyZcjnoh4xh/sAdpco4wNS1f1TdWkGWofp9bchTIx7XHfpdtsLGENUMMO/c7ctOKRCfLARGdYu7b9e5zahNR1IoEvaODvYnz6hSPNlyCUfODJZ7sWY2Lw1ysgqjUwbd/BItau0WEMPcUS5LY4DWn9n4PHhXHBni5M07kYMAMmaCsNoLMTxH9MlVYoPVxtP0mJr+9BaQMDqb3XoWxbXpsNM+vVQs3ClYP3CGI06omRaPFU3u8mZo74rdzlRkRKm9LcFBFpYSbVwDtgLmqZg5XxRFKDJOJjCehk6ISLXRA7HK8NkKt+I+WonfbmRj+1UuVvQ2gQetGlalMWNe3XBq91TxSqB6lFwD0PZdmrTvTYPhYR9JUeFeWTaLSk140QY1wEdE+MqJIwhihVEfUyVguE8TXzguxwuoQ8cgSo31ztGp7vQOmfyhhzbpp3WUcMtcgPjVB7im87fa8D0xEKcDNk3Dz4mlCBMny3ClQJjWUDO5yfrkgweZ++JnTSds7vQWkBQS33JWuDlv4X0n/8xQEaxp99IPjTdR/8OHadAB6C1J/LK12VdZBvIqAAG53Z8r/0n7BIFOgOtJTnMnGQxTGWM26U99e/cEQp0DNqO7Kb/JB2kQJuJxg7uoP9UPUSB/tD2EGH7/rT9oe37GPTQDv4DFSsKrcKVRKkAAAAASUVORK5CYII=;" vertex="1" parent="o-uRExmvfYBmLYg7Qbvn-55">
          <mxGeometry x="200" y="28.77000000000001" width="38" height="16.35" as="geometry" />
        </mxCell>
        <mxCell id="o-uRExmvfYBmLYg7Qbvn-42" style="edgeStyle=orthogonalEdgeStyle;rounded=0;orthogonalLoop=1;jettySize=auto;html=1;exitX=0;exitY=0;exitDx=0;exitDy=0;entryX=-0.002;entryY=0;entryDx=0;entryDy=0;entryPerimeter=0;strokeWidth=0.65;fontSize=7;endSize=6;" edge="1" parent="o-uRExmvfYBmLYg7Qbvn-55" source="o-uRExmvfYBmLYg7Qbvn-34" target="o-uRExmvfYBmLYg7Qbvn-34">
          <mxGeometry relative="1" as="geometry" />
        </mxCell>
        <mxCell id="o-uRExmvfYBmLYg7Qbvn-43" value="" style="endArrow=classic;html=1;rounded=0;strokeWidth=0.5;" edge="1" parent="o-uRExmvfYBmLYg7Qbvn-55">
          <mxGeometry width="50" height="50" relative="1" as="geometry">
            <mxPoint x="51.25999999999999" y="58.30000000000001" as="sourcePoint" />
            <mxPoint x="70" y="58" as="targetPoint" />
          </mxGeometry>
        </mxCell>
        <mxCell id="o-uRExmvfYBmLYg7Qbvn-44" value="" style="shape=image;verticalLabelPosition=bottom;labelBackgroundColor=default;verticalAlign=top;aspect=fixed;imageAspect=0;image=data:image/png,iVBORw0KGgoAAAANSUhEUgAAACsAAAAuCAIAAAA+8nckAAAAAXNSR0IArs4c6QAAAERlWElmTU0AKgAAAAgAAYdpAAQAAAABAAAAGgAAAAAAA6ABAAMAAAABAAEAAKACAAQAAAABAAAAK6ADAAQAAAABAAAALgAAAACmPMiIAAAFcklEQVRYCcVYSSi1Xxj/cMmYKfNYRMbMRIYMJQtDKKyQDUWxoCwsSKYsRIhkQ0qxsEDG+stUyJgpMmWe59n3u97b8XqH+11/bu7i9pznPMPvDM9wXpm3t7c/v/qT/VXvQue/j0DwpT24u7tbXl5eWFhYW1s7Ojq6ublRUFDQ0tIyNze3tbW1sbHR1tb+kkEIy0hyD56fnwcGBlpaWsbGxp6envT19eFST09PRUXl8fHx+Ph4e3t7Z2cHtJWVVUxMTEREBGBJCgUIxPxeXl6amprc3NwsLS3T09P7+/tPT0855bE909PTRUVFHh4eFhYWeXl5QMYpyWD+YYzpw6mpqYCAACyrqqrq/PycPiWGBuju7u7AwECABnoxktQUL4Lq6mrsc3Z29tnZ2T+tcArAvampaWJi4tXVFaeAOARZWVmGhoZYihhNSaY2Nzf9/Py8vb0PDg745Dn2AOeNi7a4uMin8yX+7e1tdHS0i4vL4eEhpyITQUFBgYmJycrKCqf0/2M+PDxERkb6+/vjtrItfELQ2dmpoaExMTHBlvsm5/r6GtuQkZHBtvOBAMFjZmZWU1PDFuLkIAH89/6bnJx8fX3llKEzl5aWkCR6enroTNAfCHD7EEKS2KJMlJWVUTnH3t4eaYphl3NYXl7u6OjIOAtRXdjY2Ghubi4pKZGRkZEwl8nKinTl5OQkVElLSwNW5Fa6vMhKbW2tu7s7ch997sdpRUXFzMzMyspKpHliXIgAAdPe3g6AhCs9IjY2Fnkd9YW4ECIYHx/HPxIw4UqPQKwhLNva2ogLIQLUGxyBkpIS4UqVCAsLGxkZEUbB+0+IAOHk4+MjVa90466uroh8pEiKKYvLubu7i+aCLiQJTY8aEheSKKLioK/Z2tqihAXIVriJ4HIq39/f0+8tXQZT1BAp5PLyUiDgbreUlZUZ+MBRV1ff29sTIYB7rAbdDt06oVNTU3FLyJBOoOZSQyQ7BwcH+pYQMawVBRaNAuFQBNwBNEUL0FCAYsAkCqiq6MDIkJPAOSJDc04hWaF1Y0+BT/nFlCz2BNcSmZItJz0O3KmpqVH2BaqqqtgrNL5o7tguS0tLc3Jy2HxwWltb0UeBgGJdXR1nbsbWotVgqGNX0PPp6OhQfAEyJVrs1dVVLy8vhiiGqDpsJsWZmZmhCKwGJY1PjM2n2nx0IdSUMB/ADT1NsnU4OSRGcIiE5pRkMPHcwE00MjKi+EIEWAGSFLkaDIUfH/b29jo5OcnLy38gQKI+OTkhu/rjLukGETiIz6ioKMIU7gEuha+vb0NDA+FKj8DbC2+9kJAQ4kKIAD/0x6hXfGFNyfzIP5qghIQEEoqwKUKAQEB5LCws/BE3fEa6urrw8MVqPwmQhm5+fh6d5NDQEOGIJ4qLiylDeNbhdMULYxZpGJIVFRUMyU9vZ2xRfX09GhZJHuHDw8Po7gHCwMAA/RVfXifLTUpKQjeKQGDWMDoihHV4eDiuCd4YdP73aawN5RcI2KY+unVqDvkSFwLfABg9NVtTcg6e3pqamqOjo5wqTAQQ2t/fx1szKCgInQunjuRMbGpubq6uru7g4CCfFgcCiF5cXMTFxaHk4KT5NP/Jx+MzNDTUzs4OXzbECHMjoBSwe8bGxvHx8QgTMSbYU6g9+fn5yPwpKSnItmwBOkccAsitr68nJyfDFm5GR0cH3yccyiLuLyoc3iTYPPT+fX19dE989KdoJJHDIPAtobGxEfkE19Pa2trZ2RmNF4IQjQWaRDS+uOSzs7Nzc3PIuJ6engAdHBzMMMI3lAgBpYwl4kSRBlDD0Lohw8A9plBq8b0HX/PQ8iOOvvAV7d3uFxDwLeKbfFFd+KaV76j/PoK/lpe10wnZGywAAAAASUVORK5CYII=;" vertex="1" parent="o-uRExmvfYBmLYg7Qbvn-55">
          <mxGeometry x="55" y="45" width="9.35" height="10" as="geometry" />
        </mxCell>
        <mxCell id="o-uRExmvfYBmLYg7Qbvn-45" value="" style="endArrow=classic;html=1;rounded=0;strokeWidth=0.5;" edge="1" parent="o-uRExmvfYBmLYg7Qbvn-55">
          <mxGeometry width="50" height="50" relative="1" as="geometry">
            <mxPoint x="125" y="57.880000000000024" as="sourcePoint" />
            <mxPoint x="143.74" y="57.58000000000001" as="targetPoint" />
          </mxGeometry>
        </mxCell>
        <mxCell id="o-uRExmvfYBmLYg7Qbvn-46" value="" style="shape=image;verticalLabelPosition=bottom;labelBackgroundColor=default;verticalAlign=top;aspect=fixed;imageAspect=0;image=data:image/png,iVBORw0KGgoAAAANSUhEUgAAACsAAAAuCAIAAAA+8nckAAAAAXNSR0IArs4c6QAAAERlWElmTU0AKgAAAAgAAYdpAAQAAAABAAAAGgAAAAAAA6ABAAMAAAABAAEAAKACAAQAAAABAAAAK6ADAAQAAAABAAAALgAAAACmPMiIAAAFcklEQVRYCcVYSSi1Xxj/cMmYKfNYRMbMRIYMJQtDKKyQDUWxoCwsSKYsRIhkQ0qxsEDG+stUyJgpMmWe59n3u97b8XqH+11/bu7i9pznPMPvDM9wXpm3t7c/v/qT/VXvQue/j0DwpT24u7tbXl5eWFhYW1s7Ojq6ublRUFDQ0tIyNze3tbW1sbHR1tb+kkEIy0hyD56fnwcGBlpaWsbGxp6envT19eFST09PRUXl8fHx+Ph4e3t7Z2cHtJWVVUxMTEREBGBJCgUIxPxeXl6amprc3NwsLS3T09P7+/tPT0855bE909PTRUVFHh4eFhYWeXl5QMYpyWD+YYzpw6mpqYCAACyrqqrq/PycPiWGBuju7u7AwECABnoxktQUL4Lq6mrsc3Z29tnZ2T+tcArAvampaWJi4tXVFaeAOARZWVmGhoZYihhNSaY2Nzf9/Py8vb0PDg745Dn2AOeNi7a4uMin8yX+7e1tdHS0i4vL4eEhpyITQUFBgYmJycrKCqf0/2M+PDxERkb6+/vjtrItfELQ2dmpoaExMTHBlvsm5/r6GtuQkZHBtvOBAMFjZmZWU1PDFuLkIAH89/6bnJx8fX3llKEzl5aWkCR6enroTNAfCHD7EEKS2KJMlJWVUTnH3t4eaYphl3NYXl7u6OjIOAtRXdjY2Ghubi4pKZGRkZEwl8nKinTl5OQkVElLSwNW5Fa6vMhKbW2tu7s7ch997sdpRUXFzMzMyspKpHliXIgAAdPe3g6AhCs9IjY2Fnkd9YW4ECIYHx/HPxIw4UqPQKwhLNva2ogLIQLUGxyBkpIS4UqVCAsLGxkZEUbB+0+IAOHk4+MjVa90466uroh8pEiKKYvLubu7i+aCLiQJTY8aEheSKKLioK/Z2tqihAXIVriJ4HIq39/f0+8tXQZT1BAp5PLyUiDgbreUlZUZ+MBRV1ff29sTIYB7rAbdDt06oVNTU3FLyJBOoOZSQyQ7BwcH+pYQMawVBRaNAuFQBNwBNEUL0FCAYsAkCqiq6MDIkJPAOSJDc04hWaF1Y0+BT/nFlCz2BNcSmZItJz0O3KmpqVH2BaqqqtgrNL5o7tguS0tLc3Jy2HxwWltb0UeBgGJdXR1nbsbWotVgqGNX0PPp6OhQfAEyJVrs1dVVLy8vhiiGqDpsJsWZmZmhCKwGJY1PjM2n2nx0IdSUMB/ADT1NsnU4OSRGcIiE5pRkMPHcwE00MjKi+EIEWAGSFLkaDIUfH/b29jo5OcnLy38gQKI+OTkhu/rjLukGETiIz6ioKMIU7gEuha+vb0NDA+FKj8DbC2+9kJAQ4kKIAD/0x6hXfGFNyfzIP5qghIQEEoqwKUKAQEB5LCws/BE3fEa6urrw8MVqPwmQhm5+fh6d5NDQEOGIJ4qLiylDeNbhdMULYxZpGJIVFRUMyU9vZ2xRfX09GhZJHuHDw8Po7gHCwMAA/RVfXifLTUpKQjeKQGDWMDoihHV4eDiuCd4YdP73aawN5RcI2KY+unVqDvkSFwLfABg9NVtTcg6e3pqamqOjo5wqTAQQ2t/fx1szKCgInQunjuRMbGpubq6uru7g4CCfFgcCiF5cXMTFxaHk4KT5NP/Jx+MzNDTUzs4OXzbECHMjoBSwe8bGxvHx8QgTMSbYU6g9+fn5yPwpKSnItmwBOkccAsitr68nJyfDFm5GR0cH3yccyiLuLyoc3iTYPPT+fX19dE989KdoJJHDIPAtobGxEfkE19Pa2trZ2RmNF4IQjQWaRDS+uOSzs7Nzc3PIuJ6engAdHBzMMMI3lAgBpYwl4kSRBlDD0Lohw8A9plBq8b0HX/PQ8iOOvvAV7d3uFxDwLeKbfFFd+KaV76j/PoK/lpe10wnZGywAAAAASUVORK5CYII=;" vertex="1" parent="o-uRExmvfYBmLYg7Qbvn-55">
          <mxGeometry x="128.74" y="44.58000000000001" width="9.35" height="10" as="geometry" />
        </mxCell>
        <mxCell id="o-uRExmvfYBmLYg7Qbvn-47" value="腺垂体" style="rounded=0;whiteSpace=wrap;html=1;strokeColor=#1A1A1A;fontSize=7;fillColor=#F5F5F5;fontColor=#333333;strokeWidth=0.2;" vertex="1" parent="o-uRExmvfYBmLYg7Qbvn-55">
          <mxGeometry x="86.34999999999991" y="80" width="25.63" height="10" as="geometry" />
        </mxCell>
        <mxCell id="o-uRExmvfYBmLYg7Qbvn-48" value="肾上腺" style="rounded=0;whiteSpace=wrap;html=1;strokeColor=#1A1A1A;fontSize=7;fillColor=#F5F5F5;fontColor=#333333;strokeWidth=0.2;" vertex="1" parent="o-uRExmvfYBmLYg7Qbvn-55">
          <mxGeometry x="159.9999999999999" y="80" width="25.63" height="10" as="geometry" />
        </mxCell>
        <mxCell id="o-uRExmvfYBmLYg7Qbvn-49" value="肾脏" style="rounded=0;whiteSpace=wrap;html=1;strokeColor=#1A1A1A;fontSize=7;fillColor=#F5F5F5;fontColor=#333333;strokeWidth=0.2;" vertex="1" parent="o-uRExmvfYBmLYg7Qbvn-55">
          <mxGeometry x="159.9999999999999" y="91.35" width="25.63" height="10" as="geometry" />
        </mxCell>
        <mxCell id="o-uRExmvfYBmLYg7Qbvn-51" value="" style="curved=1;endArrow=classic;html=1;rounded=0;strokeWidth=0.5;fontSize=7;endSize=6;exitX=0.25;exitY=0;exitDx=0;exitDy=0;" edge="1" parent="o-uRExmvfYBmLYg7Qbvn-55">
          <mxGeometry width="50" height="50" relative="1" as="geometry">
            <mxPoint x="206.65999999999997" y="23.94999999999999" as="sourcePoint" />
            <mxPoint x="30" y="30" as="targetPoint" />
            <Array as="points">
              <mxPoint x="190" y="10" />
              <mxPoint x="140" />
              <mxPoint x="80" />
              <mxPoint x="40" y="10" />
            </Array>
          </mxGeometry>
        </mxCell>
        <mxCell id="o-uRExmvfYBmLYg7Qbvn-56" value="&lt;b&gt;&lt;font style=&quot;font-size: 11px;&quot;&gt;HPA轴&lt;/font&gt;&lt;/b&gt;" style="text;html=1;align=center;verticalAlign=middle;resizable=0;points=[];autosize=1;strokeColor=none;fillColor=none;fontSize=7;" vertex="1" parent="1">
          <mxGeometry x="751" y="210" width="60" height="30" as="geometry" />
        </mxCell>
        <mxCell id="o-uRExmvfYBmLYg7Qbvn-57" value="&lt;b&gt;进化机制&lt;br&gt;&lt;/b&gt;" style="rounded=1;whiteSpace=wrap;html=1;dashed=1;" vertex="1" parent="1">
          <mxGeometry x="540.5" y="250" width="261" height="30" as="geometry" />
        </mxCell>
        <mxCell id="o-uRExmvfYBmLYg7Qbvn-60" value="" style="endArrow=classic;html=1;rounded=0;strokeWidth=0.5;fontSize=11;endSize=6;exitX=1;exitY=0.5;exitDx=0;exitDy=0;entryX=0;entryY=0.5;entryDx=0;entryDy=0;" edge="1" parent="1" source="o-uRExmvfYBmLYg7Qbvn-1" target="o-uRExmvfYBmLYg7Qbvn-2">
          <mxGeometry width="50" height="50" relative="1" as="geometry">
            <mxPoint x="360" y="260" as="sourcePoint" />
            <mxPoint x="410" y="210" as="targetPoint" />
          </mxGeometry>
        </mxCell>
        <mxCell id="o-uRExmvfYBmLYg7Qbvn-61" value="" style="endArrow=none;html=1;rounded=0;strokeWidth=0.5;fontSize=17;endSize=6;endFill=0;" edge="1" parent="1">
          <mxGeometry relative="1" as="geometry">
            <mxPoint x="320" y="170" as="sourcePoint" />
            <mxPoint x="450" y="170" as="targetPoint" />
          </mxGeometry>
        </mxCell>
        <mxCell id="o-uRExmvfYBmLYg7Qbvn-64" value="" style="endArrow=none;html=1;rounded=0;strokeWidth=0.5;fontSize=17;endSize=6;endFill=0;" edge="1" parent="1">
          <mxGeometry relative="1" as="geometry">
            <mxPoint x="320" y="240" as="sourcePoint" />
            <mxPoint x="450" y="240" as="targetPoint" />
          </mxGeometry>
        </mxCell>
        <mxCell id="o-uRExmvfYBmLYg7Qbvn-65" value="&lt;font style=&quot;font-size: 10px;&quot;&gt;社交网络和社会支持系统&lt;br style=&quot;font-size: 10px;&quot;&gt;象征效应和社会标签&lt;br style=&quot;font-size: 10px;&quot;&gt;相关规划实施&lt;br style=&quot;font-size: 10px;&quot;&gt;&lt;/font&gt;" style="edgeLabel;resizable=0;html=1;align=center;verticalAlign=middle;rounded=1;dashed=1;strokeColor=#1A1A1A;strokeWidth=0.2;fontSize=10;fillColor=#F5F5F5;labelBackgroundColor=#d4d4d4;" connectable="0" vertex="1" parent="o-uRExmvfYBmLYg7Qbvn-64">
          <mxGeometry relative="1" as="geometry" />
        </mxCell>
        <mxCell id="o-uRExmvfYBmLYg7Qbvn-66" value="" style="endArrow=none;html=1;rounded=0;strokeWidth=0.5;fontFamily=Helvetica;fontSize=12;fontColor=default;endSize=6;" edge="1" parent="1">
          <mxGeometry width="50" height="50" relative="1" as="geometry">
            <mxPoint x="320" y="170" as="sourcePoint" />
            <mxPoint x="320" y="240" as="targetPoint" />
          </mxGeometry>
        </mxCell>
        <mxCell id="o-uRExmvfYBmLYg7Qbvn-67" value="" style="endArrow=none;html=1;rounded=0;strokeWidth=0.5;fontFamily=Helvetica;fontSize=12;fontColor=default;endSize=6;" edge="1" parent="1">
          <mxGeometry width="50" height="50" relative="1" as="geometry">
            <mxPoint x="320" y="205" as="sourcePoint" />
            <mxPoint x="310" y="205" as="targetPoint" />
          </mxGeometry>
        </mxCell>
        <mxCell id="o-uRExmvfYBmLYg7Qbvn-68" value="&lt;font style=&quot;font-size: 12px;&quot;&gt;作为应激源&lt;/font&gt;" style="edgeLabel;resizable=0;html=1;align=center;verticalAlign=middle;rounded=1;dashed=1;strokeColor=#1A1A1A;strokeWidth=0.2;fontSize=12;fillColor=#F5F5F5;labelBackgroundColor=#D4D4D4;" connectable="0" vertex="1" parent="1">
          <mxGeometry x="379.9966666666665" y="158" as="geometry" />
        </mxCell>
        <mxCell id="o-uRExmvfYBmLYg7Qbvn-69" value="" style="endArrow=none;html=1;rounded=0;strokeWidth=0.5;fontFamily=Helvetica;fontSize=12;fontColor=default;endSize=6;" edge="1" parent="1">
          <mxGeometry width="50" height="50" relative="1" as="geometry">
            <mxPoint x="450" y="170" as="sourcePoint" />
            <mxPoint x="450" y="240" as="targetPoint" />
          </mxGeometry>
        </mxCell>
        <mxCell id="o-uRExmvfYBmLYg7Qbvn-70" value="" style="endArrow=classic;html=1;rounded=0;strokeWidth=0.5;fontFamily=Helvetica;fontSize=12;fontColor=default;endSize=6;" edge="1" parent="1">
          <mxGeometry relative="1" as="geometry">
            <mxPoint x="450" y="204.58" as="sourcePoint" />
            <mxPoint x="531" y="204.58" as="targetPoint" />
          </mxGeometry>
        </mxCell>
        <mxCell id="o-uRExmvfYBmLYg7Qbvn-71" value="瞬时影响&lt;br&gt;长期影响" style="edgeLabel;resizable=0;html=1;align=center;verticalAlign=middle;rounded=1;dashed=1;labelBackgroundColor=default;strokeColor=#1A1A1A;strokeWidth=0.2;fontFamily=Helvetica;fontSize=12;fontColor=default;fillColor=#F5F5F5;gradientColor=none;" connectable="0" vertex="1" parent="o-uRExmvfYBmLYg7Qbvn-70">
          <mxGeometry relative="1" as="geometry" />
        </mxCell>
        <mxCell id="o-uRExmvfYBmLYg7Qbvn-73" value="" style="endArrow=none;html=1;rounded=0;strokeWidth=0.5;fontFamily=Helvetica;fontSize=12;fontColor=default;endSize=6;entryX=0.5;entryY=1;entryDx=0;entryDy=0;exitX=0.5;exitY=0;exitDx=0;exitDy=0;" edge="1" parent="1" source="o-uRExmvfYBmLYg7Qbvn-16" target="o-uRExmvfYBmLYg7Qbvn-1">
          <mxGeometry width="50" height="50" relative="1" as="geometry">
            <mxPoint x="520" y="300" as="sourcePoint" />
            <mxPoint x="570" y="250" as="targetPoint" />
          </mxGeometry>
        </mxCell>
        <mxCell id="o-uRExmvfYBmLYg7Qbvn-74" value="" style="endArrow=none;html=1;rounded=0;strokeWidth=0.5;fontFamily=Helvetica;fontSize=12;fontColor=default;endSize=6;entryX=0.5;entryY=1;entryDx=0;entryDy=0;exitX=0.5;exitY=0;exitDx=0;exitDy=0;" edge="1" parent="1">
          <mxGeometry width="50" height="50" relative="1" as="geometry">
            <mxPoint x="659.1700000000001" y="110" as="sourcePoint" />
            <mxPoint x="659.1700000000001" y="80" as="targetPoint" />
          </mxGeometry>
        </mxCell>
        <mxCell id="o-uRExmvfYBmLYg7Qbvn-75" value="……" style="text;html=1;align=center;verticalAlign=middle;resizable=0;points=[];autosize=1;strokeColor=none;fillColor=none;fontSize=12;fontFamily=Helvetica;fontColor=default;" vertex="1" parent="1">
          <mxGeometry x="646" y="290" width="50" height="30" as="geometry" />
        </mxCell>
        <mxCell id="o-uRExmvfYBmLYg7Qbvn-80" value="" style="endArrow=none;html=1;rounded=0;strokeWidth=0.5;fontFamily=Helvetica;fontSize=16;fontColor=default;endSize=6;entryX=0.5;entryY=1;entryDx=0;entryDy=0;" edge="1" parent="1" target="o-uRExmvfYBmLYg7Qbvn-16">
          <mxGeometry width="50" height="50" relative="1" as="geometry">
            <mxPoint x="168" y="350" as="sourcePoint" />
            <mxPoint x="340" y="250" as="targetPoint" />
          </mxGeometry>
        </mxCell>
        <mxCell id="o-uRExmvfYBmLYg7Qbvn-81" value="" style="endArrow=none;html=1;rounded=0;strokeWidth=0.5;fontFamily=Helvetica;fontSize=16;fontColor=default;endSize=6;entryX=0.5;entryY=1;entryDx=0;entryDy=0;" edge="1" parent="1">
          <mxGeometry width="50" height="50" relative="1" as="geometry">
            <mxPoint x="404.58000000000004" y="350" as="sourcePoint" />
            <mxPoint x="404.58000000000004" y="330" as="targetPoint" />
          </mxGeometry>
        </mxCell>
        <mxCell id="o-uRExmvfYBmLYg7Qbvn-82" value="" style="endArrow=none;html=1;rounded=0;strokeWidth=0.5;fontFamily=Helvetica;fontSize=16;fontColor=default;endSize=6;entryX=0.5;entryY=1;entryDx=0;entryDy=0;" edge="1" parent="1">
          <mxGeometry width="50" height="50" relative="1" as="geometry">
            <mxPoint x="659.5799999999999" y="350" as="sourcePoint" />
            <mxPoint x="659.5799999999999" y="330" as="targetPoint" />
          </mxGeometry>
        </mxCell>
        <mxCell id="o-uRExmvfYBmLYg7Qbvn-83" value="&lt;font style=&quot;font-size: 14px;&quot;&gt;公共卫生领域&amp;nbsp; &amp;nbsp; &amp;nbsp; &amp;nbsp; &amp;nbsp;城市规划领域&amp;nbsp; &amp;nbsp; &amp;nbsp; &amp;nbsp; &amp;nbsp;神经科学领域&amp;nbsp; &amp;nbsp; &amp;nbsp; &amp;nbsp; &amp;nbsp;心理学领域&amp;nbsp; &amp;nbsp; &amp;nbsp; &amp;nbsp; &amp;nbsp;……&lt;/font&gt;" style="rounded=1;whiteSpace=wrap;html=1;dashed=1;labelBackgroundColor=default;strokeColor=#1A1A1A;strokeWidth=1;fontFamily=Helvetica;fontSize=16;fontColor=default;fillColor=none;gradientColor=none;" vertex="1" parent="1">
          <mxGeometry x="27" y="400" width="783" height="30" as="geometry" />
        </mxCell>
      </root>
    </mxGraphModel>
  </diagram>
</mxfile>
